<svg width="311" height="94" viewBox="0 0 311 94" fill="none" xmlns="http://www.w3.org/2000/svg">
<g clip-path="url(#clip0_83_706)">
<path d="M23.6767 93.1266C22.7023 90.8124 21.3803 87.3277 21.1367 83.8401C21.113 83.5222 21.0951 83.1984 21.0803 82.8716C21.0595 82.4141 21.0476 81.9448 21.0476 81.4724C21.0476 80.0554 21.1367 78.6324 21.3179 77.248C21.517 75.6824 21.8349 74.1139 22.2626 72.5899C22.3815 72.1592 22.5092 71.7373 22.6429 71.3333C22.9162 70.4807 23.2252 69.634 23.5638 68.826C24.7224 66.0216 26.2731 63.3836 28.1685 60.9922C28.1952 60.9565 28.21 60.9357 28.2279 60.9149C28.5725 60.4842 28.8725 60.1247 29.1607 59.7979C35.4289 52.585 44.5105 48.4467 54.0733 48.4467C56.4112 48.4467 58.7433 48.6933 61.004 49.1746L60.6475 50.8382C58.5026 50.3807 56.2894 50.146 54.0703 50.146C45.0006 50.146 36.3855 54.0733 30.4351 60.9179C30.1588 61.2268 29.8766 61.5655 29.5409 61.9874C29.5142 62.02 29.4964 62.0438 29.4786 62.0646C27.6961 64.3134 26.2256 66.8118 25.1264 69.4736C24.8056 70.2401 24.5115 71.0392 24.2501 71.8532C24.1223 72.2364 24.0035 72.6315 23.8936 73.0385C23.4866 74.4882 23.1865 75.9736 22.9964 77.4589C22.8271 78.775 22.7409 80.1237 22.7409 81.4694C22.7409 81.915 22.7498 82.3607 22.7706 82.7914C22.7825 83.1004 22.8003 83.4093 22.8241 83.7123C23.0499 86.9564 24.3095 90.2598 25.2363 92.4641L23.6678 93.1236L23.6767 93.1266Z" fill="white"/>
<path d="M5.19587 80.6287L4.31653 79.1701C8.30028 76.7697 13.0238 75.8726 17.6224 76.6479C19.3574 76.9391 21.0329 77.456 22.5984 78.1868L21.8795 79.7316C20.4506 79.0661 18.9236 78.5967 17.3373 78.3294C13.1396 77.6223 8.82907 78.4423 5.19289 80.6317L5.19587 80.6287Z" fill="white"/>
<path d="M1.89534 72.2126L0.944702 70.8015C5.13344 67.9823 10.0262 66.491 15.0913 66.491C18.4067 66.491 21.627 67.1208 24.672 68.3655L24.0273 69.94C21.1903 68.7814 18.1839 68.1932 15.0913 68.1932C10.3649 68.1932 5.80185 69.5835 1.89534 72.2126Z" fill="white"/>
<path d="M1.47948 60.704L0.579346 59.2573C4.35812 56.9044 8.54091 55.5022 13.0059 55.0863C19.1346 54.516 25.1533 55.8884 30.4055 59.0612L29.5262 60.5198C24.5859 57.5372 18.9296 56.2479 13.1634 56.7826C8.96276 57.1748 5.02951 58.4938 1.47651 60.704H1.47948Z" fill="white"/>
<path d="M29.9836 29.5648L29.5945 29.3925C28.9112 29.0865 22.9252 26.294 22.9252 22.4172C22.9252 18.882 28.5309 9.4915 29.1697 8.43095L29.9836 7.08521L30.7976 8.43095C31.4363 9.4915 37.0421 18.882 37.0421 22.4172C37.0421 24.1372 35.8835 25.8513 33.596 27.506C32.0067 28.6557 30.4382 29.3627 30.3728 29.3925L29.9836 29.5648ZM29.9836 10.7927C28.0378 14.1763 24.8235 20.2159 24.8235 22.4142C24.8235 24.4818 28.3081 26.6386 29.9836 27.4734C31.6591 26.6416 35.1438 24.4818 35.1438 22.4142C35.1438 20.2129 31.9324 14.1734 29.9836 10.7927Z" fill="white"/>
<path d="M38.3522 40.0128C36.4985 40.0128 34.6358 39.3325 34.3209 39.2137L33.9229 39.0622L33.7714 38.6641C33.5783 38.1591 31.9473 33.6703 33.9882 31.6294C35.7499 29.8678 42.7192 28.0764 44.0976 27.7378L45.6246 27.3605L45.2473 28.8874C44.9057 30.2659 43.1173 37.2352 41.3556 38.9968C40.5892 39.7633 39.4722 40.0128 38.3552 40.0128H38.3522ZM35.4023 37.5798C36.7748 38.0224 39.1781 38.4859 40.0099 37.6541C40.916 36.748 42.1756 32.9544 42.9925 29.9896C40.0277 30.8065 36.2341 32.0691 35.328 32.9722C34.4962 33.804 34.9597 36.2073 35.4023 37.5798Z" fill="white"/>
<path d="M21.4071 40.0128C20.2871 40.0128 19.1731 39.7663 18.4066 38.9968C16.645 37.2352 14.8536 30.2659 14.515 28.8874L14.1377 27.3605L15.6647 27.7378C17.0431 28.0794 24.0124 29.8707 25.7741 31.6294C27.815 33.6703 26.1811 38.1591 25.9909 38.6641L25.8394 39.0622L25.4413 39.2137C25.1264 39.3355 23.2608 40.0128 21.4101 40.0128H21.4071ZM16.7638 29.9896C17.5808 32.9544 18.8433 36.751 19.7464 37.6541C20.5812 38.4888 22.9845 38.0224 24.3541 37.5798C24.7967 36.2103 25.2601 33.804 24.4283 32.9722C23.5222 32.0661 19.7286 30.8065 16.7638 29.9896Z" fill="white"/>
<path d="M30.9313 28.525H29.033V48.4141H30.9313V28.525Z" fill="white"/>
<path d="M25.5176 37.5688L24.0763 38.8042L29.1898 44.7702L30.6311 43.5348L25.5176 37.5688Z" fill="white"/>
<path d="M34.0063 37.5929L29.1754 43.5585L30.6507 44.7532L35.4816 38.7875L34.0063 37.5929Z" fill="white"/>
<path d="M30.7649 94C30.6669 94 30.5689 94 30.4708 94C21.6567 93.9287 13.4158 90.6312 7.86353 84.9482C2.69743 79.6662 0.0326781 72.5543 0.157449 64.3818L0 46.5158V0H61.8626V38.1888L61.6725 64.3996C61.5299 73.6475 58.0749 81.3714 51.6878 86.7455C46.1177 91.4273 38.6968 94 30.7649 94ZM1.8983 1.8983V46.5069L2.05278 64.3847C1.93989 72.0611 4.41748 78.7067 9.21819 83.6202C14.4199 88.9438 22.1706 92.0334 30.4827 92.0987C30.5689 92.0987 30.661 92.0987 30.7471 92.0987C44.5729 92.0987 59.4741 83.4598 59.7712 64.3788L59.9613 38.1829V1.8983H1.8983Z" fill="white"/>
</g>
<path d="M295.3 75.769L298.387 75.177C298.57 76.7557 299.07 77.9327 299.888 78.7079C300.705 79.4691 301.791 79.8497 303.144 79.8497C304.497 79.8497 305.54 79.5184 306.273 78.8559C307.02 78.1793 307.394 77.3266 307.394 76.2976C307.394 75.4096 307.077 74.7189 306.442 74.2255C306.005 73.8872 304.948 73.4644 303.271 72.9569C300.846 72.2099 299.225 71.5756 298.408 71.054C297.59 70.5325 296.956 69.8348 296.505 68.9609C296.054 68.0869 295.828 67.0932 295.828 65.9796C295.828 64.0627 296.442 62.5051 297.668 61.307C298.894 60.1089 300.593 59.5098 302.763 59.5098C304.131 59.5098 305.329 59.7565 306.358 60.2498C307.401 60.7432 308.197 61.4056 308.747 62.2373C309.297 63.0689 309.677 64.26 309.889 65.8105L306.844 66.3179C306.562 63.8653 305.23 62.639 302.848 62.639C301.495 62.639 300.487 62.9139 299.824 63.4636C299.162 63.9992 298.831 64.6899 298.831 65.5356C298.831 66.3673 299.148 67.0227 299.782 67.502C300.163 67.7839 301.29 68.2349 303.165 68.8551C305.745 69.6868 307.415 70.3493 308.176 70.8426C308.937 71.3219 309.529 71.9843 309.952 72.8301C310.375 73.6617 310.586 74.6555 310.586 75.8113C310.586 77.9538 309.903 79.6876 308.536 81.0125C307.182 82.3375 305.329 83 302.975 83C298.563 83 296.005 80.5897 295.3 75.769Z" fill="white"/>
<path d="M292.679 79.0673L293.101 82.4291C292.242 82.6547 291.466 82.7674 290.776 82.7674C289.69 82.7674 288.816 82.556 288.154 82.1331C287.491 81.6962 287.033 81.1042 286.78 80.3571C286.54 79.61 286.42 78.1229 286.42 75.8959V62.9773H284.137V60.0172H286.42V54.4565L289.528 52.1731V60.0172H292.679V62.9773H289.528V76.1073C289.528 77.3195 289.62 78.1018 289.803 78.4542C290.071 78.9616 290.571 79.2154 291.304 79.2154C291.657 79.2154 292.115 79.166 292.679 79.0673Z" fill="white"/>
<path d="M265.109 82.4714V60.0172H267.921V63.2099C268.597 61.9695 269.422 61.0462 270.394 60.4401C271.381 59.8199 272.509 59.5098 273.777 59.5098C274.764 59.5098 275.673 59.7071 276.505 60.1018C277.351 60.4824 278.027 60.9898 278.535 61.6241C279.056 62.2443 279.444 63.0548 279.698 64.0556C279.951 65.0564 280.078 66.5928 280.078 68.6648V82.4714H276.949V68.8128C276.949 67.1637 276.808 65.9585 276.526 65.1973C276.244 64.4362 275.8 63.8512 275.194 63.4425C274.602 63.0196 273.911 62.8082 273.122 62.8082C271.628 62.8082 270.437 63.3649 269.549 64.4785C268.661 65.592 268.217 67.502 268.217 70.2083V82.4714H265.109Z" fill="white"/>
<path d="M257.096 75.2404L260.31 75.7267C259.774 78.123 258.802 79.9342 257.392 81.1605C255.997 82.3728 254.263 82.9789 252.191 82.9789C249.583 82.9789 247.469 81.9922 245.848 80.0188C244.241 78.0313 243.438 75.1699 243.438 71.4346C243.438 67.5583 244.248 64.6053 245.869 62.5756C247.504 60.5317 249.569 59.5098 252.064 59.5098C254.446 59.5098 256.434 60.5106 258.027 62.5121C259.619 64.5137 260.416 67.4103 260.416 71.202L260.395 72.2169H246.651C246.778 74.74 247.363 76.6429 248.406 77.9256C249.449 79.2083 250.718 79.8497 252.212 79.8497C254.552 79.8497 256.18 78.3132 257.096 75.2404ZM246.842 69.0877H257.117C256.976 67.1425 256.561 65.6907 255.87 64.7322C254.869 63.3367 253.593 62.639 252.043 62.639C250.647 62.639 249.456 63.224 248.47 64.3939C247.483 65.5497 246.94 67.1143 246.842 69.0877Z" fill="white"/>
<path d="M214.07 82.4714V60.0172H216.861V63.1676C217.482 61.9977 218.278 61.0955 219.251 60.4612C220.223 59.8269 221.287 59.5098 222.443 59.5098C223.74 59.5098 224.832 59.8481 225.72 60.5247C226.623 61.1872 227.264 62.1598 227.644 63.4425C228.377 62.1316 229.216 61.1519 230.16 60.5035C231.119 59.841 232.176 59.5098 233.332 59.5098C235.094 59.5098 236.482 60.1089 237.497 61.307C238.512 62.5051 239.02 64.4221 239.02 67.058V82.4714H235.911V68.3266C235.911 66.7197 235.792 65.585 235.552 64.9225C235.327 64.2459 234.953 63.7244 234.431 63.3579C233.91 62.9914 233.325 62.8082 232.677 62.8082C231.337 62.8082 230.245 63.3438 229.399 64.415C228.554 65.4722 228.131 67.1425 228.131 69.426V82.4714H225.002V67.8825C225.002 66.0219 224.713 64.711 224.135 63.9499C223.571 63.1887 222.789 62.8082 221.788 62.8082C220.364 62.8082 219.236 63.3861 218.405 64.5419C217.587 65.6836 217.179 67.7768 217.179 70.8215V82.4714H214.07Z" fill="white"/>
<path d="M210.223 79.0673L210.646 82.4291C209.786 82.6547 209.011 82.7674 208.32 82.7674C207.235 82.7674 206.361 82.556 205.699 82.1331C205.036 81.6962 204.578 81.1042 204.324 80.3571C204.085 79.61 203.965 78.1229 203.965 75.8959V62.9773H201.681V60.0172H203.965V54.4565L207.073 52.1731V60.0172H210.223V62.9773H207.073V76.1073C207.073 77.3195 207.165 78.1018 207.348 78.4542C207.616 78.9616 208.116 79.2154 208.849 79.2154C209.201 79.2154 209.659 79.166 210.223 79.0673Z" fill="white"/>
<path d="M194.494 55.852V51.4753H197.602V55.852H194.494ZM194.494 82.4714V60.0172H197.602V82.4714H194.494Z" fill="white"/>
<path d="M164.069 82.4714V60.0172H166.86V63.1676C167.48 61.9977 168.276 61.0955 169.249 60.4612C170.222 59.8269 171.286 59.5098 172.442 59.5098C173.739 59.5098 174.831 59.8481 175.719 60.5247C176.621 61.1872 177.262 62.1598 177.643 63.4425C178.376 62.1316 179.215 61.1519 180.159 60.5035C181.118 59.841 182.175 59.5098 183.331 59.5098C185.092 59.5098 186.481 60.1089 187.496 61.307C188.511 62.5051 189.018 64.4221 189.018 67.058V82.4714H185.91V68.3266C185.91 66.7197 185.79 65.585 185.551 64.9225C185.325 64.2459 184.952 63.7244 184.43 63.3579C183.908 62.9914 183.323 62.8082 182.675 62.8082C181.336 62.8082 180.244 63.3438 179.398 64.415C178.552 65.4722 178.129 67.1425 178.129 69.426V82.4714H175V67.8825C175 66.0219 174.711 64.711 174.133 63.9499C173.569 63.1887 172.787 62.8082 171.786 62.8082C170.363 62.8082 169.235 63.3861 168.403 64.5419C167.586 65.6836 167.177 67.7768 167.177 70.8215V82.4714H164.069Z" fill="white"/>
<path d="M133.602 82.4714V60.0172H136.393V63.1676C137.014 61.9977 137.81 61.0955 138.783 60.4612C139.755 59.8269 140.819 59.5098 141.975 59.5098C143.272 59.5098 144.364 59.8481 145.252 60.5247C146.154 61.1872 146.796 62.1598 147.176 63.4425C147.909 62.1316 148.748 61.1519 149.692 60.5035C150.651 59.841 151.708 59.5098 152.864 59.5098C154.626 59.5098 156.014 60.1089 157.029 61.307C158.044 62.5051 158.552 64.4221 158.552 67.058V82.4714H155.443V68.3266C155.443 66.7197 155.324 65.585 155.084 64.9225C154.858 64.2459 154.485 63.7244 153.963 63.3579C153.442 62.9914 152.857 62.8082 152.209 62.8082C150.869 62.8082 149.777 63.3438 148.931 64.415C148.086 65.4722 147.663 67.1425 147.663 69.426V82.4714H144.534V67.8825C144.534 66.0219 144.245 64.711 143.667 63.9499C143.103 63.1887 142.321 62.8082 141.32 62.8082C139.896 62.8082 138.768 63.3861 137.937 64.5419C137.119 65.6836 136.71 67.7768 136.71 70.8215V82.4714H133.602Z" fill="white"/>
<path d="M111.783 71.2443C111.783 67.3681 112.594 64.4432 114.215 62.4699C115.85 60.4965 117.915 59.5098 120.41 59.5098C122.862 59.5098 124.913 60.4965 126.562 62.4699C128.212 64.4432 129.036 67.2905 129.036 71.0118C129.036 75.0431 128.226 78.0454 126.605 80.0188C124.984 81.9922 122.919 82.9789 120.41 82.9789C117.943 82.9789 115.885 81.9922 114.236 80.0188C112.601 78.0313 111.783 75.1065 111.783 71.2443ZM114.976 71.2443C114.976 74.148 115.505 76.3117 116.562 77.7353C117.619 79.1449 118.93 79.8497 120.494 79.8497C121.96 79.8497 123.215 79.1378 124.258 77.7142C125.315 76.2764 125.844 74.1198 125.844 71.2443C125.844 68.3547 125.315 66.2052 124.258 64.7956C123.201 63.372 121.89 62.6601 120.325 62.6601C118.845 62.6601 117.584 63.372 116.541 64.7956C115.497 66.2193 114.976 68.3688 114.976 71.2443Z" fill="white"/>
<path d="M104.955 71.6038L108.338 72.6398C107.591 76.1214 106.28 78.722 104.405 80.4417C102.545 82.1472 100.275 83 97.5971 83C95.2431 83 93.2275 82.4291 91.5501 81.2874C89.8868 80.1316 88.5196 78.285 87.4483 75.7478C86.3911 73.2106 85.8625 70.2153 85.8625 66.7619C85.8625 63.3508 86.3911 60.4683 87.4483 58.1143C88.5196 55.7463 89.9643 53.9632 91.7827 52.7651C93.601 51.5529 95.6308 50.9467 97.8719 50.9467C100.325 50.9467 102.432 51.715 104.194 53.2514C105.956 54.7737 107.189 57.0149 107.894 59.9749L104.596 60.9264C103.468 56.6132 101.206 54.4565 97.8085 54.4565C96.1171 54.4565 94.6511 54.8935 93.4107 55.7674C92.1703 56.6272 91.1766 57.9734 90.4295 59.8058C89.6965 61.6382 89.3301 63.9569 89.3301 66.7619C89.3301 71.0047 90.0771 74.1903 91.5712 76.3187C93.0654 78.433 95.0528 79.4902 97.5337 79.4902C99.3661 79.4902 100.945 78.8418 102.27 77.545C103.609 76.2341 104.504 74.2537 104.955 71.6038Z" fill="white"/>
<path d="M184.32 34.1519L187.534 34.6382C186.998 37.0345 186.025 38.8457 184.616 40.072C183.22 41.2843 181.487 41.8904 179.415 41.8904C176.807 41.8904 174.693 40.9037 173.072 38.9303C171.465 36.9428 170.661 34.0814 170.661 30.3461C170.661 26.4698 171.472 23.5168 173.093 21.4871C174.728 19.4432 176.793 18.4213 179.288 18.4213C181.67 18.4213 183.657 19.4221 185.25 21.4236C186.843 23.4252 187.639 26.3218 187.639 30.1135L187.618 31.1284H173.875C174.002 33.6515 174.587 35.5544 175.63 36.8371C176.673 38.1198 177.942 38.7612 179.436 38.7612C181.776 38.7612 183.404 37.2247 184.32 34.1519ZM174.065 27.9992H184.341C184.2 26.054 183.784 24.6022 183.094 23.6437C182.093 22.2482 180.817 21.5505 179.267 21.5505C177.871 21.5505 176.68 22.1355 175.693 23.3054C174.707 24.4612 174.164 26.0258 174.065 27.9992Z" fill="white"/>
<path d="M159.836 41.3829V18.9287H162.648V22.3328C163.367 20.7541 164.022 19.711 164.614 19.2036C165.22 18.6821 165.897 18.4213 166.644 18.4213C167.687 18.4213 168.751 18.8301 169.837 19.6476L168.78 23.1785C168.004 22.6288 167.25 22.3539 166.517 22.3539C165.855 22.3539 165.249 22.5865 164.699 23.0517C164.149 23.5168 163.762 24.1652 163.536 24.9969C163.141 26.4487 162.944 27.9922 162.944 29.6272V41.3829H159.836Z" fill="white"/>
<path d="M153.638 41.2984V38C152.919 39.2686 152.074 40.22 151.101 40.8543C150.129 41.4886 149.029 41.8058 147.803 41.8058C146.351 41.8058 145.111 41.4182 144.082 40.6429C143.053 39.8536 142.362 38.8598 142.01 37.6617C141.671 36.4636 141.502 34.8285 141.502 32.7565V18.8442H144.61V31.2976C144.61 33.6092 144.723 35.1597 144.948 35.9491C145.188 36.7243 145.618 37.3516 146.238 37.8308C146.872 38.296 147.591 38.5286 148.395 38.5286C149.889 38.5286 151.115 37.9154 152.074 36.6891C152.891 35.6319 153.3 33.6938 153.3 30.8747V18.8442H156.429V41.2984H153.638Z" fill="white"/>
<path d="M137.761 37.8943L138.183 41.2561C137.324 41.4816 136.548 41.5944 135.858 41.5944C134.772 41.5944 133.898 41.3829 133.236 40.9601C132.573 40.5231 132.115 39.9311 131.862 39.184C131.622 38.437 131.502 36.9499 131.502 34.7228V21.8042H129.219V18.8442H131.502V13.2835L134.61 11V18.8442H137.761V21.8042H134.61V34.9342C134.61 36.1464 134.702 36.9287 134.885 37.2811C135.153 37.7886 135.653 38.0423 136.386 38.0423C136.739 38.0423 137.197 37.993 137.761 37.8943Z" fill="white"/>
<path d="M123.286 38.6132C122.243 39.6985 121.158 40.516 120.03 41.0658C118.902 41.6155 117.733 41.8904 116.52 41.8904C114.603 41.8904 113.074 41.3124 111.932 40.1566C110.79 39.0008 110.22 37.4432 110.22 35.4839C110.22 34.1872 110.487 33.0384 111.023 32.0376C111.559 31.0368 112.292 30.2545 113.222 29.6907C114.152 29.1269 115.562 28.711 117.451 28.4432C119.988 28.0767 121.848 27.6398 123.032 27.1323L123.054 26.1597C123.054 24.6233 122.779 23.545 122.229 22.9248C121.454 22.0227 120.263 21.5716 118.656 21.5716C117.204 21.5716 116.119 21.8747 115.4 22.4808C114.681 23.0728 114.152 24.1934 113.814 25.8426L110.748 25.3352C111.185 22.9248 112.066 21.1699 113.391 20.0705C114.73 18.971 116.64 18.4213 119.121 18.4213C121.052 18.4213 122.567 18.7878 123.667 19.5207C124.766 20.2396 125.457 21.1347 125.739 22.2059C126.035 23.2772 126.183 24.8418 126.183 26.8998V31.9742C126.183 35.5262 126.246 37.7674 126.373 38.6977C126.514 39.6139 126.782 40.509 127.177 41.3829H123.92C123.596 40.6077 123.385 39.6844 123.286 38.6132ZM123.032 30.1135C121.891 30.6774 120.192 31.1566 117.937 31.5513C116.626 31.7768 115.71 32.0376 115.188 32.3336C114.667 32.6155 114.258 33.0243 113.962 33.5599C113.68 34.0814 113.539 34.6875 113.539 35.3782C113.539 36.4495 113.87 37.3093 114.533 37.9577C115.195 38.592 116.112 38.9092 117.281 38.9092C118.395 38.9092 119.403 38.6202 120.305 38.0423C121.221 37.4644 121.905 36.6962 122.356 35.7377C122.807 34.7651 123.032 33.3555 123.032 31.509V30.1135Z" fill="white"/>
<path d="M85.8625 42.2005V11.2044H89.3089L102.671 35.5403V11.2044H105.885V42.2005H102.439L89.0975 17.8434V42.2005H85.8625Z" fill="white"/>
<defs>
<clipPath id="clip0_83_706">
<rect width="61.8626" height="94" fill="white"/>
</clipPath>
</defs>
</svg>
