<svg xmlns="http://www.w3.org/2000/svg" xmlns:xlink="http://www.w3.org/1999/xlink" viewBox="0 0 148.2 150.8"><defs><style>.a,.g{fill:none;}.b{fill:url(#a);}.c,.e{fill:#fff;}.d{clip-path:url(#b);}.e{opacity:0.5;}.f{fill:#fbb040;}.g{stroke:#be1e2d;stroke-miterlimit:10;stroke-width:1.14px;}</style><linearGradient id="a" x1="74.12" y1="147.23" x2="74.12" y2="3.65" gradientUnits="userSpaceOnUse"><stop offset="0" stop-color="#be1e2d"/><stop offset="1" stop-color="#f15a29"/></linearGradient><clipPath id="b"><rect class="a" x="2.3" y="3.6" width="143.6" height="143.59" rx="18.7" ry="18.7"/></clipPath></defs><title>Aichi Biodivesity Target 8</title><rect class="b" x="2.3" y="3.6" width="143.6" height="143.59" rx="18.7" ry="18.7"/><path class="c" d="M76.9,91.6s-3.3-9.4-15.5-13.5-22.8,2.1-46.5-4.7C2.5,69.8,2.5,70.7,2.5,70.7l-.5,2.5A110.8,110.8,0,0,0,43,80.6c22.3-.6,26.7,11,26.7,11Z"/><g class="d"><path class="e" d="M80.7,70.4c-4.4-8-14.3-14.3-34.1-24.8s-49-7.4-49-7.4L-8.6,27.7s8.6-6.3,34.3-6.9,19.8,9.4,41,17.6,33,.6,52.3,7.2a35.3,35.3,0,0,1,22.8,24.8M84.4,99.8A19.2,19.2,0,0,0,72,86.3c-10.5-3.6-16.9.6-28.4-3.9s-8.4-9.9-22.3-9.6S2.8,76.6,2.8,76.6l-5.6,6s24.8-2,35.5,3.7,16.1,9.1,18.5,13.4"/></g><g class="d"><path class="f" d="M153,154.9c-13.9-28.2-21.4-56.3-11.2-84.5H80.7c6.1,17,5.8,34,1.6,51a44.4,44.4,0,0,1,2.1-21.6H77.1l-.2-8.1H72.2l-.7-33.3H60.4l-.8,41.4H51.2c4.1,11.4,2.9,22.8-1.1,34.3l-1-48.3H42.6l-1,50.6L40,58.3H28.9l-1,49.7H25.7l-.3-14.8H18.9L18.6,108H13.5l-.2-9.3H6.8L6.6,108H-.1c5.5,15.3,1.5,30.6-6.1,46a54.6,54.6,0,0,0,11.7,4.4l-.2,11.8h9.4l-.2-10.5h3v5h9.2L26.4,181H42.5L42,157.3h8.5l-.2-9.2a51.1,51.1,0,0,0,8.2,2.4L57.9,181H74l-.4-17.9h4.7v-4.3Q115.6,173.8,153,154.9ZM26.7,158.6h.1v0Z"/><path class="c" d="M25.4,93.2A23.7,23.7,0,0,0,11.5,79.6C.5,75.5-9.3,82.4-30.5,75s-15.9-4.7-15.9-4.7l-.5,2.5s21.6,9.9,41.7,9.4,24.1,11,24.1,11Z"/><path class="c" d="M13.3,98.7A23.7,23.7,0,0,0-.6,85.2c-10.9-4.1-20.8,2.8-42-4.7s-15.9-4.7-15.9-4.7l-.5,2.5s21.6,9.9,41.7,9.4,24.1,11,24.1,11Z"/><path class="c" d="M49.1,85.8A23.7,23.7,0,0,0,35.1,72.2c-10.9-4.1-20.8,2.8-42-4.7s-15.9-4.7-15.9-4.7l-.5,2.5s21.6,9.9,41.7,9.4,24.1,11,24.1,11Z"/><path class="c" d="M71.5,58.3s-5.2-9.4-23.9-13.5-35.6,2.8-72-4.7-27.3-4.7-27.3-4.7l-.9,2.5s37.1,9.9,71.6,9.4,41.3,11,41.3,11Z"/><path class="c" d="M40,58.3s-5.2-9.4-23.9-13.5-35.6,2.8-72-4.7-27.3-4.7-27.3-4.7l-.9,2.5s37.1,9.9,71.6,9.4,41.3,11,41.3,11Z"/></g><rect class="g" x="2.3" y="3.6" width="143.6" height="143.59" rx="18.7" ry="18.7"/><path class="c" d="M135.1,107a13,13,0,0,1-8.7,12.4h0c6.5,2.2,10.9,7.2,10.9,14.4,0,11.3-11.5,16.6-20.9,16.6S95.5,145.3,95.5,134c0-7.2,4.4-12.2,10.9-14.4h0A13,13,0,0,1,97.7,107c0-10.5,9.3-15.6,18.7-15.6S135.1,96.5,135.1,107Zm-25.2,25.2a6.5,6.5,0,1,0,13.1,0,6.6,6.6,0,1,0-13.1,0Zm.5-24.7a6,6,0,1,0,6-6.2A6.1,6.1,0,0,0,110.4,107.4Z"/></svg>
