<svg xmlns="http://www.w3.org/2000/svg" xmlns:xlink="http://www.w3.org/1999/xlink" viewBox="0 0 148.5 147.3"><defs><style>.a{fill:url(#a);}.b{fill:#fff;}.c{fill:#be1e2d;}.d{fill:none;stroke:#1b75bc;stroke-miterlimit:10;stroke-width:1.14px;}</style><linearGradient id="a" x1="73.92" y1="145.09" x2="73.92" y2="1.09" gradientUnits="userSpaceOnUse"><stop offset="0" stop-color="#1b75bc"/><stop offset="1" stop-color="#00aeef"/></linearGradient></defs><title>Aichi Biodivesity Target 1</title><rect class="a" x="1.9" y="1.1" width="144" height="144" rx="18.8" ry="18.8"/><path class="b" d="M15.8,9.7a72.3,72.3,0,0,0-11.3.8,18.7,18.7,0,0,0-2.5,9.4V126.3a18.8,18.8,0,0,0,.4,3.8c1.2,3.6,3.5,10.9,10.4,13.6,8.9,3.5,10.9-14,30.1-15.6,16.4-1.4,13.5-13.3,12.5-15.6s.1-4.7,1.2-7.4,2.6-2.4,2.7-3-2.5-2.1-3.4-2.2-6.5-.4-7.9-3c0,0,0-.1,6.2-1.1,2.5-.2,3.7-.3,5.6-2.5s-2.6-5.2-2.6-7.3c5.7-3.4,12.2.4,12.2-5S55.2,61.9,56.7,57.8C62.6,41.3,40.7,9.7,15.8,9.7Z"/><path class="c" d="M143.7,10.9a51.1,51.1,0,0,0-11.3-1.3c-25.4,0-42.9,9.9-43.8,50.7-4.3-1.6-9.3-1.5-11.9,5.8-5.5,15.8,10,20.3,10.7,31.3.4,6.9,2.8,9.4,5.1,9.7a4,4,0,0,0,1.6-.2c3.8,12,9.6,21.1,18,24.7,1.1,2.4,2.8,7,2.8,9.9v4.1s14.4.6,19-1.9,7.2-3.6,8.8-7.7l.6-1.6a5,5,0,0,0,1.9-3.8,18.9,18.9,0,0,0,.5-4.1V19.9A18.7,18.7,0,0,0,143.7,10.9Z"/><rect class="d" x="1.9" y="1.1" width="144" height="144" rx="18.8" ry="18.8"/><path class="b" d="M108.8,103.4V91.2H131v55H116.7V103.4Z"/></svg>
