<svg xmlns="http://www.w3.org/2000/svg" xmlns:xlink="http://www.w3.org/1999/xlink" viewBox="0 0 148.2 146.9"><defs><style>.a,.d,.e,.h,.j{fill:none;}.b{fill:url(#a);}.c{clip-path:url(#b);}.d{stroke:#8dc63f;}.d,.e,.h{stroke-linecap:round;stroke-linejoin:round;}.d,.e{stroke-width:3.18px;}.e,.h,.i{stroke:#fff;}.f,.i{fill:#fff;}.g{fill:#8dc63f;}.h,.i{stroke-width:2.61px;}.i,.j{stroke-miterlimit:10;}.j{stroke:#f7941d;stroke-width:1.14px;}</style><linearGradient id="a" x1="73.92" y1="145.79" x2="73.92" y2="1.8" gradientUnits="userSpaceOnUse"><stop offset="0" stop-color="#f7941d"/><stop offset="1" stop-color="#f9ed32"/></linearGradient><clipPath id="b"><rect class="a" x="1.9" y="1.8" width="144" height="144" rx="18.8" ry="18.8"/></clipPath></defs><title>Aichi Biodiversity Target 18</title><rect class="b" x="1.9" y="1.8" width="144" height="144" rx="18.8" ry="18.8"/><g class="c"><g class="c"><path class="d" d="M.6,134.9c-4.4-20.6-14.2-25.4-6.8-42.3s18.1,10.5,27.7-3.8-8.4-22.2,4-34.8,18,13.2,31.8,3.4-7.7-25.7,8.4-33.2S85,43.7,101.5,39.4c17-2.8-3.4-22.7,14.7-23.9,18.4.3,18.2,9.6,35.1,22.1"/><path class="d" d="M8.5,142.1c7.1-8.1,9.4-4.3,14.7-16.2s-.5-15.8,6.8-26.6S41.1,97.1,50,88.1s3.1-13.7,13.6-21,13.3,1.4,24.7-3.7S92.7,50.1,105.4,47s16,9.2,28.8,8.5,9-5.7,19.3-8.9"/><path class="e" d="M-36.5,95.9c7.6-9.8,9.8-5.9,15.9-19.6S-20.4,59-12,46.7.2,43.2,10.4,32.9,14.6,18.2,26.7,9.9s14.6.6,27.7-5.3S60.3-9.4,74.8-13s17.6,8.9,32.3,8.1,10.7-5.7,22.8-8.7"/><path class="d" d="M134.9-.7c-11.7,3-9.1,6.6-23.7,6.6S95.7-1.1,81.4,1.5s-7.9,9.6-21.1,14.6-14.9-2.3-27.1,5.1S28.1,34.7,17.5,44,2.7,43.5-6.3,54.9s1.1,19.5-5.5,32.2-9.4,7.1-16.9,16.6"/><path class="e" d="M158.2,58.4c-10,3.3-7.5,6.9-20.2,6.8s-13.9-7-26.4-4.7-6.4,9.3-17.9,13.6-13.5-2.9-24.1,3.6S65.7,90.2,56.6,98.3,42.8,96.6,35,106.7s2,18.2-3.8,29.3-8.7,5.6-15.8,13.4"/><path class="f" d="M93,22.7c3.1-.7,4.6-3.3,3.2-6a7.9,7.9,0,0,0-8.2-3.8c-3.2.7-4.6,3.5-3.1,6.3A7.8,7.8,0,0,0,93,22.7Z"/><path class="f" d="M11,75.6a7.8,7.8,0,0,0,.1-8.9c-1.9-2.4-5.1-2.4-7,.3A7.9,7.9,0,0,0,4.2,76C6.1,78.4,9.1,78.1,11,75.6Z"/><path class="f" d="M47.1,41.6A5.6,5.6,0,0,0,49,33.9a5.7,5.7,0,0,0-9.6,6.2A5.6,5.6,0,0,0,47.1,41.6Z"/><path class="f" d="M144.1,21.7c3.3.6,5.1-1.1,4.1-3.8s-4.6-5.5-8-6.1-5.2,1.3-4.1,4S140.8,21.2,144.1,21.7Z"/><path class="g" d="M122.3,80c2.7-.6,3.8-3.1,2.5-5.9s-4.7-4.6-7.5-4-3.8,3.4-2.4,6.1A7.3,7.3,0,0,0,122.3,80Z"/><path class="g" d="M51.1,125.9a7.3,7.3,0,0,0-.4-8.3c-1.9-2.4-4.8-2.6-6.5-.3s-1.4,6.1.5,8.5S49.5,128.1,51.1,125.9Z"/><path class="g" d="M82.5,96.4a5.3,5.3,0,0,0,1.2-7.3c-1.6-2.6-4.9-3.6-7.3-2.1s-2.8,4.9-1.1,7.5A5.3,5.3,0,0,0,82.5,96.4Z"/><path class="f" d="M81.2,51.6a4.7,4.7,0,0,0,2.3-6.8A6.5,6.5,0,0,0,75.6,42,4.8,4.8,0,0,0,73.4,49,6.4,6.4,0,0,0,81.2,51.6Z"/><path class="f" d="M13.7,115.6a9.1,9.1,0,0,0-1.1-9.1c-2-2.3-4.8-1.9-6.1.9a9.1,9.1,0,0,0,1.3,9.2C9.8,118.9,12.4,118.4,13.7,115.6Z"/><path class="f" d="M41.8,77.2a6.4,6.4,0,0,0,.8-8.2,4.8,4.8,0,0,0-7.3-.9,6.5,6.5,0,0,0-.6,8.4A4.7,4.7,0,0,0,41.8,77.2Z"/><path class="f" d="M127.8,41.8c3.1-.1,4.6-2.2,3.4-5a9.1,9.1,0,0,0-7.9-5c-3.2.1-4.7,2.5-3.4,5.2A9,9,0,0,0,127.8,41.8Z"/><path class="g" d="M3.6,24c2.5-2.3,3.1-6.2,1.3-8.7s-5.4-2.8-7.9-.4-3,6.4-1.2,8.9S1.1,26.4,3.6,24Z"/></g><line class="h" x1="107.5" y1="114.7" x2="57.9" y2="8.6"/><line class="h" x1="7.2" y1="144.4" x2="70.7" y2="8.6"/><polygon class="i" points="30.8 144.4 39.7 101.9 60.8 144.4 30.8 144.4"/><polygon class="i" points="84.4 65.7 64.3 22.3 7.2 144.4 44.5 144.4 64.3 101.9 61.2 95.7 84.4 95.7 84.4 65.7"/><path class="g" d="M83.2,146.4V124.1a12.7,12.7,0,0,1,25.4,0v22.3h37.9a52,52,0,0,0,1.2-11c0-28.7-23.2-74.8-51.9-74.8s-51.9,46.1-51.9,74.8a52,52,0,0,0,1.2,11Z"/></g><rect class="j" x="1.9" y="1.8" width="144" height="144" rx="18.8" ry="18.8"/><path class="f" d="M67.6,104.1V91.9H89.8v55H75.5V104.1Z"/><path class="f" d="M135.1,105.4a13,13,0,0,1-8.7,12.5h0c6.6,2.2,10.9,7.2,10.9,14.4,0,11.4-11.5,16.6-21,16.6s-21-5.3-21-16.6c0-7.2,4.4-12.2,10.9-14.4h0a13,13,0,0,1-8.7-12.5c0-10.5,9.3-15.7,18.7-15.7S135.1,94.9,135.1,105.4Zm-25.3,25.2a6.6,6.6,0,1,0,13.1,0,6.6,6.6,0,1,0-13.1,0Zm.5-24.8a6.1,6.1,0,1,0,6.1-6.2A6.1,6.1,0,0,0,110.3,105.9Z"/></svg>
