<svg id="Shine" xmlns="http://www.w3.org/2000/svg" xmlns:xlink="http://www.w3.org/1999/xlink" viewBox="0 0 761.84 763.39"><defs><style>.cls-1,.cls-6{fill:none;}.cls-2{fill:url(#linear-gradient);}.cls-3{clip-path:url(#clip-path);}.cls-4{fill:#fff;}.cls-5{fill:#009fe3;}.cls-6{stroke:#662483;stroke-miterlimit:10;stroke-width:11.55px;}.cls-7{clip-path:url(#clip-path-2);}.cls-8{opacity:0.4;fill:url(#linear-gradient-2);}</style><linearGradient id="linear-gradient" x1="380.92" y1="757.43" x2="380.92" y2="4.41" gradientUnits="userSpaceOnUse"><stop offset="0" stop-color="#662483"/><stop offset="1" stop-color="#b55a9e"/></linearGradient><clipPath id="clip-path"><path class="cls-1" d="M757.43,659.21a98.21,98.21,0,0,1-98.22,98.22H102.63A98.21,98.21,0,0,1,4.41,659.21V102.63A98.22,98.22,0,0,1,102.63,4.41H659.21a98.22,98.22,0,0,1,98.22,98.22Z"/></clipPath><clipPath id="clip-path-2"><path class="cls-1" d="M761.84,662.46a99.37,99.37,0,0,1-99.38,99.38H99.37A99.37,99.37,0,0,1,0,662.46V99.37A99.36,99.36,0,0,1,99.37,0H662.46a99.37,99.37,0,0,1,99.38,99.37Z"/></clipPath><linearGradient id="linear-gradient-2" x1="380.92" y1="-9.18" x2="380.92" y2="434.14" gradientUnits="userSpaceOnUse"><stop offset="0" stop-color="#fff" stop-opacity="0"/><stop offset="1" stop-color="#fff"/></linearGradient></defs><title>Aichi15</title><path class="cls-2" d="M757.43,659.21a98.21,98.21,0,0,1-98.22,98.22H102.63A98.21,98.21,0,0,1,4.41,659.21V102.63A98.22,98.22,0,0,1,102.63,4.41H659.21a98.22,98.22,0,0,1,98.22,98.22Z"/><g class="cls-3"><path class="cls-4" d="M72.46,216.17C119.49,189.29,238.19,93,238.19,93s60.47-42.56,170.21,38.07,215,107.5,215,107.5l96.31-118.7S755.54,81.79,854.09,140,1031,256.48,1031,256.48L975-88.43,7.51-139.94l-22.4,376.26S25.42,243,72.46,216.17Z"/><path class="cls-5" d="M506.74,30.7H489.9c-2.52-15.18,11.73-30.35,8.41-45.53C507.24.35,498.6,15.52,506.74,30.7Z"/><path class="cls-5" d="M489.88,132.49h16.84c2.52,15.18-11.73,30.35-8.41,45.52C489.38,162.84,498,147.67,489.88,132.49Z"/><path class="cls-5" d="M493.28,30.24,477,34.6c-6.37-14,3.47-32.34-3.66-46.14C485.9.81,481.49,17.69,493.28,30.24Z"/><path class="cls-5" d="M503.34,132.94l16.26-4.36c6.36,14-3.47,32.34,3.66,46.15C510.72,162.38,515.13,145.49,503.34,132.94Z"/><path class="cls-5" d="M480.15,33.29l-14.57,8.42c-9.77-11.87-5-32.14-15.48-43.61C465.42,6.78,465.53,24.22,480.15,33.29Z"/><path class="cls-5" d="M516.46,129.89,531,121.46c9.77,11.89,5,32.16,15.48,43.64C531.2,156.42,531.09,139,516.46,129.89Z"/><path class="cls-5" d="M468.26,39.64c-3.95,4-7.94,8-11.88,11.91-12.52-8.95-13.17-29.75-26.25-38.13C447.17,17.84,451.79,34.67,468.26,39.64Z"/><path class="cls-5" d="M528.34,123.55q6-6,11.9-11.91c12.51,8.94,13.16,29.75,26.24,38.14C549.44,145.36,544.81,128.53,528.34,123.55Z"/><path class="cls-5" d="M458.42,48.85c-2.78,4.86-5.6,9.73-8.39,14.57-14.4-5.39-20.42-25.32-35.23-30C432.41,33.24,441.24,48.3,458.42,48.85Z"/><path class="cls-5" d="M538.17,114.35q4.22-7.3,8.43-14.59c14.39,5.4,20.4,25.34,35.2,30.05C564.21,130,555.37,114.89,538.17,114.35Z"/><path class="cls-5" d="M451.31,60.28c-1.43,5.42-2.9,10.86-4.35,16.27-15.29-1.49-26.27-19.19-41.79-19.9C422.13,52,434.56,64.21,451.31,60.28Z"/><path class="cls-5" d="M545.29,102.91q2.18-8.14,4.36-16.27c15.3,1.5,26.27,19.21,41.78,19.92C574.47,111.25,562,99,545.29,102.91Z"/><path class="cls-5" d="M447.39,73.17c0,5.61,0,11.24,0,16.83-15.17,2.53-30.35-11.73-45.53-8.39C417.06,72.67,432.22,81.3,447.39,73.17Z"/><path class="cls-5" d="M549.21,90V73.18c15.15-2.51,30.35,11.74,45.5,8.43C579.54,90.53,564.36,81.9,549.21,90Z"/><path class="cls-5" d="M447,86.64c1.46,5.4,2.89,10.85,4.36,16.25-14,6.36-32.36-3.47-46.15,3.68C417.52,94,434.4,98.42,447,86.64Z"/><path class="cls-5" d="M549.65,76.56c-1.45-5.42-2.91-10.83-4.35-16.27,14-6.34,32.35,3.5,46.13-3.63C579.09,69.21,562.2,64.8,549.65,76.56Z"/><path class="cls-5" d="M450,99.76c2.81,4.84,5.61,9.73,8.41,14.57-11.86,9.77-32.14,5-43.6,15.5C423.49,114.5,440.93,114.39,450,99.76Z"/><path class="cls-5" d="M546.61,63.45c-2.82-4.86-5.63-9.71-8.43-14.6,11.88-9.74,32.16-5,43.62-15.43C573.13,48.72,555.67,48.83,546.61,63.45Z"/><path class="cls-5" d="M456.36,111.64c4,4,7.93,8,11.9,11.89-8.93,12.51-29.75,13.18-38.11,26.26C434.55,132.75,451.38,128.11,456.36,111.64Z"/><path class="cls-5" d="M540.27,51.57c-4-4-8-7.93-11.92-11.92,8.94-12.48,29.76-13.14,38.13-26.2C562.08,30.48,545.23,35.1,540.27,51.57Z"/><path class="cls-5" d="M465.56,121.47c4.86,2.8,9.73,5.63,14.58,8.42-5.4,14.39-25.33,20.42-30,35.22C450,147.52,465,138.67,465.56,121.47Z"/><path class="cls-5" d="M531.06,41.74c-4.87-2.81-9.71-5.6-14.59-8.44,5.4-14.37,25.35-20.39,30-35.16C546.67,15.71,531.6,24.55,531.06,41.74Z"/><path class="cls-5" d="M477,128.59c5.41,1.44,10.85,2.92,16.26,4.35-1.49,15.3-19.19,26.3-19.88,41.79C468.67,157.79,480.92,145.35,477,128.59Z"/><path class="cls-5" d="M519.63,34.62l-16.28-4.37C504.85,15,522.56,4,523.27-11.5,528,5.44,515.71,17.88,519.63,34.62Z"/><path class="cls-5" d="M383.73-65.92a40.68,40.68,0,0,0-3.38,8.7l-73.23,2a40.08,40.08,0,0,0-19-22.84,40.31,40.31,0,0,0-54.64,16.28,40.2,40.2,0,0,0,7,47.49l-35,64.61a39.69,39.69,0,0,0-47,28.82l-73.22,2a40.21,40.21,0,1,0-66.64,40.93l-34.94,64.6a40.22,40.22,0,0,0-43.6,20.13,40.31,40.31,0,0,0,16.3,54.63A40,40,0,0,0-14,264.91l38.38,62.42a39.58,39.58,0,0,0,1.57,55.06L-9,447A40.2,40.2,0,0,0-52.6,467.1a40.33,40.33,0,0,0,16.29,54.65,40.09,40.09,0,0,0,29.52,3.41l38.38,62.4a40.27,40.27,0,1,0,65.47,46,39,39,0,0,0,3.38-8.71l73.23-2a40.21,40.21,0,1,0,66.64-40.92l34.95-64.6a39.6,39.6,0,0,0,47-28.82l73.24-2a40.21,40.21,0,1,0,66.64-40.92L497,380.86a40.2,40.2,0,1,0-2.21-78.16l-38.4-62.42a39.37,39.37,0,0,0,5.44-7.58,40.18,40.18,0,0,0-7-47.49l34.94-64.6a40.21,40.21,0,1,0-2.22-78.17L449.21-20a40.77,40.77,0,0,0,5.44-7.59A40.32,40.32,0,0,0,438.38-82.2,40.32,40.32,0,0,0,383.73-65.92ZM462.48,62.13a40.19,40.19,0,0,0,7,47.49l-34.93,64.59A40.2,40.2,0,0,0,391,194.34a39.69,39.69,0,0,0-3.37,8.71l-36.62,1-36.62,1a40,40,0,0,0-48.54-26.26l-19.18-31.19-19.2-31.21a39.64,39.64,0,0,0-1.57-55.08l34.95-64.6a40.19,40.19,0,0,0,43.58-20.13,39.69,39.69,0,0,0,3.37-8.71l73.24-2a40.09,40.09,0,0,0,19,22.84,40.07,40.07,0,0,0,29.51,3.41l38.39,62.4A40.27,40.27,0,0,0,462.48,62.13Zm7.22,260.26a40.2,40.2,0,0,0,7,47.49l-34.93,64.6a40.2,40.2,0,0,0-43.59,20.12,41,41,0,0,0-3.38,8.71l-73.23,2a40,40,0,0,0-48.53-26.25l-38.38-62.42a39.76,39.76,0,0,0,5.43-7.58,40.16,40.16,0,0,0-7-47.49L268,257a39.64,39.64,0,0,0,47-28.82l36.61-1,36.63-1a40,40,0,0,0,48.54,26.26l38.38,62.41A40,40,0,0,0,469.7,322.39ZM176.41,591a39.46,39.46,0,0,0-3.38,8.7l-73.23,2a40,40,0,0,0-48.52-26.25L12.89,513.06a41.93,41.93,0,0,0,5.44-7.59,40.19,40.19,0,0,0-7-47.49l34.93-64.59a39.59,39.59,0,0,0,47-28.83l73.24-2A40,40,0,0,0,215,388.78l38.37,62.41a39.63,39.63,0,0,0,1.58,55.07L220,570.86A40.19,40.19,0,0,0,176.41,591ZM11.1,245.23a40.18,40.18,0,0,0-7-47.5l35-64.61A40.16,40.16,0,0,0,82.62,113,41,41,0,0,0,86,104.3l73.23-2a40,40,0,0,0,48.53,26.26L227,159.72l19.19,31.2A39.63,39.63,0,0,0,247.72,246l-34.95,64.62a39.59,39.59,0,0,0-47,28.81l-73.25,2A40,40,0,0,0,44,315.23L5.66,252.81A39.8,39.8,0,0,0,11.1,245.23Z"/><circle class="cls-5" cx="498.31" cy="81.6" r="46.09"/><path class="cls-4" d="M498.31,41.28A40.32,40.32,0,1,1,458,81.6a40.32,40.32,0,0,1,40.32-40.32m0-11.55A51.87,51.87,0,1,0,550.17,81.6a51.93,51.93,0,0,0-51.86-51.87Z"/></g><path class="cls-6" d="M757.43,659.21a98.21,98.21,0,0,1-98.22,98.22H102.63A98.21,98.21,0,0,1,4.41,659.21V102.63A98.22,98.22,0,0,1,102.63,4.41H659.21a98.22,98.22,0,0,1,98.22,98.22Z"/><path class="cls-4" d="M346.88,539.13V475.82H462.82V763.39H388.07V539.13Z"/><path class="cls-4" d="M586.77,539.13l-5,32.8,23.65-1.9c58.73-4.58,101.83,43.48,101.83,103a100.26,100.26,0,0,1-37,77.81c-22.89,18.3-55.31,24-83.91,24-32.8,0-66-8-93.82-25.93l11.06-70.56c22.12,19.83,50.34,33.18,80.09,33.18,23.65,0,45.77-17.16,45.77-42.33,0-34.71-33.18-49.2-62.93-49.2a129.32,129.32,0,0,0-54.92,11.82l25.17-156h149.5v63.31Z"/><path class="cls-1" d="M757.43,659.21a98.21,98.21,0,0,1-98.22,98.22H102.63A98.21,98.21,0,0,1,4.41,659.21V102.63A98.22,98.22,0,0,1,102.63,4.41H659.21a98.22,98.22,0,0,1,98.22,98.22Z"/><g class="cls-7"><path class="cls-8" d="M674.65-9.18H87.2A103.65,103.65,0,0,0-16.46,94.48v255.3c113.17,53.44,247.15,84.36,390.75,84.36,149.33,0,288.1-33.51,404-90.9V94.48A103.66,103.66,0,0,0,674.65-9.18Z"/></g></svg>