<svg xmlns="http://www.w3.org/2000/svg" xmlns:xlink="http://www.w3.org/1999/xlink" viewBox="0 0 148 149.3"><defs><style>.a,.f{fill:none;}.b{fill:url(#a);}.c{clip-path:url(#b);}.d,.g{fill:#fff;}.d,.e{fill-rule:evenodd;}.e{fill:#662d91;}.f{stroke:#006838;stroke-miterlimit:10;stroke-width:1.14px;}</style><linearGradient id="a" x1="73.6" y1="146.26" x2="73.6" y2="2.26" gradientUnits="userSpaceOnUse"><stop offset="0" stop-color="#38a643"/><stop offset="1" stop-color="#8dc63f"/></linearGradient><clipPath id="b"><rect class="a" x="1.6" y="2.3" width="144" height="144" rx="18.8" ry="18.8"/></clipPath></defs><title>Aichi Biodiversity Target 12</title><rect class="b" x="1.6" y="2.3" width="144" height="144" rx="18.8" ry="18.8"/><g class="c"><path class="d" d="M-28.3,126.4s17.2-1.5,19.7-.9,4.4.2,4.9-1.5-1.1-3.7-1.1-3.7-.1-2.4-4.1-2.7-6,.5-8.6-.5-2.1-4.4-2.6-9-1.5-16.9-.2-24,11.8-.7,18.6-2.6l13.4-3.6a62.4,62.4,0,0,0-.2,9.1c.2,5.9,2.9,14,4.3,17.7l3.3,8.7c.5,1.3,3.6,1.6,6.2,1.3a3,3,0,0,0,2.8-2.7s.2,0,.9,2.5-.4,4.3,2.3,6.5,4.4,2.7,9.3,2.6,5.9-.6,8.5-.7,2.1-2.1,3.5-2.4,1.5-1.2,1.9-1.2.5-1,1.6-.9-1.6-1.8-1.6-1.8a4.8,4.8,0,0,0-2.2-1.1c-1.7-.5-1.8-.1-3.3-.7s-2.7-.1-4.7-.7-2.2-2.9-2.2-6.9-1.1-9.6-.7-14.9,1.8-9.2,4.7-15.1,4.1-10.8,5.1-13.5,2.9-3.8,4.7-5.4,1.9-1.2,5.8-2.4,7.8-3.3,12.4-5.6a62.9,62.9,0,0,1,13-4.8c3.8-.9,5.4-1.6,9.8-1.6s5.8-.5,8.4-2.3,2.7-2.8,2.8-3.3.8-.7.8-1.4.1,1,.9-.6a2.1,2.1,0,0,0-.8-2.7,10.3,10.3,0,0,0-2.5-2.1,41.5,41.5,0,0,1-4.8-3.4c-.8-.7-1.1-.8-1.1-1.8s.8-.1.8-.1-.5-2.1-1.8-2.7l-5-2.7s.1-3.1-.6-3.6-1.6-1.1-2.4-.5l-2.3,1.8s-1.8-1.1-5.9-1.1l-9.5.2c-5.7.2-14.2,2.7-18.6,3s-4.2.9-11.4-.1-9.8-.5-15.1,1.5S18,24.7-1.3,23.3s-26.8,1.8-26.8,1.8ZM75.5,24.9c.2.6-1.6.5-1.5,1.3s.5,2.2,0,1.4-1-1.4-.8-2.5-.1-1.3.3-2.2.5.3,1,1.3S75.3,24.3,75.5,24.9ZM93,28.9c-.9.3-1.2,0-2.4-.3s-.2-.8.6-1.4,1.4-.8,2-.1a2.5,2.5,0,0,0,1.5.8A5.6,5.6,0,0,1,93,28.9Zm17.8,8.3-2.1,1.7a5.4,5.4,0,0,0-2.6-.3c-.8.3-.5.4-.8-.2s-.7-.7-1.1-1.5-.1-1.4.6-1.5.5-.1,1-1.2.9,0,2.5-.4,1.7,0,1.7,0Z"/><path class="e" d="M-2.3,140.7s17.2-1.5,19.7-.9,4.4.2,4.9-1.5-1.1-3.7-1.1-3.7-.1-2.4-4.1-2.7-6,.5-8.6-.5-2.1-4.4-2.6-9-1.5-16.9-.2-24,11.8-.7,18.6-2.6L37.7,92a62.5,62.5,0,0,0-.2,9.1c.2,5.9,2.9,14,4.3,17.7l3.3,8.7c.5,1.3,3.6,1.6,6.2,1.3a3,3,0,0,0,2.8-2.7s.2,0,.9,2.5-.4,4.3,2.3,6.5,4.4,2.7,9.2,2.6,5.9-.6,8.5-.7,2.1-2.1,3.5-2.4,1.5-1.2,1.9-1.2.5-1,1.6-.9-1.6-1.8-1.6-1.8a4.8,4.8,0,0,0-2.2-1.1c-1.7-.5-1.8-.1-3.3-.7s-2.7-.1-4.7-.7-2.2-2.9-2.2-6.9-1.1-9.6-.7-14.9,1.8-9.2,4.7-15.1,4.1-10.8,5.1-13.5,2.9-3.8,4.7-5.4,1.9-1.2,5.8-2.4,7.8-3.3,12.4-5.6a62.8,62.8,0,0,1,13-4.8c3.8-.9,5.4-1.6,9.8-1.6s5.8-.5,8.4-2.3,2.7-2.8,2.8-3.3.8-.7.8-1.4.1,1,.9-.6a2.1,2.1,0,0,0-.8-2.7,10.3,10.3,0,0,0-2.5-2.1,41.5,41.5,0,0,1-4.8-3.4c-.8-.7-1.1-.8-1.1-1.8s.8-.1.8-.1-.5-2.1-1.8-2.7l-5-2.7s.1-3.1-.6-3.6-1.6-1.1-2.4-.5l-2.3,1.8s-1.8-1.1-5.9-1.1l-9.5.2c-5.7.2-14.2,2.7-18.6,3s-4.2.9-11.4-.1-9.8-.5-15.1,1.5-10.8,2.8-30.1,1.5S-2.1,39.3-2.1,39.3ZM101.5,39.1c.2.6-1.6.5-1.5,1.4s.5,2.2,0,1.4-1-1.4-.8-2.5-.1-1.3.3-2.2.5.3,1,1.4S101.3,38.5,101.5,39.1Zm17.6,4.1c-.9.3-1.2,0-2.4-.3s-.2-.8.6-1.4,1.4-.8,2-.1a2.5,2.5,0,0,0,1.5.8A5.6,5.6,0,0,1,119.1,43.2Zm17.8,8.3-2.1,1.7a5.4,5.4,0,0,0-2.6-.3c-.8.3-.5.4-.8-.2s-.7-.7-1.1-1.5-.1-1.4.6-1.5.5-.1,1-1.2.9,0,2.5-.4,1.7,0,1.7,0Z"/></g><rect class="f" x="1.6" y="2.3" width="144" height="144" rx="18.8" ry="18.8"/><path class="g" d="M67.3,104.5V92.4H89.5v55H75.2V104.5Z"/><path class="g" d="M137.6,135.3v12.1H93.4L115.9,123c3.2-3.5,6.3-8.5,6.3-13.5,0-3.5-2.5-7.1-6.3-7.1s-6,3-6,6.7a13.2,13.2,0,0,0,.2,2.3H94.4c.4-12.6,8.5-21.1,21.4-21.1S137,97.8,137,109.8c0,7.9-3.3,12.5-8.9,17.6l-8.5,8Z"/></svg>
