<svg xmlns="http://www.w3.org/2000/svg" xmlns:xlink="http://www.w3.org/1999/xlink" viewBox="0 0 154 149.7"><defs><style>.a,.i{fill:none;}.b{clip-path:url(#a);}.c{fill:#be1e2d;}.d{fill:url(#b);}.e{clip-path:url(#c);}.f,.g{fill:#fbb040;}.g{fill-rule:evenodd;}.h{fill:#fff;}.i{stroke:#be1e2d;stroke-miterlimit:10;stroke-width:1.14px;}.j{clip-path:url(#d);}</style><clipPath id="a"><rect class="a" x="4.6" y="-194.6" width="144" height="143.95" rx="18.8" ry="18.8"/></clipPath><linearGradient id="b" x1="76.6" y1="148.53" x2="76.6" y2="4.53" gradientUnits="userSpaceOnUse"><stop offset="0" stop-color="#be1e2d"/><stop offset="1" stop-color="#f15a29"/></linearGradient><clipPath id="c"><rect class="a" x="4.6" y="4.5" width="144" height="144" rx="18.8" ry="18.8"/></clipPath><clipPath id="d"><rect class="a" x="201.3" y="3.6" width="143.6" height="143.59" rx="18.7" ry="18.7"/></clipPath></defs><title>Aichi Biodivesity Target 7</title><g class="b"><path class="c" d="M7.7-18.2A40.7,40.7,0,0,0,62,.8,40.7,40.7,0,0,0,81-53.5a40.7,40.7,0,0,0-54.3-19A40.7,40.7,0,0,0,7.7-18.2Z"/></g><rect class="d" x="4.6" y="4.5" width="144" height="144" rx="18.8" ry="18.8"/><g class="e"><path class="f" d="M131.2,57.3a29.1,29.1,0,0,1-.5,9.7h0c-1.7-.1-3.2-1.4-3.7-4.7s2.7-10.9,2.5-10.9,5.4,3.9,5.8,8.3-.7,6.4-3,7.1l-.8.2A21.6,21.6,0,0,0,131.2,57.3Z"/><path class="f" d="M71.8,13.1A42,42,0,0,0,59,19h-.1c1.1,2.2,3.7,3.6,8.3,2.4s13.3-9.6,13.3-9.3S72.3,7,66.2,8.8s-8.2,4.4-7.9,7.9a7.1,7.1,0,0,0,.2,1.1C63.6,14.1,71.7,12.9,71.8,13.1Z"/><path class="f" d="M66.5,28.5A29,29,0,0,1,73,35.6h0c-1.3,1.1-3.3,1.3-5.9-.7s-5.9-9.6-6-9.4,6.6-1.1,10,1.7,4.1,4.9,3,7.1l-.4.7A21.6,21.6,0,0,0,66.5,28.5Z"/><path class="f" d="M38.5,20.3a42.2,42.2,0,0,0-8,11.6h0c2.1,1.4,5,1.2,8.4-2.2s6.6-15,6.7-14.8-9.7-.3-14,4.4-4.9,7.9-2.8,10.8l.7.9C32,25.4,38.4,20.2,38.5,20.3Z"/><path class="f" d="M20.9,44.1a28.9,28.9,0,0,1,9.5,1.7h.1c-.3,1.7-1.8,3-5.1,3.1s-10.5-4-10.5-3.8,4.5-4.9,8.9-4.7,6.2,1.4,6.7,3.8a4.6,4.6,0,0,1,.1.8A21.6,21.6,0,0,0,20.9,44.1Z"/><path class="f" d="M64.5,38.2a28.9,28.9,0,0,1,2.2,9.4h0c-1.7.3-3.5-.5-4.8-3.5s-.5-11.3-.6-11.2,6.3,2.3,7.9,6.3,1.1,6.3-.9,7.6l-.7.4A21.6,21.6,0,0,0,64.5,38.2Z"/><path class="f" d="M66,74.2l5.1.3c15.2-31.4,2.2-40.2,2.2-40.2S83.7,41.7,66,74.2Z"/><path class="f" d="M131.9,66.3s2.1,12.8-34.3,23a54.7,54.7,0,0,0-11.1,4.5L86,101a44.5,44.5,0,0,1,14.7-7.8C134.8,82,131.9,66.3,131.9,66.3Z"/><path class="f" d="M43.9,61.8a91.9,91.9,0,0,1,3,10.8l8.4.6,1.8-1.7,2.2,2,10.4.7a54.8,54.8,0,0,0-4.7-12.6c5.3-9.3,2.5-14.9,2.5-14.9s2.1,4.4-3.8,12.5c-17.3-32.1-7-39.4-7-39.4s-13.3,8.9,2.7,41.1l1,2.2-2.7,2.7-1.7-1c-3.9-2.3-7.2-4.5-10.1-6.5-5.1-9.8-10.9-12.6-14-13.3-4.9-7.2-3.1-11.2-3.1-11.2S23.4,45.3,43.9,61.8Zm17.9,4.5c.4,1,.7,2,1,3l-2.1-1.6Zm-9.7,1.4L54,69.1l-2.9,2.3c-.5-2-1.1-3.8-1.7-5.5ZM32.3,45.2c2,.9,5,3.1,8,8.5A48.1,48.1,0,0,1,32.3,45.2Z"/><path class="g" d="M117.2,16.1c-13.9,7.6-17.5,15.7-14.8,24.1l3-2.4C121.3,25,134,20.2,135.2,20.2h0a2,2,0,0,1,1.9,1.5,2,2,0,0,1-1,2.3c-10.4,5.6-19.9,14.2-28.3,24,4.3,3.1,10.8,3.5,19.8-1.4,13.9-8.4,26.8-31.9,27-31.3S131.1,7.6,117.2,16.1Z"/><path class="g" d="M135.2,22.2h0Z"/><path class="f" d="M54.2,126.7c-2.5,0-6.3.1-6.9-2.7-4.5-20.6-18-29.8-18-29.8a3,3,0,0,1-.1-4.2c1.1-1.2,3.8-2.4,12.8,1.5s15.4,13.9,15.4,13.9c29-67,79.3-84,77.8-83.2-40.9,21.9-68.5,91.1-68.9,91.9-3,6.5-7,11.8-10.2,12.4Z"/><path class="h" d="M76.4,96.8l-2.6,37.4-54.8-3.8,3.4-49.7,43.6,3c1.5-2.5,3-5,4.5-7.4L19.2,72.8a3.8,3.8,0,0,0-4.1,3.6l-4,57.3a3.8,3.8,0,0,0,3.6,4.1l62.4,4.3h.3a3.8,3.8,0,0,0,3.8-3.6l4-57.3a3.6,3.6,0,0,0,0-.7C81.8,86.4,78.9,91.9,76.4,96.8Z"/></g><rect class="i" x="4.6" y="4.5" width="144" height="144" rx="18.8" ry="18.8"/><path class="h" d="M99.2,106.8V94.7h45.1l-31.6,55H97.1l25.1-42.9Z"/><g class="j"><path class="h" d="M224.4,93.2a23.7,23.7,0,0,0-13.9-13.5c-10.9-4.1-20.8,2.8-42-4.7s-15.9-4.7-15.9-4.7l-.5,2.5s21.6,9.9,41.7,9.4,24.1,11,24.1,11Z"/><path class="h" d="M212.3,98.7a23.7,23.7,0,0,0-13.9-13.5c-10.9-4.1-20.8,2.8-42-4.7s-15.9-4.7-15.9-4.7l-.5,2.5s21.6,9.9,41.7,9.4,24.1,11,24.1,11Z"/><path class="h" d="M270.5,58.3s-5.2-9.4-23.9-13.5-35.6,2.8-72-4.7-27.3-4.7-27.3-4.7l-.9,2.5s37.1,9.9,71.6,9.4,41.3,11,41.3,11Z"/><path class="h" d="M239,58.3s-5.2-9.4-23.9-13.5-35.6,2.8-72-4.7-27.3-4.7-27.3-4.7l-.9,2.5s37.1,9.9,71.6,9.4,41.3,11,41.3,11Z"/></g></svg>
