<svg xmlns="http://www.w3.org/2000/svg" xmlns:xlink="http://www.w3.org/1999/xlink" viewBox="0 0 147.8 148.2"><defs><style>.a{fill:url(#a);}.b,.e{fill:none;stroke-miterlimit:10;}.b{stroke:#be1e2d;stroke-width:9.6px;}.c{fill:#be1e2d;}.d{fill:#fff;}.e{stroke:#1b75bc;stroke-width:1.14px;}</style><linearGradient id="a" x1="73.43" y1="146" x2="73.43" y2="2" gradientUnits="userSpaceOnUse"><stop offset="0" stop-color="#1b75bc"/><stop offset="1" stop-color="#00aeef"/></linearGradient></defs><title>Aichi Biodivesity Target 4</title><rect class="a" x="1.4" y="2" width="144" height="144" rx="18.8" ry="18.8"/><path class="b" d="M100,28.7A50.1,50.1,0,0,1,121.6,83"/><polygon class="c" points="98.2 39.3 86.9 22.7 106.9 21.2 98.2 39.3"/><path class="b" d="M22.9,68.6A50.2,50.2,0,0,1,59.1,22.8"/><polygon class="c" points="32.9 64.9 24.2 83 12.9 66.4 32.9 64.9"/><path class="d" d="M109.5,68.2a8.6,8.6,0,0,0-4.2-7.4,8.6,8.6,0,0,0-3.6-10.9,8.6,8.6,0,0,0-4.6-6.7,8.6,8.6,0,0,0-8.6-8.3H87.2a8.6,8.6,0,0,0-15.6-2.8,8.5,8.5,0,0,0-10.5,2.7,8.6,8.6,0,0,0-12.2,7.9c0,.2,0,.3.1.5A8.6,8.6,0,0,0,45.4,48a8.6,8.6,0,0,0-3.7,12.3,8.5,8.5,0,0,0-.5,10.5A8.6,8.6,0,0,0,53.1,83.1l2.1.3a8.6,8.6,0,0,0,4.9-1.6h.1a8.6,8.6,0,0,0,3.6-.8,8.6,8.6,0,0,0,2.9,3.2l-1.5,33H80L78.4,82.2a8.4,8.4,0,0,0,9.7.8,8.6,8.6,0,0,0,15.2-5.5,8.8,8.8,0,0,0-.1-1A8.6,8.6,0,0,0,109.5,68.2Z"/><path class="b" d="M96,115.5a50.1,50.1,0,0,1-57.8-8.4"/><polygon class="c" points="87.7 108.6 107.8 107.1 99 125.2 87.7 108.6"/><rect class="e" x="1.4" y="2" width="144" height="144" rx="18.8" ry="18.8"/><path class="d" d="M138.6,124.8v10.9H132v11.4H118.7V135.8H92v-9.1l21.2-34.5H132v32.7Zm-19.9-21.1h-.1l-12.8,21.1h13Z"/></svg>
