<svg xmlns="http://www.w3.org/2000/svg" xmlns:xlink="http://www.w3.org/1999/xlink" viewBox="0 0 148.2 146"><defs><style>.a,.f,.g{fill:none;}.b{fill:url(#a);}.c{clip-path:url(#b);}.d{fill:#be1e2d;}.e{fill:#fff;}.f{stroke:#be1e2d;stroke-linecap:round;stroke-width:2.2px;}.f,.g{stroke-miterlimit:10;}.g{stroke:#1b75bc;stroke-width:1.14px;}</style><linearGradient id="a" x1="73.92" y1="144.9" x2="73.92" y2="0.91" gradientUnits="userSpaceOnUse"><stop offset="0" stop-color="#1b75bc"/><stop offset="1" stop-color="#00aeef"/></linearGradient><clipPath id="b"><rect class="a" x="1.9" y="0.9" width="144" height="144" rx="18.8" ry="18.8"/></clipPath></defs><title>Aichi Biodivesity Target 3</title><rect class="b" x="1.9" y="0.9" width="144" height="144" rx="18.8" ry="18.8"/><g class="c"><path class="d" d="M98.4,18.7,68.3,25.8a5.8,5.8,0,0,1-2.8-11.3L89.1,8.8"/><circle class="e" cx="31.2" cy="44" r="12.6"/><polygon class="d" points="56.6 99.1 5.9 99.1 9.3 54 50.5 51.7 56.6 99.1"/><line class="f" x1="9.7" y1="54" x2="50.1" y2="51.8"/><path class="d" d="M53.9,115.7a29.5,29.5,0,1,0-29.5,29.5A29.5,29.5,0,0,0,53.9,115.7Z"/><circle class="d" cx="94.1" cy="131.3" r="14"/><rect class="d" x="61.1" y="108.5" width="39.8" height="21.96" rx="10.6" ry="10.6"/><path class="d" d="M104.3,108.9h6.4c-2.2-9.5-5.6-19.8-9.4-20.4-7.2-1.1-62.5-3.8-62.5-3.8v39.8h65.5Z"/><rect class="d" x="85" y="60.4" width="9.1" height="24.23"/><rect class="d" x="88" y="56.3" width="3" height="37.86"/><rect class="d" x="95.4" y="111" width="15.6" height="15.58" rx="1.7" ry="1.7"/><path class="d" d="M98.4,18.7,68.3,25.8a5.8,5.8,0,0,1-2.8-11.3L89.1,8.8a1,1,0,1,0-.5-1.9L65,12.6A7.8,7.8,0,0,0,66.9,28l1.9-.2,1.7-.4L74,38.5a6.1,6.1,0,0,1-4,7.7l-1.8.3a6.1,6.1,0,0,1-5.8-4.3L57.5,27a6.3,6.3,0,0,1,0-3.8l.9-5.4v-.3l-.2-.7a5.7,5.7,0,0,1,.8-4.6l1.2-1.8-2.1.2c-1.1.1-2-.1-2.2-.5s-.1-1.3.8-2.6L61.5.3V.1a6.1,6.1,0,0,1,1.8-2.6l9-13.1a16,16,0,0,1,9.4-6l10.5-1.3L123.1,1.3a23.9,23.9,0,0,1-9.1,12,32.8,32.8,0,0,1-15.5,5.4h0"/><circle class="e" cx="37.1" cy="31.4" r="9.7"/><path class="d" d="M118.2,16.9a5.3,5.3,0,0,1-3.1,6.5l-12,4.4-1.5.3-1.4-.2L82.5,25.3l-1.3-.4,13.4-3.2,4.2-1A34.5,34.5,0,0,0,115,14.9l1-.7h0A4.7,4.7,0,0,1,118.2,16.9Z"/><circle class="e" cx="60.9" cy="18.8" r="12.6"/><line class="d" x1="98.4" y1="18.7" x2="97.9" y2="18.8"/></g><path class="d" d="M97.9,18.8l-29.6,7a5.8,5.8,0,0,1-2.8-11.3L89.1,8.8"/><rect class="g" x="1.9" y="0.9" width="144" height="144" rx="18.8" ry="18.8"/><path class="e" d="M96.7,106.9a19.9,19.9,0,0,1,6.4-13.3c3.5-3.1,8.4-4.7,14-4.7,9.8,0,17.6,5.7,17.6,16,0,4.4-1.8,9-5.8,11.3,5.8,1.5,9,8.2,9,13.9,0,12-10.4,18.2-21.4,18.2-6.3,0-12-1.7-16.4-6.2s-6.4-9-6.3-13.9h14.6a7.5,7.5,0,0,0,7.7,7.8c4.4,0,7.7-2.9,7.7-7.4a7.5,7.5,0,0,0-7.6-7.4,9.2,9.2,0,0,0-2.5.4v-9.6h1.5c3.6,0,6.3-2.3,6.3-6.1a5.3,5.3,0,0,0-5.6-5.5c-3.6,0-5.9,2.8-5.8,6.3Z"/></svg>
