<svg id="Shine" xmlns="http://www.w3.org/2000/svg" xmlns:xlink="http://www.w3.org/1999/xlink" viewBox="0 0 761.84 763.39"><defs><style>.cls-1,.cls-6{fill:none;}.cls-2{fill:url(#New_Gradient_Swatch_1);}.cls-3{fill:#fff;}.cls-4{clip-path:url(#clip-path);}.cls-5{fill:#95c11f;}.cls-6{stroke:#f39200;stroke-miterlimit:10;stroke-width:11.55px;}.cls-7{clip-path:url(#clip-path-2);}.cls-8{opacity:0.4;fill:url(#linear-gradient);}</style><linearGradient id="New_Gradient_Swatch_1" x1="380.92" y1="757.43" x2="380.92" y2="4.41" gradientUnits="userSpaceOnUse"><stop offset="0" stop-color="#f39200"/><stop offset="1" stop-color="#fcea10"/></linearGradient><clipPath id="clip-path"><path class="cls-1" d="M757.43,659.21a98.21,98.21,0,0,1-98.22,98.22H102.63A98.21,98.21,0,0,1,4.41,659.21V102.63A98.22,98.22,0,0,1,102.63,4.41H659.21a98.22,98.22,0,0,1,98.22,98.22Z"/></clipPath><clipPath id="clip-path-2"><path class="cls-1" d="M761.84,662.46a99.37,99.37,0,0,1-99.38,99.38H99.37A99.37,99.37,0,0,1,0,662.46V99.37A99.36,99.36,0,0,1,99.37,0H662.46a99.37,99.37,0,0,1,99.38,99.37Z"/></clipPath><linearGradient id="linear-gradient" x1="380.92" y1="-9.18" x2="380.92" y2="434.14" gradientUnits="userSpaceOnUse"><stop offset="0" stop-color="#fff" stop-opacity="0"/><stop offset="1" stop-color="#fff"/></linearGradient></defs><title>Aichi17</title><path class="cls-2" d="M757.43,659.21a98.21,98.21,0,0,1-98.22,98.22H102.63A98.21,98.21,0,0,1,4.41,659.21V102.63A98.22,98.22,0,0,1,102.63,4.41H659.21a98.22,98.22,0,0,1,98.22,98.22Z"/><path class="cls-3" d="M291.2,543.8c0-9.36-5.09-18.15-14-25.77a24.77,24.77,0,0,0,2.62-10.86c0-7.34-3.47-14.29-9.68-20.49h0c-18-19.18-30.87-69.43-30.87-128.37v-.51c10-6.05,16.05-13.71,16.05-22.06v-21.1c0-9.07-7.07-17.34-18.7-23.57a71.24,71.24,0,1,0-108.36,0c-11.63,6.23-18.71,14.5-18.71,23.57v21.1c0,8.49,6.22,16.29,16.58,22.38v.19c0,56.73-11.91,105.37-28.88,126.06-7.75,6.77-12.18,14.54-12.18,22.81A24.63,24.63,0,0,0,87.73,518c-8.88,7.62-14,16.41-14,25.77A27.06,27.06,0,0,0,76,554.38,26.9,26.9,0,0,0,73.77,565v4.92c0,29,48.66,52.59,108.7,52.59S291.2,598.91,291.2,569.87V565A26.75,26.75,0,0,0,289,554.38,26.9,26.9,0,0,0,291.2,543.8Z"/><path class="cls-3" d="M468.77,376c0-7.49-4.08-14.53-11.18-20.62a19.66,19.66,0,0,0,2.09-8.68c0-5.88-2.78-11.45-7.74-16.4v0C437.53,315,427.24,274.75,427.24,227.6c0-.14,0-.27,0-.42,8-4.83,12.85-11,12.85-17.65V192.65c0-7.25-5.67-13.87-15-18.86a57,57,0,1,0-86.7,0c-9.3,5-15,11.61-15,18.86v16.88c0,6.8,5,13,13.26,17.91v.16c0,45.39-9.52,84.3-23.09,100.85-6.21,5.41-9.75,11.63-9.75,18.26a19.67,19.67,0,0,0,2.1,8.68c-7.11,6.09-11.18,13.13-11.18,20.62a21.49,21.49,0,0,0,1.76,8.46,21.47,21.47,0,0,0-1.76,8.45v3.94c0,23.24,38.94,42.08,87,42.08s87-18.84,87-42.08v-3.94a21.49,21.49,0,0,0-1.77-8.45A21.5,21.5,0,0,0,468.77,376Z"/><g class="cls-4"><path class="cls-5" d="M532.69,215.71c-37.54-34.25-42.43-40-47.32-32.63s-9,13-9,13-20.4-22-33.45-20.39S434,188,434,188l-2.45,44.88H399.7c-14.68,0-18.76,18.76-26.92,28.56s-1.64,15.48-8.16,28.55-9.8,23.64-27.74,36.71S322.2,338.08,321.38,352s-2.44,23.66,12.24,44.06,21.2,24.48,40.79,25.29,18.76-1.63,20.39-6.53,3.26-8.15,9.79-8.15h13.87s-88.11,146.84-99.52,171.32-2.46,22.85-2.46,22.85,22,12.24,26.12,13.05S339,625.27,339,625.27c-9.25,7.92-39.25,32.69-39.25,44.56a34.32,34.32,0,0,0,2.78,13.39,34.4,34.4,0,0,0-2.78,13.4V736.5c0,36.84,61.7,66.69,137.81,66.69s137.83-29.85,137.83-66.69V696.62a34.4,34.4,0,0,0-2.78-13.4,34.32,34.32,0,0,0,2.78-13.39c0-11.87-30-36.64-39.25-44.56,0,0,16.14-2.46,25.92-11.43s11.42-13.05,11.42-13.05S567,520,576.74,411.51,570.21,250,532.69,215.71Zm-61.51,71.46c-1.32,9-8.22,15.48-15.38,14.43s-11.91-9.24-10.58-18.25,8.21-15.5,15.39-14.43S472.52,278.15,471.18,287.17Z"/><path class="cls-5" d="M569,450.21c-10.55,9.21-16.6,19.8-16.6,31.06A33.45,33.45,0,0,0,556,496c-12.09,10.37-19,22.35-19,35.1a37.11,37.11,0,0,0,3,14.38,37.12,37.12,0,0,0-3,14.39v42.83a38.91,38.91,0,0,0,6.4,20.8c5.54-1.63,13.11-4.58,18.69-9.7,9.8-9,11.42-13.05,11.42-13.05s-5.26-65.69.86-158.07A81,81,0,0,1,569,450.21Z"/><path class="cls-5" d="M832.93,531.14c0-12.75-6.93-24.73-19-35.1a33.83,33.83,0,0,0,3.56-14.77c0-10-4.74-19.46-13.17-27.89v0c-24.5-26.12-42-94.49-42-174.7,0-.25,0-.48,0-.71,13.65-8.23,21.83-18.66,21.83-30v-6c13.39-9.38,21.23-20.75,21.23-33v-77c0-32.18-53.91-58.28-120.41-58.28A244.37,244.37,0,0,0,659.17,75V90.31c-4.95.51-9.8,1.2-14.49,2V77c-46.69,8-80.15,29.58-80.15,54.92v77c0,12.26,7.85,23.63,21.21,33v6c0,11.56,8.46,22.17,22.53,30.46,0,.1,0,.19,0,.29,0,53.36-7.76,101.46-20.17,135.38-9.39,105.41-3.2,185-3.14,185.82l.22,2.71-1,2.5c-1,2.44-4.15,7.93-14.35,17.29a50.12,50.12,0,0,1-11,7.48c9.66,8.81,17.07,16.61,21.86,23.73,26.75,12.83,63.56,20.78,104.21,20.78,81.71,0,148-32.06,148-71.6V559.91a36.78,36.78,0,0,0-3-14.39A36.77,36.77,0,0,0,832.93,531.14Z"/></g><path class="cls-6" d="M757.43,659.21a98.21,98.21,0,0,1-98.22,98.22H102.63A98.21,98.21,0,0,1,4.41,659.21V102.63A98.22,98.22,0,0,1,102.63,4.41H659.21a98.22,98.22,0,0,1,98.22,98.22Z"/><path class="cls-3" d="M348,539.13V475.82H464V763.39H389.22V539.13Z"/><path class="cls-3" d="M499.05,539.13V475.82H735.13L570,763.39H488l131.2-224.26Z"/><path class="cls-1" d="M757.43,659.21a98.21,98.21,0,0,1-98.22,98.22H102.63A98.21,98.21,0,0,1,4.41,659.21V102.63A98.22,98.22,0,0,1,102.63,4.41H659.21a98.22,98.22,0,0,1,98.22,98.22Z"/><g class="cls-7"><path class="cls-8" d="M674.65-9.18H87.2A103.65,103.65,0,0,0-16.46,94.48v255.3c113.17,53.44,247.15,84.36,390.75,84.36,149.33,0,288.1-33.51,404-90.9V94.48A103.66,103.66,0,0,0,674.65-9.18Z"/></g></svg>