<svg id="Shine" xmlns="http://www.w3.org/2000/svg" xmlns:xlink="http://www.w3.org/1999/xlink" viewBox="0 0 761.84 761.84"><defs><style>.cls-1,.cls-7{fill:none;}.cls-2{fill:url(#New_Gradient_Swatch_3);}.cls-3{clip-path:url(#clip-path);}.cls-4,.cls-6{fill:#f9b233;}.cls-4,.cls-5{fill-rule:evenodd;}.cls-5,.cls-8{fill:#fff;}.cls-7{stroke:#be1622;stroke-miterlimit:10;stroke-width:11.55px;}.cls-9{clip-path:url(#clip-path-2);}.cls-10{opacity:0.4;fill:url(#linear-gradient);}</style><linearGradient id="New_Gradient_Swatch_3" x1="380.92" y1="757.43" x2="380.92" y2="4.41" gradientUnits="userSpaceOnUse"><stop offset="0" stop-color="#be1622"/><stop offset="1" stop-color="#e94e1b"/></linearGradient><clipPath id="clip-path"><path class="cls-1" d="M757.43,659.21a98.21,98.21,0,0,1-98.22,98.22H102.63A98.21,98.21,0,0,1,4.41,659.21V102.63A98.22,98.22,0,0,1,102.63,4.41H659.21a98.22,98.22,0,0,1,98.22,98.22Z"/></clipPath><clipPath id="clip-path-2"><path class="cls-1" d="M761.84,662.46a99.37,99.37,0,0,1-99.38,99.38H99.37A99.37,99.37,0,0,1,0,662.46V99.37A99.36,99.36,0,0,1,99.37,0H662.46a99.37,99.37,0,0,1,99.38,99.37Z"/></clipPath><linearGradient id="linear-gradient" x1="380.92" y1="-9.18" x2="380.92" y2="434.14" gradientUnits="userSpaceOnUse"><stop offset="0" stop-color="#fff" stop-opacity="0"/><stop offset="1" stop-color="#fff"/></linearGradient></defs><title>Aichi5</title><path class="cls-2" d="M757.43,659.21a98.21,98.21,0,0,1-98.22,98.22H102.63A98.21,98.21,0,0,1,4.41,659.21V102.63A98.22,98.22,0,0,1,102.63,4.41H659.21a98.22,98.22,0,0,1,98.22,98.22Z"/><g class="cls-3"><path class="cls-4" d="M623.13,771.09c-39.94-80.2-62.75-163.17-61-249.23V.13H434.49V521.86c1.69,86-21.12,169-61.07,249.23Z"/><path class="cls-4" d="M771.36,771.09c-39.94-80.2-62.76-163.17-61.05-249.23V.13H582.71V521.86c1.7,86-21.11,169-61.06,249.23Z"/><path class="cls-4" d="M931.14,771.09c-39.94-80.2-62.76-163.17-61.06-249.23V.13H742.49V521.86c1.7,86-21.12,169-61.06,249.23Z"/><path class="cls-4" d="M252.36,518.75v-4l109-12.46V.13H233.8V521.86c1.69,86-21.12,169-61.06,249.23H422.45C384,693.81,361.61,613.93,361.54,531.23Z"/><path class="cls-5" d="M23.86,576.81q6.75-3.7,13.45-7.48c3.61,8.69-1.12,24.66,2.82,33.32,4.41-2.62,17.27-12.57,21.65-15.23,3.87,8.55-.56,24.4,3.66,32.93,4.32-2.77,17.09-12.85,21.37-15.64,4.17,8.41,0,24.12,4.5,32.49,4.22-2.9,16.9-13.12,21.07-16.05,4.44,8.27.54,23.83,5.32,32.06,4.11-3,16.68-13.4,20.77-16.47,4.7,8.13,1.09,23.54,6.13,31.61,4-3.17,16.5-13.66,20.46-16.84,5,8,1.62,23.21,6.93,31.1,3.89-3.27,16.25-13.89,20.12-17.22,5.23,7.82,2.15,22.89,7.72,30.6,3.79-3.39,16-14.13,19.78-17.56,5.49,7.64,2.67,22.54,8.5,30.06,3.67-3.5,15.8-14.36,19.44-17.91,5.74,7.44,3.17,22.16,9.24,29.52,3.56-3.63,15.56-14.61,19.08-18.27,6,7.26,3.69,21.79,10,28.95,3.44-3.75,15.32-14.83,18.71-18.6,6.25,7.07,4.19,21.4,10.74,28.36,3.32-3.86,15.08-15,18.33-18.93,6.49,6.89,4.66,21,11.47,27.74,3.18-4,14.81-15.23,17.93-19.22,6.75,6.66,13.62,13.27,20.68,19.78l-3.22-2c4,1.89,15.08-13.62,16.37-17.08a715,715,0,0,1,40.6-84.61c1.89-3.16,7.07-21.51,3.07-23.46s-15.1,13.62-16.39,17.08c-7.68,19.13-16.23,37.84-25.51,56.2L53,530.21c8.52-18.74,17.75-37.11,27.86-55.08,1.91-3.17,7.08-21.51,3.08-23.46s-15.1,13.61-16.37,17.07a718.1,718.1,0,0,1-40.6,84.61C25,556.52,19.86,574.85,23.86,576.81Z"/><path class="cls-4" d="M61.78,518.75,48.28,430v91.86c1.7,86-21.12,169-61.06,249.23H236.93C198.53,694,176.21,614.31,176,531.81Z"/><path class="cls-6" d="M809.85,133.43l-43.52-205s-791.17,0-792.61,4.33,7.22,114.06,7.22,114.06l15.19,7c0,.61,0,1.14,0,1.77,2.68,25,27.1,58.49,26.1,58.4.53,0,8-8.07,14.43-19.43-3.2,22.81,1.18,50.07.49,49.62.61.4,19.25-6.81,32.8-19.79,7.18,13,14.39,22.76,13.85,22.71.82.08,17.58-19.32,21.69-40.09,11.46,12,22.93,21,22.35,21.07.28-.05,1.86-3.06,3.68-7.8,5.88,12.26,11.6,21.38,11.1,21.3,1,.16,27.47-26.61,26.05-51.69A81.33,81.33,0,0,0,167.63,78q1.45,1.61,2.92,3.15c0,.78,0,1.49.06,2.3,3.13,24.93,28.15,58,27.16,57.91.6.06,9.83-10.39,16.33-24.16,7.53,23.07,28.43,48.49,27.54,48.45.82,0,16.7-19.93,20-40.8l70.12,2.42c7.33,22.75,26.26,47.32,25.4,47.24.68.06,12.24-13.42,18.38-29.93,7.89,7.44,14.07,12.34,13.64,12.42.35-.07,2.64-4.59,5-11.38,4.36,8.82,7.93,14.86,7.53,14.79.77.14,17.41-16.09,24.11-35.22A100.3,100.3,0,0,0,435.93,110c10.47,22.75,42.27,46.82,41.31,47,.57-.1,6.22-11.87,8.86-26.25,12.47,13.91,26.43,24.68,25.78,24.81.59-.11,6.52-12.49,9.07-27.34l35.49,21.53c8.19,14.58,17.23,26.13,16.65,26.09.58,0,8.88-9.94,14.94-23.16l55.58-16.35,28.51,1.11c.43,1.46.82,2.9,1.41,4.47,9.81,23.12,42.9,48.12,41.93,48.3.5-.1,5-9.26,7.82-21.26,8,7.53,14.26,12.52,13.83,12.59.37-.07,2.83-4.92,5.25-12.17.37.35.61.6.52.63.62-.12,7.11-13.65,9.42-29.43l2.48.09ZM120.17,92.48l.42.94c.06.37.1.64,0,.65A4.56,4.56,0,0,0,120.17,92.48Zm122.31,38.38c.26,0-.66-6.36-2.87-15.34l2.17,1C242.75,125,242.73,130.86,242.48,130.86Zm116.59,8.9c.23,0-.31-4.71-1.63-11.62l1.58.06C359.46,135.09,359.29,139.77,359.07,139.76ZM470,123c.31-.07-3.32-8.92-9.4-19.89l3.31.68C468.29,114.44,470.31,122.89,470,123Zm34.64-1.45c.14,0-.42-1.58-1.49-4.08l.75.45A13.69,13.69,0,0,1,504.67,121.5Zm201.46,29.15c.41.52.85,1,1.28,1.53a16.05,16.05,0,0,1,.83,4C708.4,156.12,707.63,154,706.13,150.65Z"/></g><path class="cls-7" d="M757.43,659.21a98.21,98.21,0,0,1-98.22,98.22H102.63A98.21,98.21,0,0,1,4.41,659.21V102.63A98.22,98.22,0,0,1,102.63,4.41H659.21a98.22,98.22,0,0,1,98.22,98.22Z"/><path class="cls-8" d="M586.77,539.13l-5,32.8,23.65-1.9c58.73-4.58,101.83,43.48,101.83,103a100.26,100.26,0,0,1-37,77.81c-22.89,18.3-55.31,24-83.91,24-32.8,0-66-8-93.82-25.93l11.06-70.56c22.12,19.83,50.34,33.18,80.09,33.18,23.65,0,45.77-17.16,45.77-42.33,0-34.71-33.18-49.2-62.93-49.2a129.32,129.32,0,0,0-54.92,11.82l25.17-156h149.5v63.31Z"/><path class="cls-1" d="M757.43,659.21a98.21,98.21,0,0,1-98.22,98.22H102.63A98.21,98.21,0,0,1,4.41,659.21V102.63A98.22,98.22,0,0,1,102.63,4.41H659.21a98.22,98.22,0,0,1,98.22,98.22Z"/><g class="cls-9"><path class="cls-10" d="M674.65-9.18H87.2A103.65,103.65,0,0,0-16.46,94.48v255.3c113.17,53.44,247.15,84.36,390.75,84.36,149.33,0,288.1-33.51,404-90.9V94.48A103.66,103.66,0,0,0,674.65-9.18Z"/></g></svg>