<svg xmlns="http://www.w3.org/2000/svg" xmlns:xlink="http://www.w3.org/1999/xlink" viewBox="0 0 147.8 150.8"><defs><style>.a,.g{fill:none;}.b{fill:url(#a);}.c{clip-path:url(#b);}.d,.e{fill:#fbb040;}.e,.f{fill-rule:evenodd;}.f,.h{fill:#fff;}.g{stroke:#be1e2d;stroke-miterlimit:10;stroke-width:1.14px;}</style><linearGradient id="a" x1="73.43" y1="148.53" x2="73.43" y2="4.53" gradientUnits="userSpaceOnUse"><stop offset="0" stop-color="#be1e2d"/><stop offset="1" stop-color="#f15a29"/></linearGradient><clipPath id="b"><rect class="a" x="1.4" y="4.5" width="144" height="144" rx="18.8" ry="18.8"/></clipPath></defs><title>Aichi Biodivesity Target 9</title><rect class="b" x="1.4" y="4.5" width="144" height="144" rx="18.8" ry="18.8"/><g class="c"><polygon class="d" points="149.5 151.4 30.7 151.4 149.5 32.7 149.5 151.4"/><path class="e" d="M59.5,75.4a2.2,2.2,0,1,1-2.8,3.2c-1.2-1-1.6-2.6-.8-3.5S58.3,74.3,59.5,75.4Z"/><path class="e" d="M64.8,70.4c2.3,1.2,2,3.8.8,5.3s-3.8,2.2-5.4,0S58,71,58.9,69.9,60.7,68.2,64.8,70.4Z"/><path class="e" d="M57.5,79a1.9,1.9,0,1,1-2.4,2.8c-1-.9-1.4-2.3-.7-3S56.4,78.1,57.5,79Z"/><path class="e" d="M56.7,82.9a1.5,1.5,0,1,1-1.5,2.6,1.6,1.6,0,1,1,1.5-2.6Z"/><path class="e" d="M56.8,86.4a1.3,1.3,0,1,1-1.1,2.4,1.4,1.4,0,1,1,1.1-2.4Z"/><path class="e" d="M65.3,77.4c1.4-1.2,5.9-1.6,6.9,3.9s.5,11.3,6.3,13.6c3.8,1.5,5.9-1.4,9.7,1.7s1.8,6.2-.6,8.4-7.2.3-12.7-4.2-15-7.3-15.8-12.6-.4-7,2.1-8.5S65.3,77.4,65.3,77.4Z"/><path class="e" d="M99.5,86.8a2.2,2.2,0,1,0,3.4-2.6c-1-1.3-2.5-1.7-3.5-1S98.5,85.5,99.5,86.8Z"/><path class="e" d="M103.3,85a1.9,1.9,0,1,0,2.9-2.3c-.9-1.1-2.2-1.5-3-.8S102.4,83.9,103.3,85Z"/><path class="e" d="M107.2,84.3a1.5,1.5,0,1,0,2.7-1.4,1.6,1.6,0,1,0-2.7,1.4Z"/><path class="e" d="M110.7,84.7a1.3,1.3,0,1,0,2.4-.9c-.3-.9-1.2-1.4-1.8-1.2A1.6,1.6,0,0,0,110.7,84.7Z"/><path class="e" d="M101.3,92.7c-1.3,1.3-1.9,5.8,3.5,7.1s11.2,1,13.2,7c1.3,3.9-1.7,5.8,1.2,9.8s6.1,2.1,8.4-.2.7-7.2-3.6-12.9S117.5,88.1,112.3,87s-7-.7-8.6,1.7S101.3,92.7,101.3,92.7Z"/><path class="f" d="M11.8,27.7A2.2,2.2,0,1,1,9,31c-1.2-1-1.6-2.6-.8-3.5S10.6,26.7,11.8,27.7Z"/><path class="f" d="M17.2,22.7c2.3,1.2,2,3.8.8,5.3s-3.8,2.2-5.4,0-2.3-4.6-1.3-5.8S13.1,20.6,17.2,22.7Z"/><path class="f" d="M9.8,31.4a1.9,1.9,0,1,1-2.4,2.8c-1-.9-1.4-2.3-.7-3S8.8,30.5,9.8,31.4Z"/><path class="f" d="M9,35.2a1.5,1.5,0,1,1-1.5,2.6,1.8,1.8,0,0,1-1-2.3A1.9,1.9,0,0,1,9,35.2Z"/><path class="f" d="M9.2,38.8a1.3,1.3,0,1,1-1.1,2.4,1.6,1.6,0,0,1-1.1-1.9A1.6,1.6,0,0,1,9.2,38.8Z"/><path class="f" d="M17.7,29.8c1.4-1.2,5.9-1.6,6.9,3.9s.5,11.3,6.3,13.6c3.8,1.5,5.9-1.4,9.7,1.7s1.8,6.2-.6,8.4-7.2.3-12.7-4.2-15-7.3-15.8-12.6-.4-7,2.1-8.5S17.7,29.8,17.7,29.8Z"/><path class="f" d="M51.9,39.1a2.2,2.2,0,1,0,3.4-2.6c-1-1.3-2.5-1.7-3.5-1S50.9,37.9,51.9,39.1Z"/><path class="f" d="M46.6,44.2c1.1,2.4,3.7,2.2,5.3,1s2.3-3.7.3-5.4-4.5-2.5-5.7-1.6S44.7,40,46.6,44.2Z"/><path class="f" d="M55.6,37.3A1.9,1.9,0,1,0,58.6,35c-.9-1.1-2.2-1.5-3-.8S54.8,36.2,55.6,37.3Z"/><path class="f" d="M59.5,36.7a1.5,1.5,0,1,0,2.7-1.4,1.6,1.6,0,1,0-2.7,1.4Z"/><path class="f" d="M63.1,37a1.3,1.3,0,1,0,2.4-.9c-.3-.9-1.2-1.4-1.8-1.2A1.6,1.6,0,0,0,63.1,37Z"/><path class="f" d="M53.6,45.1c-1.3,1.3-1.9,5.8,3.5,7.1s11.2,1,13.2,7c1.3,3.9-1.7,5.8,1.2,9.8s6.1,2.1,8.4-.2.7-7.2-3.6-12.9S69.9,40.5,64.6,39.4s-7-.7-8.6,1.7S53.6,45.1,53.6,45.1Z"/><path class="e" d="M5.3-3.2C4.1-1.9,3.5,2.5,8.8,3.8s11.2,1,13.2,7c1.3,3.9-1.7,5.8,1.2,9.8s6.1,2.1,8.4-.2.7-7.2-3.6-12.9S21.6-7.8,16.3-8.9s-7-.7-8.6,1.7S5.3-3.2,5.3-3.2Z"/><path class="e" d="M118,47.1a2,2,0,1,1-2.6,3c-1.1-1-1.4-2.4-.7-3.2S116.9,46.1,118,47.1Z"/><path class="e" d="M122.9,42.5c2.1,1.1,1.9,3.5.7,4.8s-3.5,2-4.9,0-2.1-4.2-1.2-5.3S119.1,40.6,122.9,42.5Z"/><path class="e" d="M116.2,50.4A1.7,1.7,0,1,1,114,53a2.1,2.1,0,0,1-.6-2.8A2.1,2.1,0,0,1,116.2,50.4Z"/><path class="e" d="M115.4,53.9a1.4,1.4,0,1,1-1.4,2.4,1.5,1.5,0,1,1,1.4-2.4Z"/><path class="e" d="M115.6,57.1a1.2,1.2,0,1,1-1,2.2,1.2,1.2,0,1,1,1-2.2Z"/><path class="e" d="M123.3,48.9c1.3-1.1,5.3-1.4,6.3,3.5s.4,10.3,5.8,12.4c3.5,1.4,5.4-1.3,8.9,1.6s1.7,5.7-.6,7.7-6.6.3-11.6-3.9-13.7-6.6-14.4-11.5-.3-6.4,1.9-7.7S123.3,48.9,123.3,48.9Z"/><path class="e" d="M74.6,3.6a2,2,0,1,1-2.6,3c-1.1-1-1.4-2.4-.7-3.2S73.5,2.7,74.6,3.6Z"/><path class="e" d="M79.4-.9c2.1,1.1,1.9,3.5.7,4.8s-3.5,2-4.9,0S73.2-.3,74.1-1.3,75.7-2.9,79.4-.9Z"/><path class="e" d="M72.7,6.9a1.7,1.7,0,1,1-2.2,2.6,2.1,2.1,0,0,1-.6-2.8A2.1,2.1,0,0,1,72.7,6.9Z"/><path class="e" d="M72,10.5a1.4,1.4,0,1,1-1.4,2.4,1.7,1.7,0,0,1-.9-2.1A1.7,1.7,0,0,1,72,10.5Z"/><path class="e" d="M72.1,13.7a1.2,1.2,0,1,1-1,2.2,1.4,1.4,0,0,1-1-1.7A1.4,1.4,0,0,1,72.1,13.7Z"/><path class="e" d="M79.9,5.5c1.3-1.1,5.3-1.4,6.3,3.5s.4,10.3,5.8,12.4c3.5,1.4,5.4-1.3,8.9,1.6s1.7,5.7-.6,7.7-6.6.3-11.6-3.9S75,20.1,74.2,15.3s-.3-6.4,1.9-7.7S79.9,5.5,79.9,5.5Z"/><path class="f" d="M111.1,14a2,2,0,1,0,3.1-2.4c-.9-1.1-2.3-1.5-3.2-.9S110.2,12.9,111.1,14Z"/><path class="f" d="M106.3,18.7c1,2.2,3.4,2,4.8.9s2.1-3.4.3-4.9-4.1-2.3-5.2-1.4S104.5,14.8,106.3,18.7Z"/><path class="f" d="M114.5,12.4a1.7,1.7,0,1,0,2.7-2.1,2.1,2.1,0,0,0-2.7-.8A2.1,2.1,0,0,0,114.5,12.4Z"/><path class="f" d="M118,11.8a1.4,1.4,0,1,0,2.5-1.3,1.7,1.7,0,0,0-2.1-1A1.7,1.7,0,0,0,118,11.8Z"/><path class="f" d="M121.3,12.1a1.2,1.2,0,1,0,2.2-.8c-.3-.8-1.1-1.3-1.7-1.1A1.4,1.4,0,0,0,121.3,12.1Z"/><path class="f" d="M112.7,19.4c-1.2,1.2-1.7,5.3,3.2,6.5s10.3.9,12.1,6.4c1.2,3.5-1.5,5.3,1.1,8.9s5.6,2,7.7-.2.6-6.5-3.3-11.8-6-14-10.8-15-6.4-.6-7.8,1.5S112.7,19.4,112.7,19.4Z"/><path class="e" d="M24.7,118.8a2,2,0,1,1-2.6,3c-1.1-.9-1.4-2.4-.7-3.2S23.6,117.9,24.7,118.8Z"/><path class="e" d="M29.6,114.3c2.1,1.1,1.9,3.5.7,4.8s-3.5,2-4.9,0-2.1-4.2-1.2-5.3S25.8,112.3,29.6,114.3Z"/><path class="e" d="M22.9,122.2a1.7,1.7,0,1,1-2.2,2.6A2.1,2.1,0,0,1,20,122,2.1,2.1,0,0,1,22.9,122.2Z"/><path class="e" d="M22.1,125.7a1.4,1.4,0,1,1-1.4,2.4,1.7,1.7,0,0,1-.9-2.1A1.7,1.7,0,0,1,22.1,125.7Z"/><path class="e" d="M22.3,128.9a1.2,1.2,0,1,1-1,2.2,1.2,1.2,0,1,1,1-2.2Z"/><path class="e" d="M30,120.7c1.3-1.1,5.3-1.4,6.3,3.5s.4,10.3,5.8,12.4c3.5,1.4,5.4-1.3,8.9,1.6s1.7,5.7-.6,7.7-6.6.3-11.6-3.9-13.7-6.6-14.4-11.5-.3-6.4,1.9-7.7S30,120.7,30,120.7Z"/><path class="e" d="M61.2,129.2a2,2,0,1,0,3.1-2.4c-.9-1.2-2.3-1.5-3.2-.9S60.3,128.1,61.2,129.2Z"/><path class="e" d="M56.4,133.9c1,2.2,3.4,2,4.8.9s2.1-3.4.3-4.9-4.1-2.3-5.2-1.4S54.6,130,56.4,133.9Z"/><path class="e" d="M64.6,127.6a1.7,1.7,0,1,0,2.7-2.1,1.8,1.8,0,1,0-2.7,2.1Z"/><path class="e" d="M68.2,127a1.4,1.4,0,1,0,2.5-1.3,1.5,1.5,0,1,0-2.5,1.3Z"/><path class="e" d="M71.4,127.3a1.2,1.2,0,1,0,2.2-.8c-.3-.8-1.1-1.3-1.7-1.1A1.4,1.4,0,0,0,71.4,127.3Z"/><path class="e" d="M62.8,134.7c-1.1,1.2-1.7,5.3,3.2,6.5s10.3.9,12.1,6.4c1.2,3.5-1.5,5.3,1.1,8.9s5.6,2,7.7-.2.6-6.5-3.3-11.8-6-14-10.8-15-6.4-.6-7.8,1.5S62.8,134.7,62.8,134.7Z"/><path class="f" d="M-13.4,77.3c1.3-1.1,5.3-1.4,6.3,3.5s.4,10.3,5.8,12.4c3.5,1.4,5.4-1.3,8.9,1.6s1.7,5.7-.6,7.7-6.6.3-11.6-3.9S-18.3,91.9-19.1,87s-.3-6.4,1.9-7.7S-13.4,77.3-13.4,77.3Z"/><path class="e" d="M17.8,85.8a2,2,0,1,0,3.1-2.4c-.9-1.1-2.3-1.5-3.2-.9S16.9,84.6,17.8,85.8Z"/><path class="e" d="M13,90.4c1,2.2,3.4,2,4.8.9s2.1-3.4.3-4.9-4.1-2.3-5.2-1.4S11.2,86.6,13,90.4Z"/><path class="e" d="M21.2,84.1a1.7,1.7,0,1,0,2.7-2.1,2.1,2.1,0,0,0-2.7-.8A2.1,2.1,0,0,0,21.2,84.1Z"/><path class="e" d="M24.7,83.6a1.4,1.4,0,1,0,2.5-1.3,1.7,1.7,0,0,0-2.1-1A1.7,1.7,0,0,0,24.7,83.6Z"/><path class="e" d="M27.9,83.9a1.2,1.2,0,1,0,2.2-.9c-.3-.8-1.1-1.3-1.7-1.1A1.4,1.4,0,0,0,27.9,83.9Z"/><path class="e" d="M19.4,91.2c-1.2,1.2-1.7,5.3,3.2,6.5s10.3.9,12.1,6.4c1.2,3.5-1.5,5.3,1.1,8.9s5.6,2,7.7-.2.6-6.5-3.3-11.8-6-14-10.8-15-6.4-.6-7.8,1.5S19.4,91.2,19.4,91.2Z"/></g><rect class="g" x="1.4" y="4.5" width="144" height="144" rx="18.8" ry="18.8"/><path class="h" d="M102.4,149.7,118,131.1h-.1a18.2,18.2,0,0,1-7.7,1.7c-10.8,0-17.7-9.3-17.7-19.4,0-13.5,11.1-20.8,23.6-20.8,5.3,0,11.4,1.3,15.7,4.7a20,20,0,0,1,7.4,15.2c0,7.9-4.1,15.6-8.8,21.9l-11.7,15.4Zm5-36.8a8.8,8.8,0,0,0,8.8,9,9,9,0,1,0,0-18.1A8.8,8.8,0,0,0,107.4,112.8Z"/></svg>
