<svg xmlns="http://www.w3.org/2000/svg" xmlns:xlink="http://www.w3.org/1999/xlink" viewBox="0 0 150.3 150.1"><defs><style>.a,.i{fill:none;}.b{fill:url(#a);}.c{clip-path:url(#b);}.d,.e,.g,.h{fill:#8dc63f;}.e,.g,.h{stroke:#fff;}.e,.g,.h,.i{stroke-miterlimit:10;}.e{stroke-width:0.46px;}.f{fill:#fff;}.g{stroke-width:0.61px;}.h{stroke-width:0.93px;}.i{stroke:#f7941d;stroke-width:1.14px;}</style><linearGradient id="a" x1="75.22" y1="146.79" x2="75.22" y2="2.8" gradientUnits="userSpaceOnUse"><stop offset="0" stop-color="#f7941d"/><stop offset="1" stop-color="#f9ed32"/></linearGradient><clipPath id="b"><rect class="a" x="3.2" y="2.8" width="144" height="144" rx="18.8" ry="18.8"/></clipPath></defs><title>Aichi Biodiversity Target 20</title><rect class="b" x="3.2" y="2.8" width="144" height="144" rx="18.8" ry="18.8"/><g class="c"><circle class="d" cx="5.2" cy="29.7" r="42.8" transform="matrix(0.13, -0.99, 0.99, 0.13, -24.94, 31.1)"/><circle class="e" cx="5.2" cy="29.7" r="39" transform="matrix(0.13, -0.99, 0.99, 0.13, -24.94, 31.1)"/><circle class="f" cx="21.3" cy="-0.5" r="1.6" transform="translate(11.8 18.5) rotate(-62)"/><circle class="f" cx="26.5" cy="2.9" r="1.6" transform="translate(7.8 21.8) rotate(-51.6)"/><circle class="f" cx="31" cy="7.1" r="1.6" transform="translate(3 22.2) rotate(-41.2)"/><circle class="f" cx="34.6" cy="12.2" r="1.6" transform="translate(-1.4 19.4) rotate(-30.8)"/><path class="f" d="M35.8,18.3a1.6,1.6,0,1,1,2,.9A1.6,1.6,0,0,1,35.8,18.3Z"/><circle class="f" cx="38.9" cy="23.8" r="1.6" transform="translate(-3.5 7.1) rotate(-10)"/><circle class="f" cx="39.4" cy="29.9" r="1.6" transform="translate(9.3 69.2) rotate(-89.6)"/><path class="f" d="M37.3,35.8a1.6,1.6,0,1,1,1.2,1.8A1.6,1.6,0,0,1,37.3,35.8Z"/><circle class="f" cx="37.1" cy="42.1" r="1.6" transform="translate(-15.5 61.5) rotate(-68.8)"/><path class="f" d="M33,46.8a1.6,1.6,0,1,1,.5,2.2A1.6,1.6,0,0,1,33,46.8Z"/><circle class="f" cx="30.7" cy="52.6" r="1.6" transform="translate(-29 40.2) rotate(-48.1)"/><circle class="f" cx="26.1" cy="56.8" r="1.6" transform="translate(-29.3 27.8) rotate(-37.7)"/><path class="f" d="M20.2,58.8a1.6,1.6,0,1,1-.7,2.1A1.6,1.6,0,0,1,20.2,58.8Z"/><circle class="f" cx="15.1" cy="62.5" r="1.6" transform="translate(-17.5 7.1) rotate(-16.9)"/><circle class="f" cx="9" cy="63.7" r="1.6" transform="translate(-7.1 1.4) rotate(-6.4)"/><circle class="f" cx="2.8" cy="63.9" r="1.6" transform="translate(-61.1 62.3) rotate(-86.1)"/><path class="f" d="M3,30.7A13.3,13.3,0,0,1,3,38l.6.2a29.7,29.7,0,0,0,8,1.8,2.5,2.5,0,0,0,2.8-2.7H21a12.5,12.5,0,0,1-2.8,7.5,9.2,9.2,0,0,1-7.2,3c-2.7,0-4.9-.8-7.5-1.5A30.5,30.5,0,0,0-3.4,45c-1.4,0-3,.5-3.4,2h-7.1c.9-4.6,4.2-9.6,9.3-9.6,1.1-2.3.3-4.7-1-6.7h-8.7V26.6h5.9a13.3,13.3,0,0,1-2-7A14.4,14.4,0,0,1-5.9,9.3c3.1-3,7.2-4,11.5-4,10.8,0,15,4.8,15.1,15.4H10.1V18.8a5.1,5.1,0,0,0-4.9-5.2C1.9,13.7,0,16.3,0,19.4a12.6,12.6,0,0,0,2.2,7.2h8.5v4.1Z"/><circle class="d" cx="17.5" cy="87.5" r="56.3" transform="translate(-71.5 93.9) rotate(-82.8)"/><circle class="g" cx="17.5" cy="87.5" r="51.3" transform="translate(-71.5 93.9) rotate(-82.8)"/><circle class="f" cx="23.2" cy="42.8" r="2.1" transform="translate(-22.2 60.5) rotate(-82.8)"/><circle class="f" cx="31.2" cy="44.6" r="2.1" transform="translate(-20.7 60.8) rotate(-72.4)"/><circle class="f" cx="38.7" cy="47.7" r="2.1" transform="translate(-21.6 59.5) rotate(-62)"/><circle class="f" cx="45.5" cy="52.2" r="2.1" transform="translate(-23.7 55.5) rotate(-51.6)"/><circle class="f" cx="51.4" cy="57.8" r="2.1" transform="translate(-25.4 48.3) rotate(-41.3)"/><circle class="f" cx="56.2" cy="64.4" r="2.1" transform="translate(-25.1 37.9) rotate(-30.8)"/><path class="f" d="M57.8,72.5a2.1,2.1,0,1,1,2.7,1.2A2.1,2.1,0,0,1,57.8,72.5Z"/><circle class="f" cx="61.9" cy="79.7" r="2.1" transform="translate(-12.9 12) rotate(-10)"/><circle class="f" cx="62.6" cy="87.8" r="2.1" transform="translate(-25.6 149.8) rotate(-89.6)"/><circle class="f" cx="61.8" cy="95.9" r="2.1" transform="translate(-44 138.7) rotate(-79.2)"/><path class="f" d="M57.6,103a2.1,2.1,0,1,1,1.2,2.7A2.1,2.1,0,0,1,57.6,103Z"/><circle class="f" cx="55.9" cy="111.1" r="2.1" transform="translate(-68 100.6) rotate(-58.4)"/><circle class="f" cx="51.1" cy="117.6" r="2.1" transform="translate(-70.6 77) rotate(-48)"/><path class="f" d="M43.8,121.5a2.1,2.1,0,1,1-.4,2.9A2.1,2.1,0,0,1,43.8,121.5Z"/><circle class="f" cx="38.2" cy="127.5" r="2.1" transform="translate(-54.2 31.7) rotate(-27.3)"/><circle class="f" cx="30.6" cy="130.6" r="2.1" transform="translate(-36.6 14.5) rotate(-16.9)"/><circle class="f" cx="22.6" cy="132.3" r="2.1" transform="translate(-14.7 3.4) rotate(-6.4)"/><circle class="f" cx="14.5" cy="132.5" r="2.1" transform="translate(-118.7 137.8) rotate(-86.1)"/><path class="f" d="M6.9,129.2a2.1,2.1,0,1,1-2.5,1.5A2.1,2.1,0,0,1,6.9,129.2Z"/><path class="f" d="M-.4,126.6a2.1,2.1,0,0,1,1,2.7,2.1,2.1,0,0,1-2.7,1,2.1,2.1,0,0,1-1-2.7A2.1,2.1,0,0,1-.4,126.6Z"/><polygon class="f" points="101.4 98.1 48.7 98.1 60.2 35.1 89.8 35.1 101.4 98.1"/><polygon class="f" points="46.8 42.3 74.8 5.8 102.7 42.3 46.8 42.3"/><path class="f" d="M2.4,99.2c3.4,3.2,8.7,6.2,13.4,6.2,3.1,0,7-1.8,7-5.4s-5.8-4.9-11.6-7S-.5,87.5-.5,78.5,5.5,61.7,14.6,61.1v-9h6.9v9A30.2,30.2,0,0,1,35,65.4L29.5,76.1A15.4,15.4,0,0,0,20,72.5c-3.3,0-6.3,1.2-6.3,4.2s4.7,4.9,7.3,5.8C29.4,85.2,37,88.3,37,98.6s-5.9,15.7-15.6,18.1V126H14.6v-8.8A26.7,26.7,0,0,1,5,115.3a26.1,26.1,0,0,1-8.7-4.9Z"/><circle class="d" cx="92.4" cy="144.2" r="85.9"/><circle class="h" cx="92.4" cy="144.2" r="78.4"/><circle class="f" cx="23.6" cy="144.2" r="3.2"/><circle class="f" cx="24.8" cy="131.8" r="3.2" transform="translate(-109.3 132.3) rotate(-79.6)"/><circle class="f" cx="28.1" cy="119.8" r="3.2" transform="translate(-93.9 103.6) rotate(-69.2)"/><circle class="f" cx="33.6" cy="108.6" r="3.2" transform="translate(-76.7 81.1) rotate(-58.8)"/><circle class="f" cx="41" cy="98.5" r="3.2" transform="translate(-59.9 63.8) rotate(-48.4)"/><circle class="f" cx="50" cy="90" r="3.2" transform="translate(-44.8 50) rotate(-38.1)"/><circle class="f" cx="60.5" cy="83.2" r="3.2" transform="translate(-31.7 37.6) rotate(-27.7)"/><circle class="f" cx="72" cy="78.5" r="3.2" transform="translate(-20.1 24.9) rotate(-17.3)"/><path class="f" d="M84.6,79a3.2,3.2,0,1,1,2.8-3.5A3.1,3.1,0,0,1,84.6,79Z"/><path class="f" d="M96.5,78.7a3.2,3.2,0,1,1,3.3-3A3.2,3.2,0,0,1,96.5,78.7Z"/><path class="f" d="M108.3,80.5a3.2,3.2,0,1,1,3.8-2.3A3.2,3.2,0,0,1,108.3,80.5Z"/><path class="f" d="M119.5,84.4a3.2,3.2,0,1,1,4.2-1.6A3.1,3.1,0,0,1,119.5,84.4Z"/><path class="f" d="M129.8,90.2a3.2,3.2,0,1,1,4.4-.8A3.1,3.1,0,0,1,129.8,90.2Z"/><circle class="f" cx="141.2" cy="95.6" r="3.2" transform="translate(-26.3 127.6) rotate(-44.9)"/><path class="f" d="M146.6,107a3.2,3.2,0,1,1,4.4.8A3.1,3.1,0,0,1,146.6,107Z"/></g><rect class="i" x="3.2" y="2.8" width="144" height="144" rx="18.8" ry="18.8"/><path class="f" d="M91,135.8v12.1H46.8l22.5-24.4c3.2-3.5,6.3-8.5,6.3-13.5,0-3.5-2.5-7.1-6.3-7.1s-6,3-6,6.7a13.2,13.2,0,0,0,.2,2.3H47.8c.4-12.6,8.5-21.2,21.4-21.2s21.2,7.6,21.2,19.5c0,7.9-3.3,12.5-8.9,17.6L73,135.8Z"/><path class="f" d="M141,120.4c0,14.3-6.9,29.7-23.3,29.7s-23.3-15.4-23.3-29.7,7-29.7,23.3-29.7S141,106.1,141,120.4Zm-32.5-.1c0,5.3,1.8,17.1,9.1,17.1s9.1-11.8,9.1-17.1-1.8-17-9.1-17S108.5,115,108.5,120.4Z"/></svg>
