<svg xmlns="http://www.w3.org/2000/svg" xmlns:xlink="http://www.w3.org/1999/xlink" viewBox="0 0 148 146.9"><defs><style>.a,.f{fill:none;}.b{fill:url(#a);}.c{clip-path:url(#b);}.d{fill:#00aeef;}.e{fill:#fff;}.f{stroke:#662d91;stroke-miterlimit:10;stroke-width:1.14px;}</style><linearGradient id="a" x1="73.59" y1="145.8" x2="73.59" y2="1.8" gradientUnits="userSpaceOnUse"><stop offset="0" stop-color="#662d91"/><stop offset="1" stop-color="#ae5fa5"/></linearGradient><clipPath id="b"><rect class="a" x="1.6" y="1.8" width="144" height="144" rx="18.8" ry="18.8"/></clipPath></defs><title>Aichi Biodiversity Target 16</title><rect class="b" x="1.6" y="1.8" width="144" height="144" rx="18.8" ry="18.8"/><g class="c"><path class="d" d="M142.6,41.3l-30.1,7.1a5.8,5.8,0,0,1-2.8-11.3l23.6-5.7a1,1,0,0,0-.5-1.9l-23.7,5.7A7.8,7.8,0,0,0,111,50.6l1.9-.2,1.7-.4,3.5,11.2a6.1,6.1,0,0,1-4,7.7l-1.8.3a6.1,6.1,0,0,1-5.8-4.3l-4.8-15.2a6.3,6.3,0,0,1,0-3.8l.9-5.4v-.3l-.2-.7a5.7,5.7,0,0,1,.8-4.6l1.2-1.8-2.1.2c-1.1.1-2-.1-2.2-.5s-.1-1.3.8-2.6l4.9-7.2v-.2a6.1,6.1,0,0,1,1.8-2.6l9-13.1a16,16,0,0,1,9.4-6L136.4-.3l30.8,24.2a23.9,23.9,0,0,1-9.1,12,32.8,32.8,0,0,1-15.5,5.4h0"/><path class="d" d="M162.3,39.6a5.3,5.3,0,0,1-3.1,6.5l-12,4.4-1.5.3-1.4-.2-17.6-2.6-1.3-.4,13.4-3.2,4.2-1a34.6,34.6,0,0,0,16.2-5.7l1-.7h0A4.7,4.7,0,0,1,162.3,39.6Z"/><path class="d" d="M82.6,66a5.8,5.8,0,0,0-7-4.3L57.5,65.8h0l-9,2.2H23.7a5.8,5.8,0,0,0,.1-1.1,5.9,5.9,0,0,0-.1-.9H48.2L57,63.5l2.2-.5v.2l15.9-3.6,1.8-.2h.5a5.8,5.8,0,0,0-5.8-5.3H12.4l22.9-7.6a5.8,5.8,0,0,0-3.9-10.9L-17.4,51.9s-3.2,33.7-3.2,36C-20.3,98.5,5.9,107,9.1,107H39.8a5.8,5.8,0,0,0,4.1-.5,5.8,5.8,0,0,0,2.8-2.4l1.2-1.3H48l8.4-8.4a5.8,5.8,0,0,0-8.2-8.2L41,93.4l-2,1.9H23.8a4.9,4.9,0,0,0-.1-2.2h7.5v.2h7l1.3-1.2,7.2-7.2a7.9,7.9,0,0,1,12.7,1.9l8.9-5.3a5.8,5.8,0,0,0-6-10l-16,9.4h-.1l-1.5.9H28.5a5.9,5.9,0,0,0,.1-1,5.7,5.7,0,0,0-.2-1.2h2.7v.2H44l1-.6,1.9-1.1H47l14-8.3a7.9,7.9,0,0,1,11.9,5L78.3,73A5.8,5.8,0,0,0,82.6,66Z"/><path class="d" d="M142.6,41.3l-30.1,7.1a5.8,5.8,0,0,1-2.8-11.3l23.6-5.7"/></g><path class="e" d="M89,46.2a95.6,95.6,0,0,1-22-17c3.1,7.8,14,18.4,28.7,26.9a108.2,108.2,0,0,0,16.3,7.8c-7,3.6-19.1,2-30.6-4.7C53.4,42.8,60.7,15,60.7,15s23.3,6.1,38,14.6,21.1,19.5,18.9,27.8C109.6,56,99.4,52.2,89,46.2Z"/><path class="d" d="M142.6,41.3l-30.1,7.1a5.8,5.8,0,0,1-2.8-11.3l23.6-5.7"/><rect class="f" x="1.6" y="1.8" width="144" height="144" rx="18.8" ry="18.8"/><path class="e" d="M67.3,104.1V91.9H89.5v55H75.2V104.1Z"/><path class="e" d="M129.5,91.9l-15.6,18.6h.1a18.1,18.1,0,0,1,7.7-1.7c10.8,0,17.6,9.3,17.6,19.3,0,13.5-11.1,20.8-23.6,20.8-5.3,0-11.4-1.4-15.7-4.7a20.4,20.4,0,0,1-7.4-15.1c0-8,4.1-15.7,8.8-21.9l11.8-15.5Zm-5,36.8a8.8,8.8,0,0,0-8.8-9,9,9,0,1,0,0,18.1A8.9,8.9,0,0,0,124.5,128.8Z"/></svg>
