<svg id="Shine" xmlns="http://www.w3.org/2000/svg" xmlns:xlink="http://www.w3.org/1999/xlink" viewBox="0 0 761.84 763.39"><defs><style>.cls-1,.cls-5,.cls-7{fill:none;}.cls-2{fill:url(#New_Gradient_Swatch_1);}.cls-3{clip-path:url(#clip-path);}.cls-4{fill:#fff;}.cls-5{stroke:#fff;stroke-width:16.86px;}.cls-5,.cls-7{stroke-miterlimit:10;}.cls-6{fill:#95c11f;}.cls-7{stroke:#f39200;stroke-width:11.55px;}.cls-8{clip-path:url(#clip-path-2);}.cls-9{opacity:0.4;fill:url(#linear-gradient);}</style><linearGradient id="New_Gradient_Swatch_1" x1="380.92" y1="757.43" x2="380.92" y2="4.41" gradientUnits="userSpaceOnUse"><stop offset="0" stop-color="#f39200"/><stop offset="1" stop-color="#fcea10"/></linearGradient><clipPath id="clip-path"><path class="cls-1" d="M757.43,659.21a98.21,98.21,0,0,1-98.22,98.22H102.63A98.21,98.21,0,0,1,4.41,659.21V102.63A98.22,98.22,0,0,1,102.63,4.41H659.21a98.22,98.22,0,0,1,98.22,98.22Z"/></clipPath><clipPath id="clip-path-2"><path class="cls-1" d="M761.84,662.46a99.37,99.37,0,0,1-99.38,99.38H99.37A99.37,99.37,0,0,1,0,662.46V99.37A99.36,99.36,0,0,1,99.37,0H662.46a99.37,99.37,0,0,1,99.38,99.37Z"/></clipPath><linearGradient id="linear-gradient" x1="380.92" y1="-9.18" x2="380.92" y2="434.14" gradientUnits="userSpaceOnUse"><stop offset="0" stop-color="#fff" stop-opacity="0"/><stop offset="1" stop-color="#fff"/></linearGradient></defs><title>Aichi19</title><path class="cls-2" d="M757.43,659.21a98.21,98.21,0,0,1-98.22,98.22H102.63A98.21,98.21,0,0,1,4.41,659.21V102.63A98.22,98.22,0,0,1,102.63,4.41H659.21a98.22,98.22,0,0,1,98.22,98.22Z"/><g class="cls-3"><path class="cls-4" d="M49.24,221.21v75.93h14c3.34,0,5.72.65,7.14,1.93a6.5,6.5,0,0,1,2.13,5.05,6.4,6.4,0,0,1-2.13,5C69,310.37,66.59,311,63.25,311H21.36c-3.34,0-5.72-.65-7.14-1.93a6.49,6.49,0,0,1-2.13-5,6.42,6.42,0,0,1,2.13-5c1.42-1.28,3.8-1.93,7.14-1.93h14V239.28L23,242.53a18.79,18.79,0,0,1-4.46.81,6,6,0,0,1-4.57-2.1A7.28,7.28,0,0,1,12,236.1a6.29,6.29,0,0,1,1.42-4.36c1-1.06,2.93-2,6-2.81Z"/><path class="cls-4" d="M155.63,259.52v15.22a47.83,47.83,0,0,1-7.82,25.92q-7.81,12.39-22.37,12.39a25.81,25.81,0,0,1-14.17-3.69q-5.79-3.69-11-13.6a44.81,44.81,0,0,1-5.18-21V259.52a48.06,48.06,0,0,1,7.79-25.89q7.77-12.42,22.33-12.42a25.88,25.88,0,0,1,14.11,3.66q5.79,3.65,11,13.57A44.38,44.38,0,0,1,155.63,259.52Zm-13.94,0a32.16,32.16,0,0,0-6.3-19.76,12,12,0,0,0-10.08-4.67A12.44,12.44,0,0,0,115,240.23q-6,7.78-6,19.29v15.22a31.82,31.82,0,0,0,6.36,19.77c2.34,3.11,5.71,4.66,10.08,4.66A12.38,12.38,0,0,0,135.66,294q6-7.78,6-19.29Z"/><path class="cls-4" d="M238.8,259.52v15.22A47.83,47.83,0,0,1,231,300.66q-7.81,12.39-22.36,12.39a25.84,25.84,0,0,1-14.18-3.69q-5.79-3.69-11-13.6a44.69,44.69,0,0,1-5.18-21V259.52a48,48,0,0,1,7.78-25.89q7.78-12.42,22.33-12.42a25.85,25.85,0,0,1,14.11,3.66q5.79,3.65,11,13.57A44.38,44.38,0,0,1,238.8,259.52Zm-13.94,0a32.16,32.16,0,0,0-6.3-19.76,12,12,0,0,0-10.08-4.67,12.47,12.47,0,0,0-10.29,5.14q-6,7.78-6,19.29v15.22a31.82,31.82,0,0,0,6.36,19.77q3.53,4.67,10.09,4.66A12.39,12.39,0,0,0,218.84,294q6-7.78,6-19.29Z"/><path class="cls-4" d="M322,259.52v15.22a47.81,47.81,0,0,1-7.81,25.92q-7.82,12.39-22.37,12.39a25.84,25.84,0,0,1-14.18-3.69q-5.79-3.69-11-13.6a44.81,44.81,0,0,1-5.18-21V259.52a48,48,0,0,1,7.78-25.89q7.78-12.42,22.34-12.42a25.88,25.88,0,0,1,14.11,3.66q5.78,3.65,11,13.57A44.49,44.49,0,0,1,322,259.52Zm-13.94,0a32.22,32.22,0,0,0-6.29-19.76q-3.58-4.68-10.09-4.67a12.44,12.44,0,0,0-10.28,5.14q-6,7.78-6,19.29v15.22a31.77,31.77,0,0,0,6.37,19.77q3.51,4.67,10.08,4.66A12.38,12.38,0,0,0,302,294q6-7.78,6-19.29Z"/><path class="cls-4" d="M405.15,259.52v15.22a47.83,47.83,0,0,1-7.82,25.92q-7.81,12.39-22.37,12.39a25.81,25.81,0,0,1-14.17-3.69q-5.79-3.69-11-13.6a44.81,44.81,0,0,1-5.18-21V259.52a48.06,48.06,0,0,1,7.79-25.89q7.77-12.42,22.33-12.42a25.88,25.88,0,0,1,14.11,3.66q5.79,3.65,11,13.57A44.38,44.38,0,0,1,405.15,259.52Zm-13.94,0a32.16,32.16,0,0,0-6.3-19.76,12,12,0,0,0-10.08-4.67,12.44,12.44,0,0,0-10.29,5.14q-6,7.78-6,19.29v15.22a31.82,31.82,0,0,0,6.36,19.77c2.34,3.11,5.71,4.66,10.08,4.66A12.38,12.38,0,0,0,385.18,294q6-7.78,6-19.29Z"/><path class="cls-4" d="M465.11,221.21v75.93h14c3.33,0,5.71.65,7.14,1.93a6.5,6.5,0,0,1,2.13,5.05,6.4,6.4,0,0,1-2.13,5c-1.43,1.28-3.81,1.93-7.14,1.93h-41.9c-3.33,0-5.71-.65-7.14-1.93a6.49,6.49,0,0,1-2.13-5,6.42,6.42,0,0,1,2.13-5c1.43-1.28,3.81-1.93,7.14-1.93h14V239.28l-12.38,3.25a18.94,18.94,0,0,1-4.47.81,6,6,0,0,1-4.57-2.1,7.32,7.32,0,0,1-1.92-5.14,6.29,6.29,0,0,1,1.42-4.36c.94-1.06,2.93-2,5.95-2.81Z"/><path class="cls-4" d="M571.49,259.52v15.22a47.81,47.81,0,0,1-7.81,25.92q-7.83,12.39-22.37,12.39a25.84,25.84,0,0,1-14.18-3.69q-5.79-3.69-11-13.6a44.81,44.81,0,0,1-5.18-21V259.52a48,48,0,0,1,7.78-25.89q7.79-12.42,22.34-12.42a25.88,25.88,0,0,1,14.11,3.66q5.78,3.65,11,13.57A44.49,44.49,0,0,1,571.49,259.52Zm-13.94,0a32.22,32.22,0,0,0-6.29-19.76,12,12,0,0,0-10.09-4.67,12.44,12.44,0,0,0-10.28,5.14q-6,7.78-6,19.29v15.22a31.77,31.77,0,0,0,6.37,19.77q3.51,4.67,10.08,4.66A12.38,12.38,0,0,0,551.53,294q6-7.78,6-19.29Z"/><path class="cls-4" d="M631.45,221.21v75.93h14c3.34,0,5.72.65,7.14,1.93a6.5,6.5,0,0,1,2.13,5.05,6.4,6.4,0,0,1-2.13,5c-1.42,1.28-3.8,1.93-7.14,1.93H603.57c-3.34,0-5.72-.65-7.14-1.93a6.49,6.49,0,0,1-2.13-5,6.42,6.42,0,0,1,2.13-5c1.42-1.28,3.8-1.93,7.14-1.93h14V239.28l-12.39,3.25a18.79,18.79,0,0,1-4.46.81,6,6,0,0,1-4.57-2.1,7.28,7.28,0,0,1-1.93-5.14,6.34,6.34,0,0,1,1.42-4.36c1-1.06,2.93-2,6-2.81Z"/><path class="cls-4" d="M737.84,259.52v15.22A47.83,47.83,0,0,1,730,300.66q-7.82,12.39-22.36,12.39a25.82,25.82,0,0,1-14.18-3.69q-5.79-3.69-11-13.6a44.8,44.8,0,0,1-5.17-21V259.52a48,48,0,0,1,7.78-25.89q7.78-12.42,22.33-12.42a25.85,25.85,0,0,1,14.11,3.66q5.79,3.65,11,13.57A44.38,44.38,0,0,1,737.84,259.52Zm-13.94,0a32.16,32.16,0,0,0-6.3-19.76,12,12,0,0,0-10.08-4.67,12.44,12.44,0,0,0-10.29,5.14q-6,7.78-6,19.29v15.22a31.82,31.82,0,0,0,6.36,19.77q3.52,4.67,10.09,4.66A12.36,12.36,0,0,0,717.87,294q6-7.78,6-19.29Z"/><path class="cls-4" d="M797.8,221.21v75.93h14c3.34,0,5.72.65,7.14,1.93a6.5,6.5,0,0,1,2.13,5.05,6.4,6.4,0,0,1-2.13,5c-1.42,1.28-3.8,1.93-7.14,1.93H769.92c-3.34,0-5.72-.65-7.14-1.93a6.5,6.5,0,0,1-2.14-5,6.43,6.43,0,0,1,2.14-5c1.42-1.28,3.8-1.93,7.14-1.93h14V239.28l-12.38,3.25a18.85,18.85,0,0,1-4.47.81,6,6,0,0,1-4.56-2.1,7.28,7.28,0,0,1-1.93-5.14,6.29,6.29,0,0,1,1.42-4.36q1.43-1.59,6-2.81Z"/><path class="cls-4" d="M72.45,386.57v15.22a47.81,47.81,0,0,1-7.81,25.92Q56.83,440.1,42.27,440.1a25.84,25.84,0,0,1-14.18-3.69q-5.79-3.69-11-13.6a44.81,44.81,0,0,1-5.18-21V386.57a48,48,0,0,1,7.78-25.89q7.79-12.42,22.34-12.42a25.88,25.88,0,0,1,14.11,3.66q5.77,3.65,11,13.57A44.49,44.49,0,0,1,72.45,386.57Zm-13.94,0a32.22,32.22,0,0,0-6.29-19.76q-3.59-4.68-10.09-4.67a12.44,12.44,0,0,0-10.28,5.14q-6,7.79-6,19.29v15.22a31.72,31.72,0,0,0,6.37,19.76q3.51,4.68,10.08,4.67a12.38,12.38,0,0,0,10.22-5.14q6-7.79,6-19.29Z"/><path class="cls-4" d="M132.41,348.26v75.93h14c3.34,0,5.72.65,7.14,1.93a6.49,6.49,0,0,1,2.13,5,6.42,6.42,0,0,1-2.13,5c-1.42,1.28-3.8,1.93-7.14,1.93H104.53c-3.34,0-5.72-.65-7.14-1.93a6.49,6.49,0,0,1-2.13-5,6.42,6.42,0,0,1,2.13-5c1.42-1.28,3.8-1.93,7.14-1.93h14V366.33l-12.38,3.25a18.94,18.94,0,0,1-4.47.81,6,6,0,0,1-4.57-2.1,7.32,7.32,0,0,1-1.93-5.14,6.34,6.34,0,0,1,1.42-4.36q1.42-1.59,6-2.81Z"/><path class="cls-4" d="M215.59,348.26v75.93h14c3.33,0,5.71.65,7.14,1.93a6.49,6.49,0,0,1,2.13,5,6.42,6.42,0,0,1-2.13,5c-1.43,1.28-3.81,1.93-7.14,1.93H187.7c-3.33,0-5.71-.65-7.14-1.93a6.49,6.49,0,0,1-2.13-5,6.42,6.42,0,0,1,2.13-5c1.43-1.28,3.81-1.93,7.14-1.93h14V366.33l-12.38,3.25a18.94,18.94,0,0,1-4.47.81,6,6,0,0,1-4.57-2.1,7.32,7.32,0,0,1-1.92-5.14,6.29,6.29,0,0,1,1.42-4.36c.94-1.06,2.93-2,6-2.81Z"/><path class="cls-4" d="M322,386.57v15.22a47.81,47.81,0,0,1-7.81,25.92q-7.82,12.39-22.37,12.39a25.84,25.84,0,0,1-14.18-3.69q-5.79-3.69-11-13.6a44.81,44.81,0,0,1-5.18-21V386.57a48,48,0,0,1,7.78-25.89q7.78-12.42,22.34-12.42a25.88,25.88,0,0,1,14.11,3.66q5.78,3.65,11,13.57A44.49,44.49,0,0,1,322,386.57Zm-13.94,0a32.22,32.22,0,0,0-6.29-19.76q-3.58-4.68-10.09-4.67a12.44,12.44,0,0,0-10.28,5.14q-6,7.79-6,19.29v15.22a31.72,31.72,0,0,0,6.37,19.76q3.51,4.68,10.08,4.67A12.38,12.38,0,0,0,302,421.08q6-7.79,6-19.29Z"/><path class="cls-4" d="M381.93,348.26v75.93h14c3.34,0,5.72.65,7.14,1.93a6.49,6.49,0,0,1,2.13,5,6.42,6.42,0,0,1-2.13,5c-1.42,1.28-3.8,1.93-7.14,1.93H354.05c-3.34,0-5.72-.65-7.14-1.93a6.49,6.49,0,0,1-2.13-5,6.42,6.42,0,0,1,2.13-5c1.42-1.28,3.8-1.93,7.14-1.93h14V366.33l-12.38,3.25a18.94,18.94,0,0,1-4.47.81,6,6,0,0,1-4.57-2.1,7.28,7.28,0,0,1-1.93-5.14,6.34,6.34,0,0,1,1.42-4.36q1.42-1.59,6-2.81Z"/><path class="cls-4" d="M488.32,386.57v15.22a47.83,47.83,0,0,1-7.82,25.92q-7.81,12.39-22.36,12.39A25.84,25.84,0,0,1,444,436.41q-5.79-3.69-11-13.6a44.69,44.69,0,0,1-5.18-21V386.57a48,48,0,0,1,7.78-25.89q7.78-12.42,22.33-12.42A25.85,25.85,0,0,1,472,351.92q5.79,3.65,11,13.57A44.49,44.49,0,0,1,488.32,386.57Zm-13.94,0a32.16,32.16,0,0,0-6.3-19.76A12,12,0,0,0,458,362.14a12.46,12.46,0,0,0-10.29,5.14q-6,7.79-6,19.29v15.22a31.77,31.77,0,0,0,6.36,19.76q3.52,4.68,10.09,4.67a12.39,12.39,0,0,0,10.22-5.14q6-7.79,6-19.29Z"/><path class="cls-4" d="M571.49,386.57v15.22a47.81,47.81,0,0,1-7.81,25.92q-7.83,12.39-22.37,12.39a25.84,25.84,0,0,1-14.18-3.69q-5.79-3.69-11-13.6a44.81,44.81,0,0,1-5.18-21V386.57a48,48,0,0,1,7.78-25.89q7.79-12.42,22.34-12.42a25.88,25.88,0,0,1,14.11,3.66q5.78,3.65,11,13.57A44.49,44.49,0,0,1,571.49,386.57Zm-13.94,0a32.22,32.22,0,0,0-6.29-19.76,12,12,0,0,0-10.09-4.67,12.44,12.44,0,0,0-10.28,5.14q-6,7.79-6,19.29v15.22a31.72,31.72,0,0,0,6.37,19.76q3.51,4.68,10.08,4.67a12.38,12.38,0,0,0,10.22-5.14q6-7.79,6-19.29Z"/><path class="cls-4" d="M631.45,348.26v75.93h14c3.34,0,5.72.65,7.14,1.93a6.49,6.49,0,0,1,2.13,5,6.42,6.42,0,0,1-2.13,5c-1.42,1.28-3.8,1.93-7.14,1.93H603.57c-3.34,0-5.72-.65-7.14-1.93a6.49,6.49,0,0,1-2.13-5,6.42,6.42,0,0,1,2.13-5c1.42-1.28,3.8-1.93,7.14-1.93h14V366.33l-12.39,3.25a18.79,18.79,0,0,1-4.46.81,6,6,0,0,1-4.57-2.1,7.28,7.28,0,0,1-1.93-5.14,6.34,6.34,0,0,1,1.42-4.36c1-1.06,2.93-2,6-2.81Z"/><path class="cls-4" d="M714.63,348.26v75.93h14c3.34,0,5.72.65,7.14,1.93a6.47,6.47,0,0,1,2.14,5,6.4,6.4,0,0,1-2.14,5c-1.42,1.28-3.8,1.93-7.14,1.93H686.74c-3.34,0-5.72-.65-7.14-1.93a6.49,6.49,0,0,1-2.13-5,6.42,6.42,0,0,1,2.13-5c1.42-1.28,3.8-1.93,7.14-1.93h14V366.33l-12.38,3.25a18.94,18.94,0,0,1-4.47.81,6,6,0,0,1-4.57-2.1,7.32,7.32,0,0,1-1.93-5.14,6.29,6.29,0,0,1,1.43-4.36c.94-1.06,2.93-2,5.95-2.81Z"/><path class="cls-4" d="M797.8,348.26v75.93h14c3.34,0,5.72.65,7.14,1.93a6.49,6.49,0,0,1,2.13,5,6.42,6.42,0,0,1-2.13,5c-1.42,1.28-3.8,1.93-7.14,1.93H769.92c-3.34,0-5.72-.65-7.14-1.93a6.5,6.5,0,0,1-2.14-5,6.43,6.43,0,0,1,2.14-5c1.42-1.28,3.8-1.93,7.14-1.93h14V366.33l-12.38,3.25a18.85,18.85,0,0,1-4.47.81,6,6,0,0,1-4.56-2.1,7.28,7.28,0,0,1-1.93-5.14,6.29,6.29,0,0,1,1.42-4.36q1.43-1.59,6-2.81Z"/><path class="cls-5" d="M869.22,386.49c0-241-195.35-436.35-436.34-436.35S-3.48,145.49-3.48,386.49,191.88,822.85,432.88,822.85,869.22,627.49,869.22,386.49Z"/><rect class="cls-5" x="72.6" y="101.04" width="720.56" height="720.55"/><path class="cls-6" d="M772.82,235.86a16.91,16.91,0,0,0,6.58-1.37,19.1,19.1,0,0,0,6.64,1.36c4.7,0,7.08-2.68,7.12-4.93a3.19,3.19,0,0,0-1.6-3,18.55,18.55,0,0,0-4.48-1.27c-3.66-.77-8.3-2.41-11.32-2.43a7.07,7.07,0,0,0-.91.06c-3.63.58-7.88.94-7.88.94a.94.94,0,0,0-.77.53c-.9-1.47-2.79-1.66-4.57-1.68-1.53,0-3.11.18-4.17.18a2.61,2.61,0,0,1-1.24-.28l1.38-1.32a12.47,12.47,0,0,0,4.32.82,9.11,9.11,0,0,0,4.92-1.36,13.9,13.9,0,0,0,2.6.24c5.59-.1,9.62-3.34,9.83-6.28a2.13,2.13,0,0,0-.87-1.73,3.39,3.39,0,0,0-2-.55c-12,0-16.59-1.3-19.57-1.3a4.93,4.93,0,0,0-3.08.88c-6.89,4.87-10.48,5.47-12.85,5.49-1,0-1.83-.11-2.72-.13a4.87,4.87,0,0,0-3.66,1.59c-1.69,1.71-5.62,4-9.05,5.8s-6.39,3.14-6.39,3.14a.87.87,0,0,0-.55.79,9.19,9.19,0,0,0-4.4-1,15.05,15.05,0,0,0-4.79.85c-5.68,1.86-5.41,1.79-14,1.83-8.37,0-18.12-.76-21.48-2.06-2.25-.79-6.87-1.1-13-1.11a210.14,210.14,0,0,0-22.46,1.28c-14.64,1.63-14.85.21-23.93,4.1a10.78,10.78,0,0,1-4.35,1c-4.47.09-8.77-3.43-17-4.36a71.58,71.58,0,0,0-7.46-.36c-2.43,0-4.9.11-7.35.3a8.46,8.46,0,0,0,2-1.37c1.27-1.32,5.08-2.79,9.74-4.49a91.37,91.37,0,0,0,15.52-7c10.28-6.14,12.55-7,17.66-7.07,3.17,0,12.65-3,23.12-7.18s21.38-9.34,26.81-14c10.25-8.88,21.12-12.9,24.57-16.24,1-1.11,4.72-2.17,8.23-3.32s7.11-2.6,8-6.05a1.15,1.15,0,0,0-.49-1.19l0-.1a10.3,10.3,0,0,0,4,.7,28.1,28.1,0,0,0,7.76-1.3,23.43,23.43,0,0,0,8.19-4.6c2-1.64,3.55-3.1,3.81-3.06,3.79-.88,5.73-1.64,6.93-2.44a4.21,4.21,0,0,0,1.4-1.52,2,2,0,0,0,.6.08c.82,0,1.49-.29,4.67-.57a12,12,0,0,0,7.21-2.91,2.22,2.22,0,0,0,1,.23c1.4,0,2.28-.74,4.7-1,5.41-.64,8.09-3.13,8.15-5.73a2.88,2.88,0,0,0-.14-.91,2.3,2.3,0,0,0-2.43-1.43,16.9,16.9,0,0,0-4.94,1.15c-2.28,0-5.24.3-8.09.6q.52-.37,1-.72a6.9,6.9,0,0,0,1.44.15c3.61-.05,7-2.32,8.2-3.18a4.06,4.06,0,0,0,.75.06c1.14,0,3-.35,6.55-1.7,2.92-1.09,4.13-2.87,4.11-4.55a5.51,5.51,0,0,0-1.52-3.49l-.46-.45-.57.23c-2,.81-5,.94-7.68,1s-5.07.06-6.57,1.36c-.48.54-2.93,1.22-5.08,1.46-.43.07-.85.1-1.24.15a4.92,4.92,0,0,0,.5-.7,16,16,0,0,0,9.52-3.77c.61,0,1.22.07,1.78.07,7.51,0,10.51-3.64,10.51-6.45a3.12,3.12,0,0,0-.13-1,3.06,3.06,0,0,0-.81-1.53,3.75,3.75,0,0,0-3.08-1c-.86,0-1.89.08-3.15.17-4.13.37-9.6,0-12.39,1.23-3.34,1.6-7.68,3.39-7.68,3.39a.81.81,0,0,0-.37.3,3.33,3.33,0,0,0-2-.6c-2.23,0-5,1.36-6.61,1.83a2.88,2.88,0,0,1-.86.12c-.14,0-.27,0-.4,0l.93-1.65c.32,0,.61,0,.92,0a9.86,9.86,0,0,0,7.79-3.21c6.45-.65,10.2-5.36,10.3-8.48a2.48,2.48,0,0,0-.59-1.69,2.34,2.34,0,0,0-1.75-.71,4.37,4.37,0,0,0-1.23.2,119.91,119.91,0,0,1-15.79,3.67c-3,.51-4.73.77-6,2.41-5.14,6.56-8.39,8.21-10.64,8.91s-4.31.45-5.8,3.23c-1.13,2.13-4.23,5.46-7,8.14s-5.25,4.83-5.25,4.85a1,1,0,0,0-.29.56,5.64,5.64,0,0,0-2.66-.56c-6.34.09-17.83,6.07-23.75,9.68-6.35,4-17.26,5.37-28.63,7.48-15.5,2.12-20.73,9.47-23.49,9.79-16.91,2.74-20,9-23.93,13C601,180,600,181,597.28,182.15s-7.18,2.13-15.64,3.66c-15.5,2.81-33.08,13.25-36.82,15.54-5.5-2.93-12-4-18.5-4a57.41,57.41,0,0,0-18.52,3.07c-4.7,1.73-8.36,3.74-10,6.41-12,.25-18.27,5.76-20.31,8a50.53,50.53,0,0,0-5.18-2.82,2.85,2.85,0,0,0,1.07-1.63,4,4,0,0,0-.85-3.38l-.83-.67-.38-.31c.17-.13.94.27,1.49.75,2.13,1.91,4.43,1.74,5.79.73,2.54-2-.17-4.4.28-6.74a4.61,4.61,0,0,1,.62-1.28c0-.08,1.6,2.1,1.76,2.22,2.49,2,5-2.35,5.91-4.19a12.31,12.31,0,0,0,1.05-2.24,11.06,11.06,0,0,1-1.53.66c-.63.3-1.79.77-2-.24a2.54,2.54,0,0,1,1.09-2.11c.91-.68,2.07-1,2.93-1.67,1.34-1.09,1.41-2.83,1.57-4.41a11.56,11.56,0,0,1,.3-3.07c.41-1.17,1.52-1.25,2.58-.93a2.67,2.67,0,0,0,1.58.58c1.42-.12,1.4-2,1.25-3.18,2.25-1,2.11-4.07,1.43-6.07a14.46,14.46,0,0,0-1-2.27,4.86,4.86,0,0,0-.35-.6,12.87,12.87,0,0,0,1.71-2.45,9.69,9.69,0,0,0,4.55-4.35c1-2.2,1.19-6.18-1.73-7-2.42-.71-5.53.81-7.63-1a4.13,4.13,0,0,1-1.13-2.5h.1a2.54,2.54,0,0,0,2.51-2.6,4.51,4.51,0,0,0-1-2.67c.07-.1.15-.2.21-.3l.22,0a.66.66,0,0,0,.62-.42,3.8,3.8,0,0,0,.27-1.41,3.27,3.27,0,0,0-3.11-3.45h0A1.74,1.74,0,0,1,490.4,142a6.85,6.85,0,0,0,3.14-4.9,7.84,7.84,0,0,0-1.58-5.73,5.24,5.24,0,0,0-2.36-1.72c-2.46-.88-4.17,1.49-6.23,2.41-3.13,1.38-3.92-.89-3.68-3.63.3-3.22,1.3-7.23-1-10-2.08-2.47-6-1.39-8-3.9a31,31,0,0,0-7.94-7.07,17.8,17.8,0,0,0-8-2.66,9.72,9.72,0,0,0-2.35.15,14.51,14.51,0,0,0-3.15,1.3,7.35,7.35,0,0,1-3.76.64,13.6,13.6,0,0,1-3.11-1,1.09,1.09,0,0,0-1-.25,5.86,5.86,0,0,0-3.74.6c-.09,0-.18.11-.27.15-.57-.18-1.13-.38-1.76-.54a2.26,2.26,0,0,0-1.34-.08.49.49,0,0,0-.21-.08,1,1,0,0,0-.63.1h0a1,1,0,0,0-.45.65,1,1,0,0,1-.45.64c-.19.07-.75.17-2-.64a4.76,4.76,0,0,0-3.39-.83,2.77,2.77,0,0,0-2.13,2.42c0-.23-1.68-1.28-1.89-1.42a7,7,0,0,0-2.24-1,6.27,6.27,0,0,0-4.81,1.09c-1.15.73-2.44.49-3.93.2-1.92-.36-4.3-.79-6.43,1.34a15.6,15.6,0,0,0-2.09,2.88l-1.63,2.37a13.16,13.16,0,0,1-4.71,2.82,15.39,15.39,0,0,0-5.17,3.14,8.8,8.8,0,0,0-2.29,8.49c-.13.38-.24.76-.38,1.13-.07.21-.13.43-.19.65a1.62,1.62,0,0,1-.57.61,4.83,4.83,0,0,1-3.19-.29,7.71,7.71,0,0,0-2.87-.46,7,7,0,0,0-5.17,4.29,5.61,5.61,0,0,0,.12,5.5c0,.09,0,.17,0,.26v.08c-1.85,1.4-4.85.91-4.86,4.16,0,.14,0,.3,0,.45a5.5,5.5,0,0,0-3,2.91c-.83,1.87-.57,4,1.83,6.4a5.34,5.34,0,0,1,1.19-4.31,12.46,12.46,0,0,0-.64,2.87,13.15,13.15,0,0,0,.22,3.88,0,0,0,0,1,0,0,10.34,10.34,0,0,0,.35,4.24,6.16,6.16,0,0,0,.87,1.83c.46.62,2.55,2,1.1,2.91-.24.14-1,.05-2.2-.74-2.86-1.83-4.84-1-5.73.36a3.51,3.51,0,0,0,.81,4.75c.7.47.7.49,0,1.61l-.91,1.86c-.69,2.4.72,5,3.36,6.15l2.85,1.26c-.66-.28-1.06-1.61-1.39-2.22a4.37,4.37,0,0,1-1-2.64l.26.23.22.13.18.49c0,.08.78,1.77,3.66,1.9a.76.76,0,0,1,.55.5c0,.53-1.1,1.81-2.78,2.15a1.9,1.9,0,0,0-1.63,1.65,2.28,2.28,0,0,0,1.46,2.27,2.81,2.81,0,0,0,1.91.08A5.52,5.52,0,0,0,376.8,183c1-1.17,1.58-1.25,1.73-1.17s.23.32.15.68c-.15,1-1.22,2-3.27,2.24l-1.18.12.7.93a3.67,3.67,0,0,0,4.27.82,2.18,2.18,0,0,0,1.43.94,2.14,2.14,0,0,0,1.07-.3,1.31,1.31,0,0,1-.33.61A2.77,2.77,0,0,1,379,188a3.2,3.2,0,0,0-3.53.87,2.43,2.43,0,0,0-.11,2.72c.37.66,1.66,2.05,5.07,1.62a2.31,2.31,0,0,0,.34.56c.41.48.85.43.91-.21a.48.48,0,0,0,0-.12,1.6,1.6,0,0,1,.58.68,1.42,1.42,0,0,1-.19,1.55c-.49.54-1.47.64-2.7.24l-2.51-.79,1.84,1.88c.11.12,2.7,2.76,5.34,2.34a4,4,0,0,0,2.75-2h1.47a5.5,5.5,0,0,0,1.15,2.92c-.12.08-.24.13-.36.21a5.69,5.69,0,0,0-2,4.67c-.08,3.19,4.89,4.89,6.82,2.27l.07-.57-.46-.32c-.45-.32-.67-.72-.54-1s1.36-1.25,3.31-.38c4.05,1.81,6.52.19,7.58-1.16q.68-.16,1.38-.27a10.61,10.61,0,0,1-4.13,4.91,1,1,0,0,0-.46-.1,33.65,33.65,0,0,0-13.85,3.25c-6.44-8.19-19.34-8.47-21.93-8.55a36.17,36.17,0,0,0-20-5.52,55.71,55.71,0,0,0-18.41,3.28,59,59,0,0,0-5.32-3.46,83.86,83.86,0,0,0-22.26-8.68c-3.87-.89-7.6-2.33-11.64-3.33-5-1.17-9.34-.12-13.35-1.62a28.74,28.74,0,0,1-10.17-6.94c-8-7.91-24-13.64-26.42-14.51-4.34-4-13.28-6.28-21.44-7.9s-15.57-2.29-15.61-2.29-2.27-.3-5.32-1a35.27,35.27,0,0,1-9.54-3.55c-6.27-3.71-10.06-3.11-14.3-5.5a63.2,63.2,0,0,0-6.6-3.37A1.38,1.38,0,0,0,163,139a.94.94,0,0,0-.3-1s-2.51-2.09-5.31-4.79-5.91-6-7-8.11a11.27,11.27,0,0,0-6.16-5.81,36.11,36.11,0,0,1-9.95-6.28c-1.92-1.66-4.15-4.44-8.54-4.44-.21,0-.42,0-.63,0H125l-.07,0c-2.48.61-8,.91-13.34,1.6a1.9,1.9,0,0,0-1,.38c-.14.14-.17.18-.19.18a9.3,9.3,0,0,1-2.53.32,2.77,2.77,0,0,0-2.86,2.65,4.23,4.23,0,0,0,.75,2.15c-1.49-.37-3.11-.71-5-1-2.15-.35-3.51-.91-4.89-.93a3.31,3.31,0,0,0-3,2.21,3.43,3.43,0,0,0-.34,1.52c.06,3,3.13,6.5,11.47,7.74a26.72,26.72,0,0,0,2.64,2,15.92,15.92,0,0,0,6.55,2.17,6.15,6.15,0,0,0,.77,1c-.56-.07-1.21-.13-1.87-.22-2.13-.25-4.58-.88-5.07-1.45-1.51-1.28-3.86-1.17-6.58-1.32s-5.64-.2-7.68-1l-.59-.21-.43.44a5.57,5.57,0,0,0-1.51,3.49c0,1.68,1.18,3.45,4.13,4.54,3.51,1.34,5.39,1.69,6.52,1.69a4.5,4.5,0,0,0,.8-.08c1.17.84,4.56,3.09,8.17,3.12a6.72,6.72,0,0,0,1.47-.14,7.72,7.72,0,0,0,1,.71c-2.85-.28-5.81-.52-8.08-.54a16.47,16.47,0,0,0-4.93-1.14,2.33,2.33,0,0,0-2.46,1.43,3,3,0,0,0-.13.91c.06,2.6,2.73,5.07,8.18,5.7,2.4.27,3.3.93,4.69,1a2.45,2.45,0,0,0,1-.25,11.93,11.93,0,0,0,7.22,2.87c3.19.28,3.85.53,4.67.55a2.3,2.3,0,0,0,.6-.07,4.4,4.4,0,0,0,1.43,1.5c1.19.82,3.13,1.54,6.94,2.42a27.24,27.24,0,0,1,3.81,3.05,23.57,23.57,0,0,0,8.22,4.54,27.75,27.75,0,0,0,7.68,1.27,11.69,11.69,0,0,0,3-.34,1,1,0,0,0,0,.64c1.74,3.63,8.4,7,15.35,10.48s14.18,6.43,16.29,8.07a.94.94,0,0,0,.57.2.83.83,0,0,0,.21-.06c5.48,3.63,26.55,19,48.31,22.6,2.87.36,6.72,4.68,12.26,5.67,4.79.77,10.75,3.89,14.38,5.35,3.41,1.32,18.13,9.81,26.95,9.86,4,0,8.52,1.9,12.89,4a62.62,62.62,0,0,0-13.81-1.67,51.71,51.71,0,0,0-11.8,1.37c-10.06,2.34-14.95,3.09-18.14,3.09a18.88,18.88,0,0,1-4.47-.54c-3.78-.79-4.18-2.66-15.44-4.57a29.35,29.35,0,0,0-4.85-.45,16.71,16.71,0,0,0-6.58,1.32,11.67,11.67,0,0,1-4.85,1.17,13.78,13.78,0,0,1-2-.15,145.18,145.18,0,0,0-20.26-1.63,74.62,74.62,0,0,0-17.09,1.8,36.08,36.08,0,0,1-8.45,1.16c-4.13,0-6.25-1.16-10.32-1.18-3.26,0-4.71-.9-7.17-1a11,11,0,0,0-5.22,1.61c-1.27-.49-4.36-1.71-7.73-3.21-4.39-1.93-9.32-4.43-10.94-6.08a4.76,4.76,0,0,0-3.68-1.57c-.87,0-1.7.11-2.72.11-2.35,0-5.94-.62-12.83-5.49a5,5,0,0,0-3.09-.89c-3,0-7.55,1.31-19.56,1.31a3.28,3.28,0,0,0-2.07.57,2,2,0,0,0-.85,1.72c.18,2.92,4.22,6.17,9.81,6.27a15.11,15.11,0,0,0,2.62-.24,9,9,0,0,0,4.92,1.35,12.6,12.6,0,0,0,4.32-.81l1.37,1.32a3,3,0,0,1-1.24.28c-1.06,0-2.63-.18-4.17-.18-1.77,0-3.68.2-4.58,1.68a.92.92,0,0,0-.76-.53l-2.58-.25c-1.51-.17-3.48-.41-5.3-.7a7,7,0,0,0-.92-.05c-3,0-7.64,1.65-11.3,2.43a17.49,17.49,0,0,0-4.48,1.28,3.14,3.14,0,0,0-1.6,3c0,2.25,2.39,4.92,7.12,4.94a19.41,19.41,0,0,0,6.63-1.37,17.61,17.61,0,0,0,6.59,1.4,13.35,13.35,0,0,0,3.61-.5,5.8,5.8,0,0,0,.69.53,29.19,29.19,0,0,1-4.66.53,4.74,4.74,0,0,1-1.87-.28,4,4,0,0,0-1.69-.36c-3.18.05-8.14,2.18-11.91,2.17-.27,0-.51,0-.76,0l-.6-.06-.28.55a5.9,5.9,0,0,0-.63,2.58c-.13,1.87,1.43,4.18,5.39,4.38,1.28.12,2.35.15,3.24.15a9.41,9.41,0,0,0,4.22-.66,19,19,0,0,0,5.89,1.09,8.84,8.84,0,0,0,4.22-.94,7,7,0,0,0,1.12.41c-2.82.53-5.72,1.14-7.9,1.75-.31,0-.95-.07-1.72-.07a14.55,14.55,0,0,0-3.1.31c-.86.22-2,.68-2.18,2a.47.47,0,0,0,0,.16c0,2.4,2.51,4.34,6.66,4.34a17,17,0,0,0,2.94-.27,13.87,13.87,0,0,1,2.7-.23h.68a3.21,3.21,0,0,0,2.33-.65,11,11,0,0,0,4.81,1,14,14,0,0,0,2.94-.33c2.49-.49,3.49-.56,4.15-.68a2.13,2.13,0,0,0,1-.34c.85.78,2.37,1.63,6.07,1.51.87,0,1.88,0,3.08-.09v0h0a35,35,0,0,1,4.55,1.89,23.53,23.53,0,0,0,9.07,2c6.07-.08,10.83-1.24,12.58-4.06a1,1,0,0,0,.11-.46H149a1.44,1.44,0,0,0,.86,1.3c.05,0,2,.91,4.93,1.81A36.8,36.8,0,0,0,165,258.75a15.78,15.78,0,0,0,3.17-.3,10.77,10.77,0,0,1,2.16-.21c6-.05,14.09,4.32,21.49,5.11,6.12.53,14.71,6.14,25.32,6.19a28.26,28.26,0,0,0,5.57-.55c6.81-1.38,10.11-1.88,12.68-1.88a39.67,39.67,0,0,1,7.25.94,18,18,0,0,0,3,.28c5.56-.09,7.84-2.83,11-2.7s12.22,1.53,21.1,1.53a47.52,47.52,0,0,0,10.17-.92,28.3,28.3,0,0,1,5.66-.91,4.64,4.64,0,0,1,2.83,1,24,24,0,0,0,6.46,2.66c3.95,1.07,9.29,1.43,14.89,1.43a151.71,151.71,0,0,0,22.36-1.7,14.66,14.66,0,0,1,2.74-.26c5.42,0,8,3.24,11.85,9.42.49,3.14.09,8.67,7.32,17.66,3.44,4.38,3.89,7.34,4.09,10.55s0,6.75,2.21,11.08c3.77,7,.26,17.38,12.11,38.3C379,359,372.32,377,372.27,384.83a8.44,8.44,0,0,0,.11,1.52c.06.34.11.68.17,1,.14.68.26,1.32.42,1.89a18.1,18.1,0,0,0,1.87,5c-1.85,2-5.28,7.28-8.11,21.46-.74,3.66-1.4,6.67-2,9.15a56.79,56.79,0,0,0-2.11,7.47,35.06,35.06,0,0,1-3.12,6.59c-1.35,2.55-15,26.11-19.68,32-2.78,3.57-4.4,10.27-6.07,17.06s-3.28,13.6-5.18,16.57c-4,6.52-11.08,26.17-11.14,38.44a26.38,26.38,0,0,0,.17,3c-.88,1.34-3.43,5.2-3.68,8.49a30.87,30.87,0,0,1-1.67,3.21,15.14,15.14,0,0,1-4.57,5l-.15.1-.14.11c0,.13-10.16,9.82-12.09,18-2.88,3.25-30.83,34.86-35.75,43-5,8.32-9.8,18.16-14.07,34.32-4.16,15.76-8.94,21.08-11.58,37.85-1.29,8.25-2.54,15.05-3.6,19.93-.51,2.43-1,4.35-1.37,5.71a15.56,15.56,0,0,1-.5,1.56c-.07.19-.13.31-.16.38h0a40.38,40.38,0,0,0-3.59,5.95,35.06,35.06,0,0,0-3.34,8.11c-.18,1-.6,1.07-2.22,1.61-1.44.43-3.72,1-5,3.29-1.11,2-2.31,2.65-3.63,2.67a4.55,4.55,0,0,1-2.29-.71,4.21,4.21,0,0,0-2-.47,12.62,12.62,0,0,0-6.28,2.19c-1.95,1.31-3.75,3-3.86,5.39a4.51,4.51,0,0,0,2.36,3.69c5.93,3.73,23.83,14.77,36.56,21a7.21,7.21,0,0,0,3.45,1h.2a4.76,4.76,0,0,0,4.35-4c.12-1.2,2.45-2.63,2.65-5.69a2.32,2.32,0,0,0-.05-.59,6.16,6.16,0,0,1,0-.7c0-.94.16-2.26.16-3.51a7.72,7.72,0,0,0-.23-2,4.13,4.13,0,0,1-.07-.49c-.06-.94,1-2.4,2.15-3.87a4.83,4.83,0,0,0,.92-2.85c0-.44,0-.81,0-1.12a4.36,4.36,0,0,1,.58-2.21c1.41-2.93,4.41-7,4.37-15,0-7.32,2.57-15.58,10.34-26.17a181.86,181.86,0,0,0,16-26.73,54.09,54.09,0,0,0,13-17.1c.45-1.09,1.49-1.85,3.32-4.74s4.28-7.84,7.88-17.84c3.51-9.74,3.64-12.35,6.74-16.62a41.78,41.78,0,0,0,6.68-13.05,15.87,15.87,0,0,1,3.37-3.66c6.28-5.77,18.39-14.56,21.22-20.49l.31-.68-.12-.18a10.16,10.16,0,0,1,2-2.47,6.41,6.41,0,0,0,2-3.36c.21-.57.87-1.84,4.32-5.3,6.2-6.26,11.32-18.51,14.73-26.09.09,1.08.17,2.13.27,3.17,1.16,12.19,2.71,23.16,6,28.62.06,3.24.57,7.28,2.32,10.26,0,0,0,0,.06.25a5.26,5.26,0,0,1,.05.89c.06,6.44-6,28-6.05,40.84,0,4.65-.06,7.62-.23,9.83-.33,4.58-1.21,5.92-3.28,11.9A100.15,100.15,0,0,0,359,688.88a94.5,94.5,0,0,0,8.05,38.43c.4,2.58,4.46,27.62,20.9,48.45a20.62,20.62,0,0,1,.91,2.5,24.18,24.18,0,0,1,1,6.65,18.17,18.17,0,0,1-.55,4.6,26.78,26.78,0,0,0-1,6.14,6.86,6.86,0,0,0,1.32,4.32c-1.09.57-3.41,1.55-4.32,4.13a9.08,9.08,0,0,0-.41,2.86c.11,3.12.92,6.45,2.89,8.24a6.24,6.24,0,0,0-.08,1.13,5.66,5.66,0,0,0,4.81,5.92,7.64,7.64,0,0,0,5.55,2.26,7.39,7.39,0,0,0,5.92,2.84h8.92c.83.77,2.66,1.88,5.92,1.88h.25l.12,0a15.75,15.75,0,0,0,2.75-.79,7.56,7.56,0,0,0,2.52-1.55,8.37,8.37,0,0,0,5,1.53,5,5,0,0,1,2,.34,6,6,0,0,0,2.11.49,9.38,9.38,0,0,0,4-1.19,4.92,4.92,0,0,0,2.9-4.75,2.09,2.09,0,0,0,0-.25,13.25,13.25,0,0,0-.36-2.48A12.7,12.7,0,0,0,441.9,823a11.75,11.75,0,0,0,4.11,2.75c3.3,1.36,7,1.46,10.54,1.46,6-.2,8.48-4.72,17.35-4.65a30,30,0,0,1,3,.15c11.58,1.11,13.84,4.47,25.44,4.5,5.68,0,8.27-.44,9.93-1.33a4.83,4.83,0,0,0,1.5-1.36,5.86,5.86,0,0,0,3.4,1.05,8.45,8.45,0,0,0,3.49-.82,5,5,0,0,0,1.51-1.26,7.66,7.66,0,0,0,5,1.6,13.33,13.33,0,0,0,2.47-.25,28.6,28.6,0,0,0,5.28-1.44,8.21,8.21,0,0,0,3,.65,3.52,3.52,0,0,0,1.7-.38,3.64,3.64,0,0,0,2.19-3.11,5,5,0,0,0-1.15-2.83,7.54,7.54,0,0,0,.18-1.6,9.38,9.38,0,0,0-.34-2.45,7.44,7.44,0,0,0-1.27-3l-.1-.12h0a2.84,2.84,0,0,0-2.2-1c-2.13.16-3.55,1.42-5.51,1.36a4.52,4.52,0,0,1-1.56-.25,12.66,12.66,0,0,0-3.6-.66c-1.84,0-2.49.63-2.87.54a2.77,2.77,0,0,1-1-.21c-3.67-1.19-8.25-.33-13.9-3.25-1.53-.68-3-.37-4.59-.57a7,7,0,0,1-4.62-2c-3.54-3.47-8.11-4.14-11.26-6.46-1.05-.71-2.19-2-4-2.65-4.09-1.38-6.86-4.4-9.05-8.3a41.43,41.43,0,0,1-2-4.37,62.74,62.74,0,0,1-2.67-9.37,127.78,127.78,0,0,1-2.72-27.25c0-2.44.06-5,.18-7.64.39-8,.54-15.26.54-21.88,0-29.25-3-45.9-3-54a16,16,0,0,1,.32-3.58,34.85,34.85,0,0,1,2.16-6.48,9.93,9.93,0,0,0,.95-4.79,9.29,9.29,0,0,1,1.49-4.76,11.14,11.14,0,0,0,1.81-5.57c-.26-2.86,4.31-6.18,4.39-13.68,0-5.07-1.46-8.28-1.44-12.54a23.44,23.44,0,0,1,1.09-6.89,30.33,30.33,0,0,0,.91-5.18c.2-1.24.63-2.67,2.58-6,4-7,4.79-18.78,8.43-30.66,2.15,4.16,3.36,8.24,6.33,12.43a13.89,13.89,0,0,1,2.88,6.47c.33,1.74,1,3.76,3.69,6.51.11,2.38,1.32,11,11.43,23.64.64,2.47,5,19.25,10,28.08,4.85,8.09-.77,24.77,17.2,42.77a52,52,0,0,0,10.42,8.07c0,4,1.71,19.86,23.35,39.58,24.2,22.26,20.14,36.86,24.18,46,2.37,5.18,6.71,10.16,12.83,10.24.24,0,.5,0,.75,0h0a15.14,15.14,0,0,0,8.35-3.77,30.65,30.65,0,0,0,3.74-3.74C628,773,631.1,772,633.44,772c1.77,0,3.28.68,5.09.94a6.59,6.59,0,0,0,1.12.14,4.84,4.84,0,0,0,2.34-.59c4.24-2.3,22.87-13.07,29-17a10.58,10.58,0,0,0,4-4,7.76,7.76,0,0,0,.92-3.53,8.2,8.2,0,0,0-.59-3c-1-2.75-2.82-4.11-4.6-4.07a4.76,4.76,0,0,0-1.75.38c0-.08-.06-.14-.09-.19a4.43,4.43,0,0,0-4-2.41,6.11,6.11,0,0,0-2,.33,2.46,2.46,0,0,0-1.32-.32c-1.24,0-3,.47-6.41,1.87a7.94,7.94,0,0,1-3.08.81c-.32,0-.67-.06-1.26-.06-1.33,0-2.89.44-6.26,2.34-.64.07-1.08.13-1.34.17a1.83,1.83,0,0,1-.34,0c-.49-.08-1.85-.34-10.28-.41h-.21l-.2.05a2.78,2.78,0,0,1-.55.11,9.24,9.24,0,0,1-1.76.15c-3.45-.05-10.12-1.35-16-12.14-8.51-15.72-23.43-69.84-35.88-90a202.82,202.82,0,0,0-14.58-20.36c-3.41-4.45-5-7.07-5-10.66a14,14,0,0,0-.52-4.47,8.48,8.48,0,0,0-1.83-2.54c-.37-.52-.91-1.66-1.13-5.17a10.91,10.91,0,0,0-1.7-5.29c-.57-1.07-1.07-2.14-1.1-5.63-.09-8-5.94-12.09-7.3-16.64l-.07-.17-.1-.15s-.22-.36-.61-1.13a36.86,36.86,0,0,1-3.71-16.66,44.67,44.67,0,0,1,.31-5.16,42.33,42.33,0,0,0,.26-4.42c0-13-6.73-22.8-7.5-27.15a178.91,178.91,0,0,0-9-29.64,34.72,34.72,0,0,0-7.86-12c-2.43-2.55-4.25-4.44-5.61-9.22-1.49-5.32-3.75-7-5.22-9.54s-2.85-6.43-3.06-17.13c-.18-10.28-2.54-15.87-5-20.39s-4.66-7.84-5.26-14.44c0-.12-.33-2.08-.83-4.29a23.21,23.21,0,0,0-1.55-4.77,13.15,13.15,0,0,0,2.91-5.3,18.16,18.16,0,0,0,.44-1.89,22.6,22.6,0,0,0,.44-4.69,26,26,0,0,0-1.6-9.72,38.78,38.78,0,0,1-2.34-9.31c-.61-4.76-1-7.12-1.57-8.61a3.36,3.36,0,0,0-.7-1.18c2.15-2.38,6-7.15,6.06-12,0-5.23,1.82-7.42,3.15-16.83.76-5,1.47-5.32,2.54-7s2.32-4.18,3-11.43,1.26-8.73,2-10.09a35.22,35.22,0,0,0,4-9.45,80.14,80.14,0,0,0,8.2-14.33c.87-1.21,2.85-2.08,5.31-3s5.48-2.08,7.88-4.48a4.8,4.8,0,0,1,.85-.69c.13-.11.17-.11.17-.11h0a4.12,4.12,0,0,1,.92.45c1.92,1.15,5.87,3.6,15.49,3.56,1.74,0,3.66-.09,5.79-.25a98.28,98.28,0,0,0,11.3-1.29c1.69-.4,1.6-.52,2-.48.83,0,3.47.33,12.88,1.16,4.06.35,7.43.49,10.27.49a43.83,43.83,0,0,0,12.1-1.36c2.56-.72,3.68-1.46,4.46-1.35a1.62,1.62,0,0,1,.56.07c4.21.9,2.87.29,9.5,1.92a37,37,0,0,0,9.46.9,38.31,38.31,0,0,1,9.25.83,33.64,33.64,0,0,0,6.71.53c11.5,0,31.5-2.9,45-8.78a7.84,7.84,0,0,1,2.72-.27l3.47,0a50.64,50.64,0,0,0,10.75-1c4.39-.93,7.33-1.09,9.62-1.46s4.2-1.05,5.3-3.15a1.34,1.34,0,0,0,.13-.78c2,2.46,6.48,3.52,12.19,3.58a23.41,23.41,0,0,0,9.07-2,29.29,29.29,0,0,1,4.58-1.88c1.21.05,2.23.09,3.12.09,3.7.12,5.22-.74,6-1.51a2.37,2.37,0,0,0,1,.34c.66.11,1.66.18,4.15.68a14.26,14.26,0,0,0,2.92.3,10.93,10.93,0,0,0,4.81-1,3.26,3.26,0,0,0,2.36.65h.68a14.07,14.07,0,0,1,2.7.24,16.63,16.63,0,0,0,2.93.26c3.58,0,5.91-1.45,6.52-3.39h.13v-.95c-.06-1.41-1.28-1.9-2.21-2.12a13.18,13.18,0,0,0-3.09-.31c-.76,0-1.4,0-1.7.06-2.18-.61-5.11-1.21-7.92-1.74a9.42,9.42,0,0,0,1.14-.41,8.68,8.68,0,0,0,4.21.92,18.89,18.89,0,0,0,5.89-1.07,9.32,9.32,0,0,0,4.21.65c.9,0,2,0,3.24-.14,4-.21,5.52-2.52,5.41-4.39a5.72,5.72,0,0,0-.64-2.57l-.28-.55-.62,0c-.25,0-.49,0-.74,0-3.76,0-8.75-2.13-11.9-2.17a3.61,3.61,0,0,0-1.71.36,4.24,4.24,0,0,1-1.85.26,23.62,23.62,0,0,1-4.66-.53,5,5,0,0,0,.68-.5A13.67,13.67,0,0,0,772.82,235.86Z"/><path class="cls-6" d="M432.88,808.39a5.53,5.53,0,0,1-1.72-1,18.15,18.15,0,0,0-2.59-2c-.33-.32-.71-.82-1.2-3a11.5,11.5,0,0,0-2.52-4.73,5.71,5.71,0,0,1-1.35-4,15.2,15.2,0,0,1,.15-2.1,7.82,7.82,0,0,0,.2-1.93,14.65,14.65,0,0,0-4.6-10.37c-4.58-4.57-7.8-12.56-7.8-23.91,0-1,0-2,.09-3.08.08-1.63.12-3.14.12-4.56,0-14.4-3.81-18.61-3.72-24.68a21.19,21.19,0,0,1,.6-4.81,85.9,85.9,0,0,0,1.78-17.86,77.65,77.65,0,0,0-1.76-16.85c-1.17-5.19-2.75-10.18-4.17-15.2a22.75,22.75,0,0,1-.84-6.11,29.57,29.57,0,0,1,1.3-8.27c.57-2,1.24-4.05,1.78-6.19.25-.92.48-1.86.65-2.82a21.4,21.4,0,0,0,.34-2.29,17.79,17.79,0,0,1,1.75-4c.87-1.79,1.84-3.67,1.87-5.65a4.18,4.18,0,0,0-.36-1.74,16.06,16.06,0,0,0,2.34-8.26,18.81,18.81,0,0,0-.11-1.95c1-.79,2.39-2.44,3.43-5.87a9.47,9.47,0,0,0,.45-2.84,7.26,7.26,0,0,0-.26-2A49.63,49.63,0,0,0,420.49,591a51.29,51.29,0,0,0-1.32-11.57,37.2,37.2,0,0,1-1-8.61c0-10.61,3.84-21.29,6.85-29.25-.14,2.52-.24,5.24-.24,8,0,6.77.55,13.52,2.81,17.62a21,21,0,0,1,2.3,10.44A81.93,81.93,0,0,1,428.84,589c-.78,5.54-2.07,11.34-2.09,17.22a29.67,29.67,0,0,0,1.17,8.6,15.33,15.33,0,0,1,.56,4.19,31,31,0,0,1-1.28,7.95c-.95,3.67-2.79,7.72-3,12a4.61,4.61,0,0,0,0,.53c0,2,.38,3.62.38,5.21v.15a8.71,8.71,0,0,1-.16,1.57c-.07.41-.14.84-.22,1.25-2.72,15-7.19,30-7.2,45.48a65.46,65.46,0,0,0,2.41,18.11,43.83,43.83,0,0,0,7.71,15.43,76.6,76.6,0,0,0-.79,11.62A87.54,87.54,0,0,0,432.88,772Z"/></g><path class="cls-7" d="M757.43,659.21a98.21,98.21,0,0,1-98.22,98.22H102.63A98.21,98.21,0,0,1,4.41,659.21V102.63A98.22,98.22,0,0,1,102.63,4.41H659.21a98.22,98.22,0,0,1,98.22,98.22Z"/><path class="cls-4" d="M348,539.13V475.82H464V763.39H389.22V539.13Z"/><path class="cls-4" d="M532.23,763.39l82-96.87-.76-.76c-13,5.72-25.17,8.77-40.43,8.77-56.44,0-92.29-48.44-92.29-101.45,0-70.56,58-108.7,123.57-108.7,27.84,0,59.88,6.87,82,24.79,23.26,18.69,38.52,49.2,38.52,79.33,0,41.57-21.36,81.62-46.15,114.42l-61.41,80.47Zm26.32-192.6c0,26.32,19.83,47.29,46.15,47.29a47.29,47.29,0,1,0,0-94.58C578.38,523.5,558.55,544.47,558.55,570.79Z"/><path class="cls-1" d="M757.43,659.21a98.21,98.21,0,0,1-98.22,98.22H102.63A98.21,98.21,0,0,1,4.41,659.21V102.63A98.22,98.22,0,0,1,102.63,4.41H659.21a98.22,98.22,0,0,1,98.22,98.22Z"/><g class="cls-8"><path class="cls-9" d="M674.65-9.18H87.2A103.65,103.65,0,0,0-16.46,94.48v255.3c113.17,53.44,247.15,84.36,390.75,84.36,149.33,0,288.1-33.51,404-90.9V94.48A103.66,103.66,0,0,0,674.65-9.18Z"/></g></svg>