<svg id="Shine" xmlns="http://www.w3.org/2000/svg" xmlns:xlink="http://www.w3.org/1999/xlink" viewBox="0 0 765.5 763.39"><defs><style>.cls-1,.cls-5{fill:none;}.cls-2{fill:url(#linear-gradient);}.cls-3{clip-path:url(#clip-path);}.cls-4{fill:#36a9e1;}.cls-5{stroke:#662483;stroke-miterlimit:10;stroke-width:11.55px;}.cls-6{fill:#fff;}.cls-7{fill:#009fe3;}.cls-8{clip-path:url(#clip-path-2);}.cls-9{opacity:0.4;fill:url(#linear-gradient-2);}</style><linearGradient id="linear-gradient" x1="382.64" y1="757.43" x2="382.64" y2="4.41" gradientUnits="userSpaceOnUse"><stop offset="0" stop-color="#662483"/><stop offset="1" stop-color="#b55a9e"/></linearGradient><clipPath id="clip-path"><path class="cls-1" d="M759.15,659.21a98.22,98.22,0,0,1-98.23,98.22H104.34A98.21,98.21,0,0,1,6.12,659.21V102.63A98.22,98.22,0,0,1,104.34,4.41H660.92a98.23,98.23,0,0,1,98.23,98.22Z"/></clipPath><clipPath id="clip-path-2"><path class="cls-1" d="M763.56,662.46a99.37,99.37,0,0,1-99.38,99.38H101.09A99.37,99.37,0,0,1,1.72,662.46V99.37A99.36,99.36,0,0,1,101.09,0H664.18a99.37,99.37,0,0,1,99.38,99.37Z"/></clipPath><linearGradient id="linear-gradient-2" x1="382.64" y1="-9.18" x2="382.64" y2="434.14" gradientUnits="userSpaceOnUse"><stop offset="0" stop-color="#fff" stop-opacity="0"/><stop offset="1" stop-color="#fff"/></linearGradient></defs><title>Aichi14</title><path class="cls-2" d="M759.15,659.21a98.22,98.22,0,0,1-98.23,98.22H104.34A98.21,98.21,0,0,1,6.12,659.21V102.63A98.22,98.22,0,0,1,104.34,4.41H660.92a98.23,98.23,0,0,1,98.23,98.22Z"/><g class="cls-3"><path class="cls-4" d="M222.27,658.91a49.37,49.37,0,0,1-98.74-.7c.2-27.26,49.95-80.61,49.95-80.61S222.46,631.64,222.27,658.91Z"/><path class="cls-5" d="M759.15,659.21a98.22,98.22,0,0,1-98.23,98.22H104.34A98.21,98.21,0,0,1,6.12,659.21V102.63A98.22,98.22,0,0,1,104.34,4.41H660.92a98.23,98.23,0,0,1,98.23,98.22Z"/><path class="cls-6" d="M156,649.24a41.37,41.37,0,0,1,.68-6.62,20.3,20.3,0,0,0,13.23,38A42.49,42.49,0,0,1,156,649.24Z"/><path class="cls-4" d="M200.59,501.31a27.43,27.43,0,0,1-54.86-.39c.11-15.14,27.75-44.78,27.75-44.78S200.69,486.17,200.59,501.31Z"/><path class="cls-6" d="M163.79,495.94a23.53,23.53,0,0,1,.37-3.68,11.28,11.28,0,0,0,7.35,21.11A23.6,23.6,0,0,1,163.79,495.94Z"/><path class="cls-7" d="M590.37,257.42c-3-.81,68-155.68,164.22-254.66.57-.59,1.11-1.15,1.64-1.76C800.49,31.06,822,90.27,782.62,185.7,724.86,310.31,539.58,441,544.89,442.18,539.58,441,459,251.56,516.76,126.92,568.68,1,633.83-35.61,708.23-19.18A155.91,155.91,0,0,1,732-11.78C636.57,87.37,587.38,256.6,590.37,257.42Z"/><path class="cls-7" d="M489.8,138.46c25-60.55,53.05-100.29,83.72-123.56-.91-1.17-1.74-2.4-2.68-3.54-.82.53-1.63,1-2.5,1.5C422,96.07,286.27,253.28,289.51,255.27c-3.23-2,111.87-183.43,257.3-267.1a185.75,185.75,0,0,0-25.33-16.75C440-73.11,351.22-52.32,247.66,77.44c-110,126.3-80,375.52-74.18,378.7-4.85-2.65,175-65.42,299-159.08C465.87,244.22,467.53,186.53,489.8,138.46Z"/><path class="cls-7" d="M224.55,77.44c19.42-24.32,38.3-44.81,56.72-61.77-87.41,37.7-165,94.61-170.61,101.09C114.1,110,215.62,10,322.94-23.65a128.51,128.51,0,0,0-14.52-15C260.29-80.74,197.59-80,108.7-8.29,16,60.15-1,232,2.42,235c-2.26-2,79-12,161.22-38.19C176.18,153,195.42,110.89,224.55,77.44Z"/><path class="cls-6" d="M732-11.78C636.57,87.37,587.38,256.6,590.37,257.42c-3-.81,68-155.68,164.22-254.66"/><path class="cls-6" d="M568.34,12.86C422,96.07,286.27,253.28,289.51,255.27c-3.23-2,111.87-183.43,257.3-267.1"/><path class="cls-6" d="M281.27,15.67c-87.41,37.7-165,94.61-170.61,101.09C114.1,110,215.62,10,322.94-23.65"/></g><path class="cls-5" d="M759.15,659.21a98.22,98.22,0,0,1-98.23,98.22H104.34A98.21,98.21,0,0,1,6.12,659.21V102.63A98.22,98.22,0,0,1,104.34,4.41H660.92a98.23,98.23,0,0,1,98.23,98.22Z"/><path class="cls-6" d="M349.74,539.13V475.82h116V763.39H390.93V539.13Z"/><path class="cls-6" d="M723.5,646.69V703.9H688.79v59.49H619.38V703.9H479.79V656.22l111-180.4h98V646.69ZM619.38,536.08h-.76L551.49,646.69h67.89Z"/><path class="cls-1" d="M759.15,659.21a98.22,98.22,0,0,1-98.23,98.22H104.34A98.21,98.21,0,0,1,6.12,659.21V102.63A98.22,98.22,0,0,1,104.34,4.41H660.92a98.23,98.23,0,0,1,98.23,98.22Z"/><g class="cls-8"><path class="cls-9" d="M676.37-9.18H88.91A103.66,103.66,0,0,0-14.75,94.48v255.3C98.43,403.22,232.41,434.14,376,434.14c149.33,0,288.1-33.51,404-90.9V94.48A103.66,103.66,0,0,0,676.37-9.18Z"/></g></svg>