<svg id="Shine" xmlns="http://www.w3.org/2000/svg" xmlns:xlink="http://www.w3.org/1999/xlink" viewBox="0 0 763.36 763.39"><defs><style>.cls-1,.cls-6{fill:none;}.cls-2{fill:url(#New_Gradient_Swatch_3);}.cls-3{clip-path:url(#clip-path);}.cls-4{fill:#f9b233;}.cls-4,.cls-5{fill-rule:evenodd;}.cls-5,.cls-7{fill:#fff;}.cls-6{stroke:#be1622;stroke-miterlimit:10;stroke-width:11.55px;}.cls-8{clip-path:url(#clip-path-2);}.cls-9{opacity:0.4;fill:url(#linear-gradient);}</style><linearGradient id="New_Gradient_Swatch_3" x1="380.92" y1="757.43" x2="380.92" y2="4.41" gradientUnits="userSpaceOnUse"><stop offset="0" stop-color="#be1622"/><stop offset="1" stop-color="#e94e1b"/></linearGradient><clipPath id="clip-path"><path class="cls-1" d="M757.43,659.21a98.21,98.21,0,0,1-98.22,98.22H102.63A98.21,98.21,0,0,1,4.41,659.21V102.63A98.22,98.22,0,0,1,102.63,4.41H659.21a98.22,98.22,0,0,1,98.22,98.22Z"/></clipPath><clipPath id="clip-path-2"><path class="cls-1" d="M761.84,662.46a99.37,99.37,0,0,1-99.38,99.38H99.37A99.37,99.37,0,0,1,0,662.46V99.37A99.36,99.36,0,0,1,99.37,0H662.46a99.37,99.37,0,0,1,99.38,99.37Z"/></clipPath><linearGradient id="linear-gradient" x1="380.92" y1="-9.18" x2="380.92" y2="434.14" gradientUnits="userSpaceOnUse"><stop offset="0" stop-color="#fff" stop-opacity="0"/><stop offset="1" stop-color="#fff"/></linearGradient></defs><title>Aichi10</title><path class="cls-2" d="M757.43,659.21a98.21,98.21,0,0,1-98.22,98.22H102.63A98.21,98.21,0,0,1,4.41,659.21V102.63A98.22,98.22,0,0,1,102.63,4.41H659.21a98.22,98.22,0,0,1,98.22,98.22Z"/><g class="cls-3"><path class="cls-4" d="M578.46,374.86c-3,.1-3.51-2.33-5.83-2.92-.1,3.15-.55,5.95-3.41,6.33-.43,2.32-.3,5.21-3.41,4.87-.46,2.77-1.6,4.88-3.89,5.83,0-3-3.79-3.88-1.95-7.3a1.83,1.83,0,0,1-1.94-1.94c.09-1.38,2.31-.61,1.94-2.43-.73-.74-2.77-.15-2.43-1.95A3,3,0,0,0,559,371c1.78-.49,3.87-.67,4.86-1.94-.3-.68-1.87-.08-1.94-1,1.38-1.22,2.1-3.09,3.4-4.38-2.43-3.9,1.18-8.3,2-13.13-3,0-3.56-2.62-5.85-3.41-.65.15-.93.69-1.94.49,0,3.74-2.17,5.3-3.41,7.78-3.41.17-4.06-2.41-5.35-4.37.95-1.75,2.66-2.25,1.94-4.87,1.61,0,1.86-1.38,3.89-1a17.1,17.1,0,0,0-1.94-4.87c-3.23.49-4-1.5-6.32-1.93,0,1.43-.17,2.74-1.95,2.43v-4.38c-4.81-3-6.27-16.88-13.61-11.19,1.7,3.65-.25,6.7,0,9.25.06.63,1.06.32,1.46,1.46s0,5.61-1.46,5.34c-1.35-1.58-3.06-2.79-3.41-5.34H526.9c-.34-3.24-2.87-4.28-5.84-4.87-1.5,2.67-.18,5.27-1,8.76,1.21.92,1.9-.41,3.4.47-.52,1.83,1,1.58,1.47,2.44.19,1.17-.9,1.06-.5,2.43,2.28,1.3,3.23,3.91,3.89,6.82h-1.94c-.2,3,1.26,2.54.49,5.35-2.19-.24-1.66,2.23-2.44,3.4a5.4,5.4,0,0,1-3.4-4.38c-2.07.3-3.22-.34-4.87-.48-1.34,4.34,3.43,10-2,12.16-.11.92.55,1.08.49,1.94-1.29,0-2.86-.26-2.92,1,2.17,3.18,5.27,5.44,8.28,7.78-.33,7.17-10.37,3.9-13.63,4.39-.67.29-.07,1.86-1,1.94-1.38-.09-.61-2.31-2.43-1.94-.6,1.9-2.58-.11-3.89,1.45-.37-1.6-2.41-1.2-2.93-1.45-.14-1.13,1.41-.55,1.47-1.47-3.25-5.18,4.4-6.62,4.37-10.7a3,3,0,0,0,2.44,0c-.43-2.54,1.55-2.66,3.89-2.44-.19-2.21.68-2.7,3.89-2.43,3.8-4.5-2.63-10.28,1-14.59-2.68-.22-.62-2.85-1.47-5.35-4.73-2.73-11.71-3.2-13.62-8.76h-3.4c-.22,1.84,1,2.29,1.45,3.41a8.07,8.07,0,0,0-.48,8.75,2.79,2.79,0,0,0-1.95.49c2.61,7.82-1.74,16.16-9.24,17-1.22-.38-2.89-5.3-3.4-5.83-2.22-2.28-1.76.38-1.46-2.43s2.15-3.91,2.92-5.84c1,.76,2.69.87,2.91,2.43,3-1.27,3.82,1.4,6.81,1.46-.35-1.48.5-1.77.5-2.91-3.57-1.49-6-3.15-6.33-6.82H488a7.14,7.14,0,0,1,0-3.89c-3.53-1.88-8.14,1.32-10.7,3.4-1.22-.75-1.64-2-3.41-1-.56,1.58,1.48,3,0,3.89-1.11-.82-1.15-2.74-1.46-4.38-1.56-.38-3.49-.4-2.92-2.91-3.5-1.9-7.15,2-10.7,0,0-2.88,2.29-3.55,2.43-6.32-3.33,0-6.16,2.65-10.22,1.45.51,5.91.69,12.09-6.81,12.16-1.13,1.95-1.77,4.4-4.86,4.39A37,37,0,0,0,435,369a5.2,5.2,0,0,0-2.93,5.35c2.21,2.49,4.83,4.58,4.87,9.24,1.47.3,2.81.76,2.91,2.44-1.5,4.74-1.28,10.5-4.37,14.58-5.11-1.83-9.16-.18-13.62-1.46-5.51,4.13,1.43,10.58-.48,18.49,2.82,5.11,6,9.86,6.31,17.52,4.09,1.59,6.7,4.66,9.25,7.78,6.49,1.45,10.37,5.52,15.07,8.75-1.7,6,8.58,10.13,2.92,15.57-3.54.35-6.12,1.66-7.78,3.89,1.32,1.36,3.76,2.81,2.43,5.35,13,6.92,22.37,17.53,30.65,29.2.36,1.32-1,1-1,1.94,3.5,4.63,2.75,13.44,1.95,20.43,6.88.36,12.86,2.83,18.48-1,1.73-.11,2.55.7,2.43,2.43a51.79,51.79,0,0,1,17.52-1,3.6,3.6,0,0,0,.49-4.37c1.26-1.32,2.11-3.07,4.87-2.92.35-4,3.41-3.29,7.29-2.92.7-2.45-1.76-3.34-.49-4.86,2.16.32,2.52,1.38,4.87.48-.14,1.43,1.1,1.5,1,2.92,5.45-5.4,15.88-7.92,16-17-1.84-.71-5.87-.33-3.89-3.41-2.78-.51-2.85,1.69-4.87,1.95.41-1.38-.68-1.26-.48-2.44,6.94-5.06,11.83-14.63,24.32-15.57.4-9,.58-17.75-5.84-22.86,1.6-4.07,1.92-9.42,4.87-12.16,3.37,0,4.77-2,6.81-3.4-.22-2.54-1.1-4.42-3.4-4.86.26-4.44,1.85-7.57,5.35-8.76-2.81-5-1.13-12.78-6.33-16.07-.45,2.33-3.07,2.45-2.91,5.36a3.24,3.24,0,0,0-2.44.48,12.74,12.74,0,0,1-4.87,8.27c.13,2.4.2,4.74-2.43,4.39-2.7-2-4.47-8.84-1.95-11.68-1.36.07-1.4-1.19-1.46-2.43,2.65-.31,2.45-3.81,3.41-5.35,1.17-.2,1.06.89,2.43.48.21-1.26.13-2.31,2.92-1.94.85-1.62-.24-2.16,0-4.38,4.89-1.6,5-8,9.74-9.73-1.62-2,1.39-3.11,0-5.35,1.72-.22,2.25-1.65,3.89-1.94C577.79,383,580.29,381.56,578.46,374.86Zm-84.16,18c2.95,2.1,5.39-1.24,7.3,1.46,1.28.15,1.6-.68,1.46-1.94a8.4,8.4,0,0,0,5.83-1c1.4.55,1.77,2.12,4.39,1.46-1.55,3.17-8.18-1.05-10.22,2.92-3.33-1.14-6.5,1.35-10.71,0C492.14,394,493.38,393.56,494.3,392.86ZM507,420.59c-.73,1.71-3.14,2.37-4.87,3.89-1.6-1.79-1.59-5.21-5.34-4.86,1.13-3.46-1.06-4.5.48-7.79h1.95c-.55-1.53-.05-1.09,0-2.91,1.38-.09,2-.89,3.4-1-.33-2.61,2-2.54,1.46-5.36H506c-.34-1.83,1.54-2.13,1.46-4.86h1.46c.84,3.54-2.13,6.92-2.43,11.67C506.21,413.24,508.34,417.31,507,420.59ZM460.74,369c6.39-.21,12.61,2.26,12.64,6.81,2.48,1.41,3.84,3.94,4.86,6.8-.43.22-.86.43-1,1-3.5-1.16-8.54,0-10.71-3.41a1.34,1.34,0,0,0-1,1.46c-2.75-.93-4.72-4.1-7.79-1.94C458.06,374.45,461.06,374.17,460.74,369Zm-19.95,3.4c1-5.29,1.95-6.44,1.45-12.16,1.29-.66,3.07-.83,2.44-3.41,1.72-.25,3-.58,3.89,1,1.12-.67,1.56-2,2.43-2.92.57-.09.87.1,1,.48.41,6.77-4.48,12.36-6.8,18C443.07,373.36,443.11,370.92,440.79,372.43Zm13.13,53a3.28,3.28,0,0,0,2.43,2.92c.62,2.55-1,2.87-1,4.86-4.07-.47-7.13-1.95-8.27-5.35-5.85-.68-4.33-12.16,0-15.09.2-1.16-.89-1.06-.48-2.43A40,40,0,0,1,450,408c.05-1.52-1.53-1.39-1-3.42,2.18,3.66,5.29,6.39,6.32,11.19a8.28,8.28,0,0,0-5.35,1.95c.68.62.3,2.29,1,2.92,2.42.05,2.39-.48,4.38,0-1.45,2.47,2.08,2.3,1.95,4.87C456.41,426.42,455,425.69,453.92,425.46Zm10.22-22.39c-.4-1.36.69-1.26.49-2.43h1.46C465.65,401.67,466.07,403.55,464.14,403.07Zm2.43-3.89c-.08-1.53,2-.94,2.44-1.94-1.16-6.58-9.16-5.12-13.63-4.86.44-3.08-.85-3.4-1-7.79,1.47.15,1.74,1.51,3.89,1-.34,1.49.5,1.77.49,2.93,2.23.44,2.35-1.22,4.38-1-.13,1.42,1.1,1.49,1,2.92,1.6,0,2.42-.83,4.38-.48.2.92,1,1.22,1,2.43a8.92,8.92,0,0,1,3.89.48c.33,1.78.81,3.42,2.93,3.4C473.79,398.91,470.34,397.7,466.57,399.18Zm11.67,43.31c.29,1,1.21,1.38,1,2.91-8.16,2.45-4.9-5.55-2.43-8.76,2,.57,3.73,1.46,3.89,3.89C481,442.34,479,441.75,478.24,442.49Zm23.84,0c-2.3.35-3.34-.55-5.34-.49-.4.08-.5.49-1,.49-.39,3,1.92,3.26,4.37,3.4,0,2.47,2.68,3.13,1,5.83-4.16-1.48-3.59,1.9-6.81,2.44-.06,1.19-.07,2.34.49,2.91,2.53,0,3.6-.77,5.84,0-.25,2.52-3.67,1.85-5.35,2.92-.62,2.25.88,2.36,1.46,3.41-1.46,2.91-1,7.74-3.41,9.73-.45,3.55,1.76,7.16-1.46,8.27a12,12,0,0,0-1.95-3.89c-3.71.42-5.73,3.16-4.38,7.3-3-2-6.48-9.16-3.41-12.66.16-1.12-1.4-.54-1.45-1.45,1.95-1.12,3.11-3.06,4.38-4.87-.6-.87-.09-2.83-1-3.41,1.4-2,4.61-2.2,6.33-3.89-2.84-1.49.56-6.64-2.43-7.29-.44-1.57,1.6-.67,1.46-1.95-.13-1-2.16-.11-1.95-1.45,3.11-2.62,4-4.95,5.36-8.76-.52-1.28-2-1.59-3.89-1.46.19-2-.5-3.07-2.44-2.92-.36-1.5,1.33-.94,1-2.43-.94-1.17-2.33-1.88-2.92-3.41-.26-1.72.78-2.13,1.46-2.92,2.56,2.59,4.41-.72,7.3,1.46-1.52,2.53,1.43,3,1.46,5.35,2.42-.4,2.91.09,5.84,0-.75,3.18,1.46,3.4,2.43,4.87C502,439.63,500.43,439.89,502.08,442.49Zm6.81,67.61c-4.83-1.41-.44-7-3.4-9.24.61-2,1.23-3.95,3.4-4.38-2-2,1.09-5.16,4.39-4.86C514.13,498.43,513,506.72,508.89,510.1Zm33.08-145c.24-1.53-1.48-1.1-1-2.92.44-1.34,3.46-.11,2.92-2.43,2.63,1.52,1.29,4,2.92,6.32-2.88-1.86-2.13,2.25-4.38,2.43-.36-1.32,1-1,1-1.94-.56-1.3-1.26,1.27-1.94,1.46-1.21.08-1.51-.77-2.43-1A3.43,3.43,0,0,1,542,365.13Zm-3.88,27.73c-1.36-1.53-.6-2.57,0-4.37,2,.19,3.06-.51,2.91-2.43,1.17-.21,1.06.88,2.43.48-.1,4.42,1,6.72-1,10.21-2.21-2.56-4.4-.28-7.29-1.94C535.43,393.46,537.05,393.44,538.09,392.86Zm-9.74,44.28c1.36-.66,3.39-2.48,4.87-1.47,0-1.66-3-.28-2.92-1.94a12.1,12.1,0,0,1,4.87-3.9c.35-1.48-.84-1.43-.49-2.91,1.7-.9,4.4-.79,3.89-3.9,2.79,1.29,1.41,4.44,1.46,7.79-.63-.67-2.11-.49-3.4-.49-.49,5.76-2.46,5.92-3.89,13.63-2.32,1.36-2.5-1.52-5.36-1C528.45,441.06,530,439.21,528.35,437.14Zm.5-26.28a4.72,4.72,0,0,1,1-7.3c0-1.48-1.75-1.16-1.46-2.92,1.89-1.83,3.62.46,6.33.49.53,1.25.33,3.23,2.92,2.43-.16,1.79-1.93,2-1.47,4.39-4,0-5.11,5.89-9.72,6.8C526.33,412.57,528.46,412.59,528.85,410.86Zm3.4,75.41a11.05,11.05,0,0,1-4.38-1c1.22-4.08,5-7.78,9.24-7.3C536.49,481.75,533.61,483.26,532.25,486.27Zm15.08-22.87c-3,0-3.49,2.36-5.36,3.4-3.16.25-4.3-1.53-6.8-1.95-2.25.53-6.55,4.85-7.79.5,3.19-.54,4.4-3.07,8.27-2.93.06-2.81-3-2.53-3.89-4.37,1.51-.93,1.22-3.65,4.37-2.92-.1-1.78-.66-1.87,0-3.41,1.29,0,2.79-.18,3.41.49a36.57,36.57,0,0,1,2-5.83h3.4c.43-1.57-1.26-1-1.46-1.95,0-1.75,1.88-1.69,2.44-2.92,2.59.81,1.65,5.16,4.37,5.84C551,452.5,548.45,458.49,547.33,463.4Z"/><path class="cls-4" d="M812.46,240.77c-5,.17-5.79-3.83-9.61-4.81-.18,5.18-.89,9.8-5.61,10.41-.71,3.83-.5,8.59-5.61,8-.78,4.57-2.64,8-6.41,9.61,0-5-6.25-6.39-3.2-12a3,3,0,0,1-3.21-3.2c.15-2.27,3.81-1,3.21-4-1.2-1.21-4.57-.24-4-3.21,2.43-1.21,4.28-3.89,2.41-7.2,2.92-.81,6.36-1.12,8-3.2-.49-1.12-3.08-.13-3.2-1.6,2.26-2,3.45-5.1,5.6-7.21-4-6.43,1.95-13.68,3.21-21.63-5-.05-5.84-4.3-9.61-5.61-1.08.26-1.53,1.14-3.21.81,0,6.16-3.56,8.72-5.61,12.81-5.61.28-6.69-4-8.8-7.2,1.57-2.88,4.37-3.71,3.2-8,2.63,0,3.06-2.27,6.41-1.6-.53-3.2-2-5.49-3.2-8-5.33.79-6.58-2.48-10.41-3.19-.06,2.34-.3,4.51-3.2,4v-7.22c-7.94-4.89-10.34-27.8-22.43-18.42,2.82,6-.41,11,0,15.22.1,1.05,1.75.54,2.4,2.41s.1,9.24-2.4,8.8c-2.21-2.6-5-4.59-5.61-8.8h-4c-.55-5.34-4.71-7-9.62-8-2.46,4.41-.27,8.68-1.59,14.42,2,1.52,3.14-.67,5.6.79-.85,3,1.68,2.6,2.4,4,.33,1.93-1.46,1.74-.8,4,3.75,2.12,5.31,6.44,6.41,11.22h-3.21c-.32,5,2.09,4.19.81,8.81-3.6-.4-2.74,3.67-4,5.59a8.9,8.9,0,0,1-5.61-7.2c-3.41.48-5.29-.58-8-.8-2.22,7.15,5.64,16.45-3.21,20-.18,1.5.9,1.76.8,3.2-2.12,0-4.72-.45-4.8,1.6,3.57,5.24,8.66,8.95,13.62,12.81-.54,11.79-17.07,6.43-22.43,7.21-1.11.5-.12,3.08-1.61,3.21-2.26-.15-1-3.81-4-3.21-1,3.15-4.25-.16-6.41,2.4-.6-2.64-4-2-4.8-2.4-.25-1.85,2.31-.89,2.4-2.4-5.35-8.55,7.24-10.91,7.21-17.62,2.46.56,1.53.56,4,0-.7-4.18,2.57-4.38,6.41-4-.31-3.63,1.12-4.45,6.41-4,6.25-7.42-4.34-16.93,1.6-24-4.42-.36-1-4.69-2.4-8.81-7.8-4.48-19.31-5.26-22.43-14.41h-5.6c-.36,3,1.58,3.76,2.4,5.61-3,4-3.54,10.1-.8,14.41a4.49,4.49,0,0,0-3.2.8c4.28,12.88-2.88,26.61-15.23,28-2-.65-4.76-8.75-5.6-9.62-3.65-3.77-2.89.62-2.41-4,.51-4.78,3.56-6.44,4.81-9.61,1.69,1.24,4.44,1.43,4.8,4,4.93-2.09,6.29,2.3,11.22,2.41-.58-2.46.81-2.93.8-4.81-5.86-2.44-9.94-5.18-10.42-11.22h2.42a11.79,11.79,0,0,1,0-6.4c-5.82-3.09-13.42,2.17-17.63,5.6-2-1.24-2.68-3.24-5.61-1.6-.92,2.6,2.45,4.93,0,6.41-1.83-1.37-1.89-4.52-2.4-7.21-2.57-.63-5.74-.67-4.8-4.81-5.77-3.13-11.77,3.36-17.63,0,.07-4.75,3.78-5.84,4-10.4-5.48,0-10.14,4.36-16.82,2.4.84,9.74,1.14,19.91-11.21,20-1.87,3.2-2.91,7.23-8,7.21a61.55,61.55,0,0,0-7.21,24.83c-2.87,1.66-5.08,4-4.8,8.81,3.63,4.1,7.94,7.53,8,15.21,2.43.52,4.63,1.26,4.81,4-1.37,4.3-1.94,9.08-3,13.65-4.2.4-8.63.4-12.58,1.3-2.09,2.95-1.27,6.78-3.35,7.53-3.6,0-7.09.18-10.74-.86a8.15,8.15,0,0,0-3.47,5.67,11.27,11.27,0,0,1-1.88-.67,9,9,0,0,1-7.47,5.26c-.67-2.21,1.36-5.85-2.2-6.52.11-4.79,2.18-3.31,3.33-8.2l-3.06-.93c2.43-4.25,5.19-7.93,9.39-8.87,1.29-2-.48-2.31.4-4.06,1.1-1.15,3.41,0,3.46-3.14,2.79-.68,3.24,1.75,5.6.87.4-5.87,3.76-9.33,2.67-14.25-5-.5-9.45-.08-11.54,4.86L546,249.67c-1.78,3.86-5.06,5-7.93,6.79-2.51-.31-1-7.42.26-9.13s2.61-.62,3-1.59c1.62-3.9,0-9.64,4.44-14.56-8.85-12.5-17.81,8.72-26.82,11.09-.7,2.29-1.39,4.6-2.1,6.9-2.93-.36-2.52-2.5-1.9-4.76-3.87-.44-6,2.33-10.89,0-1.9,2.06-4,3.82-5.4,6.74,3.4.32,3.17,2.59,5.66,3.39-2.37,3.78.07,5.4.74,8.61-3,2.46-5.24,6.22-10.51,4.32-.78-4.52-3.47-8-1.65-13.89-1.7-.17-1.88-1.14-2.84-1.7-4,.16-6,4-10.83,2.57-1.1,8,2.48,16.63-3.23,21.63,1.45,2.63,1.7,5.93,3.27,8.51-.54,1.38-2.74-.31-3.53.61,1,2.47,4.17,3.77,6.74,5.39-2.76,2.62-1.78,5.72.2,7.6-.33,3-3.27,1.09-4.77,1.89-1.46,2.7,2.41,2.56,1.9,4.77a3,3,0,0,1-4,2.12c1.28,6.28-5.07,5.79-6.57,10.57-3.15-2.6-3.91-6.46-3.33-11.06-5.06-.94-3.46-5.43-3-9.29-4.32-2-3.68-6.6-2.33-11.6-3.95-.18-5.89,3.42-10.6,1.8-6.08,9.67-2.85,13.14-3.46,22.4,2.44,1.25,2.59,3.75,5.19,4.92-3.26,2.86,1,6-2.55,8.43,6.71,5,3.72,15.12,10.66,20-.69,3.62-2.66,3.93-2.11,6.89,4.59.75,4,2.39,3.68,4.46,2,1.3,2.3-.47,4.06.41.77,2.89-1.24,8.3,2.8,10-.68,1.93-1.35,3.9-3.46,3.14,2.62,5.68-3.47,15.68-8.67,17.46-4.29-.71-3.07-4.35-1.73-8.07a21,21,0,0,1-3.7-15.35,5.13,5.13,0,0,0-3.6-1.93c1.64-4.52-2.43-6-2-9.83-9.76,2.66-10.83,15.7-17.65,22.26,4.93,3.56,5.93,9.24,4.22,16.35-3.84-.4-6.13,2.14-7.7,6,2.58,3.12,3.81,7,9.11,8.62,3.32,5.73,1.26,14.32,1.83,21.49a22.41,22.41,0,0,0-4.21,2.22,1.75,1.75,0,0,0-2,.13,2.19,2.19,0,0,0,.07,1.41c-.33.28-.67.53-1,.82-.24-.85-.37-1.8-.55-2.72-1.56-.38-3.48-.4-2.92-2.92-3.5-1.9-7.15,2-10.7,0,0-2.87,2.29-3.54,2.44-6.32-3.33,0-6.16,2.66-10.22,1.46.51,5.92.69,12.1-6.81,12.17-1.14,1.94-1.77,4.38-4.86,4.37a37,37,0,0,0-4.38,15.08,5.24,5.24,0,0,0-2.92,5.36c2.2,2.49,4.83,4.57,4.87,9.23,1.46.32,2.8.77,2.91,2.44-1.51,4.75-1.29,10.52-4.37,14.6-5.11-1.83-9.16-.2-13.62-1.47-5.39,4,1.07,10.31-.43,18-2.78-4.49-7.45-8.12-7.36-13.91-4.06,1.33-4-3.95-8.26-3.07.67-2.79-1.23-4.43-.76-7.11-7.71-5.16-8.5-9.84-19.86-10.89-1.59,4.73-5.63,4.09-7.89,7.33,4.8,2,8.87,4.27,7.8,8.89,3.34,2,7.86,3.49,5.54,8.07,4,2.32,6.6,5.28,6.75,9.37-4.7-1.71-8.16,3.61-12.38-1.2a3,3,0,0,1-4.13,1.88c-2.05-.94.41-3.93-2.62-4.42-1.54.71-1.82,4.2-4.39,2.62-.31-2.7-2.17-5.36-5.93-4.77.28-3,1.21-6.36-.18-8.62-1.21.07-1.2,2.85-2.63,2.46-1.08-2.84-3.56-5-4.8-7.79-7.41,1.5-12.12-6.61-19.12-10.58-1.81,4.69-6.08,4-8.62,7-.15,1.11.53,1.83-.36,3.28,5.78,2.12,6.91,6.4,10,9.73-1.7,5.36-6.07,4.89-9.82,5.74-2.16-2.46-2-5.39-6.38-5.82.87-2.46-1.07-3.66.74-6.53-3.2-.64-5.84-.08-8.64.18-1.12,5.26-4.63,5.29-6.64,8.62,2.18.87,4.13,1.88,2.64,4.4l-6.75-2.52c-7.37,5.71-29.67-.05-25.12,14.54,6.61-.52,10.19,4.26,14.27,5.34,1,.28,1.1-1.45,3.07-1.41,2.13.07,8.7,3.16,7.41,5.35-3.21,1.16-6,3.09-10.21,2.16-.46,1.24-.93,2.51-1.4,3.73-5.19-1.34-8.25,2-10.86,6.22,3.24,3.86,8,3.29,12.94,6.54,2.12-1.34.48-3.18,2.71-5,2.5,1.84,3-.68,4.59-.84,1.92.37,1.12,2,3.48,2.12,3.3-2.75,7.87-2.69,12.73-2l-1.11,3c4.58,2,4.66-.49,8.54,2.32-1.64,3.23,2.49,3.86,3.85,5.72a9,9,0,0,1-8.74,2.74c-.73,3.35-2.4,4.75-3.55,7.22,5.93,4.57,17.4.47,17.63,10,1.37.7,2-.25,3.28.36-.73,2-2.06,4.27-.18,5.06,6.16-1.51,11.43-5,16.78-8.27a6.89,6.89,0,0,1,4.64,6.47A36.16,36.16,0,0,0,314.06,573c-.5,1-.94,2-1.37,2.94a4.9,4.9,0,0,0-1.93,4.46c.75.86,1.52,1.68,2.25,2.56-1.21.86-3.43-.46-3.84,2.13,2.61,2-1.63,3.94,0,6.86-2.68-.36-3.22,3-3.93,3.66-1.82-.42,0-2.49-1.41-3.1-9.87,2-7.66-10.61-14-12.92,1.39-2.11,1.06-1.26,1.38-3.75-4.13-.81-3.19-3.92-1.5-7.4-3.51-1-3.76-2.62-1.5-7.42-4.75-8.44-17.37-1.87-21.94-9.9-1.88,4-4.75-.7-9.09-.85-6.93,5.74-11.68,16.24-21.35,16-.65,1.75-1.32,3.51-2,5.26,2.71,1.39,4.08-.17,6.11-.3,2.68,4.14,8.22,6.85,13.22,5.82a4.49,4.49,0,0,0-.39,3.28c13.57.5,23.92,12,20.93,24.06-1.3,1.66-9.85,1.4-11,1.88-4.8,2.1-.43,2.92-4.58.85s-4.79-5.59-7.32-7.86c1.74-1.14,2.89-3.68,5.43-3.11-.25-5.33,4.35-5.07,6.18-9.67-2.51-.3-2.47-1.76-4.23-2.42-4.34,4.63-8.32,7.5-14.14,5.83.27-.74.55-1.5.83-2.24a12,12,0,0,1-6-2.26c-4.94,4.37-2.68,13.32-.93,18.47-1.86,1.44-4,1.37-3.46,4.69,2.11,1.77,5.48-.57,6,2.25-1.94,1.23-4.9.2-7.6-.28-1.48,2.18-2.63,5.14-6.18,2.81-5,4.3-1,12.21-6.19,16.53-4.4-1.74-4.13-5.6-8.34-7.41-2,5.12.55,11-3.63,16.6,9.42,2.61,19.05,5.89,14.83,17.5,2.34,2.88,5.74,5.27,3.95,10a61.49,61.49,0,0,0,20.72,15.44c.57,3.27,2,6.16,6.57,7.59,5.13-2,9.85-4.81,17.07-2.18,1.32-2.08,2.79-3.89,5.43-3.08,6.45,5.07,15.46,8,20,15.15-5.76,6.83-5.58,14-10.11,20.16,3.1,10.6,16.38,4.37,27.31,10.94.82,3.08,2,6.64,1.08,10.54,2.83,5.12,6,9.86,6.32,17.53,4.08,1.59,6.69,4.65,9.25,7.78,6.49,1.44,10.37,5.52,15.07,8.75-1.71,6,8.58,10.12,2.93,15.57-3.55.35-6.13,1.66-7.79,3.89,1.32,1.36,3.75,2.81,2.43,5.35,13,6.92,22.37,17.53,30.64,29.2.37,1.32-1,1-1,1.93,3.5,4.64,2.75,13.45,1.94,20.43,6.88.37,12.88,2.84,18.49-1q2.6-.16,2.43,2.43a51.47,51.47,0,0,1,17.51-1,3.6,3.6,0,0,0,.49-4.39c1.27-1.32,2.12-3.07,4.87-2.91.37-4,3.41-3.29,7.3-2.92.69-2.46-1.77-3.35-.5-4.86,2.17.32,2.52,1.39,4.87.48-.13,1.43,1.1,1.5,1,2.92,5.45-5.4,15.88-7.92,16.06-17-1.84-.71-5.87-.33-3.9-3.41-2.78-.51-2.84,1.68-4.86,2,.4-1.37-.69-1.27-.49-2.44,6.94-5.06,11.84-14.63,24.33-15.57.4-9,.57-17.76-5.83-22.86,1.6-4.07,1.91-9.43,4.85-12.16a7,7,0,0,0,4.24-1.45L471.81,810l312.81-27.35,1-329.18-14.66-2.8a16.18,16.18,0,0,0,.67-4.06c-3-1.16-9.66-.52-6.4-5.61-4.58-.83-4.69,2.79-8,3.22.66-2.27-1.13-2.08-.8-4,11.42-8.34,19.49-24.1,40-25.64.66-14.75,1-29.23-9.61-37.64,2.64-6.7,3.17-15.52,8-20,5.55-.06,7.84-3.37,11.22-5.6-.37-4.18-1.82-7.27-5.61-8,.44-7.29,3-12.43,8.8-14.41-4.62-8.27-1.84-21-10.4-26.44-.74,3.81-5.06,4-4.81,8.81a5.28,5.28,0,0,0-4,.8,21.12,21.12,0,0,1-8,13.63c.2,3.94.31,7.79-4,7.2-4.46-3.22-7.36-14.54-3.2-19.23-2.25.13-2.32-1.95-2.4-4,4.37-.51,4-6.26,5.6-8.81,1.93-.32,1.74,1.47,4,.81.34-2.08.2-3.82,4.8-3.2,1.39-2.68-.4-3.55,0-7.22,8-2.63,8.16-13.2,16-16-2.66-3.33,2.28-5.13,0-8.81,2.83-.37,3.69-2.71,6.39-3.2C811.35,254.16,815.46,251.78,812.46,240.77ZM309.38,515.88c-2.25-.23-.95-2.06-2.44-2.63-2.32.13,1.23,2.68,1.14,3.85-.59,1.9-2.05,1.87-2.91,3.17a5.65,5.65,0,0,1-1.31-5.62c-2.22-1.23-2.58,1.66-5.07-.17-1.8-1.45,1.82-5.4-2.05-5.91,3.86-3.19,6.93.32,11.43-.86C303.62,511.1,310.38,512.31,309.38,515.88Zm-52.61,159c-7.6-4.55-8.82-6.72-17.93-9.24-.28-2.38.5-5.21-3.84-5.74.6-2.79.84-5,3.74-5.43-.38-2.12-2.18-3.57-3.11-5.43.22-.92.68-1.29,1.33-1.23,10.66,3.27,16.46,14,23.82,20.89C259.53,671.9,255.78,670.46,256.77,674.9ZM752.38,224.75c.39-2.52-2.46-1.82-1.6-4.81.73-2.2,5.69-.18,4.8-4,4.34,2.52,2.13,6.63,4.81,10.42-4.75-3.07-3.52,3.69-7.21,4-.58-2.18,1.6-1.61,1.6-3.2-.93-2.14-2.09,2.09-3.2,2.41-2,.12-2.48-1.26-4-1.6A5.66,5.66,0,0,1,752.38,224.75ZM746,270.4c-2.24-2.51-1-4.23,0-7.2,3.26.32,5-.83,4.8-4,1.93-.34,1.75,1.46,4,.8-.17,7.29,1.63,11.07-1.6,16.82-3.63-4.21-7.23-.46-12-3.21C741.61,271.38,744.27,271.36,746,270.4Zm-16,72.88c2.23-1.07,5.57-4.06,8-2.4.07-2.74-4.87-.46-4.81-3.21,2.21-2.59,4.54-5.07,8-6.4.58-2.45-1.38-2.35-.8-4.81,2.8-1.47,7.24-1.29,6.41-6.4,4.6,2.12,2.32,7.29,2.39,12.81-1-1.09-3.47-.79-5.6-.8-.78,9.48-4,9.75-6.4,22.43-3.8,2.25-4.11-2.49-8.82-1.6C730.11,349.76,732.73,346.72,730,343.28Zm.8-43.24a7.76,7.76,0,0,1,1.6-12c0-2.44-2.88-1.92-2.4-4.81,3.11-3,6,.77,10.41.81.88,2.05.55,5.31,4.8,4-.26,2.94-3.17,3.23-2.4,7.22-6.6,0-8.42,9.69-16,11.21C726.63,302.85,730.13,302.88,730.76,300ZM452.16,703.13c.06-1.06,1.36-.87,1.81-1.53q5.34-2.36,10.87-4.33l-.13,3.84a3.28,3.28,0,0,1-1.36.56c-.43,2.32-.3,5.21-3.41,4.86-.47,2.78-1.6,4.89-3.89,5.84,0-3-3.8-3.88-1.95-7.3A1.82,1.82,0,0,1,452.16,703.13Zm-15.57,17c-2.21-2.56-4.4-.28-7.3-1.94.27-1.36,1.88-1.37,2.92-2a2.4,2.4,0,0,1-.72-2c2-1.42,4-2.81,6.07-4.09C437.52,714.43,438.51,716.73,436.59,720.15Zm-14.11,40.38c1.36-.65,3.38-2.47,4.87-1.46,0-1.66-3-.28-2.93-1.94a12.15,12.15,0,0,1,4.87-3.89c.35-1.5-.83-1.44-.48-2.93,1.69-.89,4.4-.78,3.89-3.89,2.79,1.29,1.41,4.43,1.45,7.79-.62-.67-2.11-.49-3.4-.49-.47,5.76-2.46,5.92-3.89,13.63-2.3,1.36-2.5-1.52-5.35-1C422.57,764.46,424.17,762.61,422.48,760.53ZM401.08,744c-.73,1.71-3.14,2.37-4.87,3.89-1.61-1.79-1.6-5.21-5.35-4.86,1.13-3.46-1.05-4.5.49-7.79h1.94a4.78,4.78,0,0,1-.23-.84,47.59,47.59,0,0,1,5.26.17,3.59,3.59,0,0,0,.49-4.38c.94-1,1.66-2.19,3.09-2.69a18,18,0,0,0-1.3,5.31C400.35,736.64,402.46,740.71,401.08,744Zm-29.69-176.7c-3.4-1.15-2.15-4.42-4.59-6a7.69,7.69,0,0,1-6.7-.31,9.23,9.23,0,0,0,1.25-2c1,.76,2.7.87,2.92,2.43,3-1.27,3.82,1.37,6.77,1.45A10.08,10.08,0,0,1,371.39,567.29Zm47.51-82.4c-.4-1.38.69-1.26.49-2.43h1.46C420.42,483.48,420.84,485.35,418.9,484.89ZM548.54,356.78l2.31.69c-1.43,4.25,1.39,5.65,0,8.36l3.06.94c-2.21,4.17,1.51,5.19-.27,9.13,2.13.78,2.77,2.37,4.9,3.16-.8,2.88.19,2.44-1.4,4.59l3.06.94c.86,5.9-3.09,6.5-2.95,12.49-5.75-2.34-7.37,3-10.76,5.1-2-3.22-5.48-5.42-5.81-8.46-.61-5.83,4.67-11.23,6.13-17.4C548.57,368.71,545.52,362,548.54,356.78Zm10.13-.28c-1.33-7.22-13.79-3.76-14.7-9.48,3.81,2.29,5.13,0,7.6-.21,2.21,2.07,5.1,4.21,8.72,4.33-.82,1.94-.72,3.38,1.38,3.76,4.29-3.34,6.54,3.09,12.18,1.2,1.12,1.55,2.89,2.75,1.68,5.54C568.26,361.74,564.47,356.31,558.67,356.5ZM681.9,296.84c2.27-.14,3.34-1.48,5.61-1.6-.55-4.29,3.3-4.18,2.4-8.82h3.2c-.58-3,2.52-3.53,2.41-8h2.4c1.37,5.83-3.51,11.41-4,19.23-.4,6.32,3.08,13,.79,18.42-1.19,2.81-5.16,3.9-8,6.4-2.65-2.95-2.63-8.58-8.81-8,1.87-5.7-1.73-7.41.8-12.82h3.2C681,299.11,681.83,299.82,681.9,296.84Zm4.81,55.26a12.89,12.89,0,0,1-5.4-.39,9.65,9.65,0,0,0-2.55-4.71A57.37,57.37,0,0,0,680.17,336a32.45,32.45,0,0,0,4.14.12c-1.24,5.24,2.41,5.6,4,8C686.56,347.4,684,347.83,686.71,352.1ZM605.2,374.39a9.87,9.87,0,0,1-4.63-4.29,3.85,3.85,0,0,0,3.49-.45A10.84,10.84,0,0,0,605.2,374.39ZM668.56,326c.2,1.65,1.74,2.59,2.9,3.72-2.68,6.73-2.75,9.69-3.07,14.64a11.7,11.7,0,0,0-3.3-.27c.32-3.27-.83-5.05-4-4.8-.58-2.47,2.21-1.54,1.6-4-1.55-1.92-3.83-3.1-4.8-5.61-.43-2.83,1.3-3.51,2.41-4.81C663.28,327.89,665.7,326,668.56,326Zm-5.71,70.59c-1.76-4.77-1.31-9.94-.71-15.09a17.22,17.22,0,0,0,5.35-3c-3.26-1.72-1.57-6.34-1.89-9.35a9.88,9.88,0,0,1,3.1-.12c2.18-7,6.9-9.14,11.37-11.8a22.24,22.24,0,0,0,3.43.45c-.07,4.07,4.4,5.14,1.6,9.6-6.86-2.44-5.9,3.13-11.21,4-.11,2-.12,3.86.81,4.81,4.17-.06,5.93-1.28,9.61,0-.4,4.14-6,3-8.82,4.8-1,3.69,1.46,3.89,2.41,5.61-1.69,3.39-1.88,8.27-3.19,12C671.14,397.44,667.44,396.35,662.85,396.58ZM624.24,287.22c-.66-2.26,1.12-2.08.79-4h2.41C626.72,284.9,627.42,288,624.24,287.22Zm-23.45,7.06c-.53-1.48-2.16-1.87-1.38-4.66.87,1.46,1.83,2.82,2.8,4.17A10.31,10.31,0,0,1,600.79,294.28Zm-4.58,9c.24-1.46-.72-1.71-.92-2.71,4,.52,6.56-2.38,10.32.77a2.87,2.87,0,0,1,.92-1.09,25.07,25.07,0,0,1,3.29,7.83c-4.12-.11-6.43,1.6-8.81,3.2,1.11,1,.49,3.79,1.6,4.82a24.66,24.66,0,0,0,4.12-.28c-1.83,2.08-4,4.36-5.19,4.38A17.65,17.65,0,0,1,591.82,309,13.3,13.3,0,0,1,596.21,303.24ZM580.46,433.46c2.35,6.21,3.66,20.39-8,12.62.36-2.52,2-2.66,2.93-4.12-.8-1.5-4.3-1.56-2.9-4.24C573.88,434,577,433.39,580.46,433.46Zm-181,72.5a6.31,6.31,0,0,0-.59,1.62,7.35,7.35,0,0,1-.74-2.44A5,5,0,0,0,399.48,506Zm47.65,153.76a10.84,10.84,0,0,0-.26,3.95c-1.77-.34-2.66-1.57-4.45-1.89a3,3,0,0,1-.62,2c-.08-.06-.1-.15-.18-.22,1.34-3.4,1.87-7.61,3.69-10.52,4.51,1.34,9.07,1.38,9,6C451.58,658.54,449.44,659.31,447.13,659.72Zm-56.76,46.81c-.14-1.12,1.41-.54,1.46-1.46,0,0,0-.08,0-.11H392c-.06.6-.11,1.2-.2,1.78A8.86,8.86,0,0,1,390.37,706.53ZM494.9,507c.31,1.54-.14,3.52-.11,5.64a2.11,2.11,0,0,0-1.41-.47C493.81,510.39,494.31,508.66,494.9,507ZM372.06,633.38c-1.48,2.46,1.23,2.94,1.4,5.18a9.78,9.78,0,0,1-4.44,1.38c-2.8-.6-2.81-2.46-3.65-3.93a4.89,4.89,0,0,0,3-3.23A4,4,0,0,1,372.06,633.38Zm35,9.72c1.36-.65,3.38-2.46,4.87-1.46,0-1.66-3-.28-2.92-1.94a12.84,12.84,0,0,1,4.38-3.6,6.28,6.28,0,0,1,.24,3.41c.37.16.69.24,1.05.38-.71,2.37-1.81,3.92-2.78,7.9-1.61-.75-3.15-1.45-4.46-1.35A3,3,0,0,0,407.08,643.1ZM379.3,640c0,.11-.1.16-.14.29-1.37-.16-1.48-.9-1.67-1.6.51,0,1.1,0,1.86,0A4.12,4.12,0,0,0,379.3,640Zm-2.76,16.42a12.74,12.74,0,0,1,2.78-2.84c.67,1.26,1.74,2.15.52,4.1a4,4,0,0,0-2.55-.22C377.05,657.12,376.74,656.75,376.54,656.43Zm4.38-30c.79-4,1.79-4.43,3.36-9a5.92,5.92,0,0,0,1.05.44c.39,3.06,1.43,6.13.34,8.7-.72,1.71-3.14,2.37-4.86,3.9-1.08-1.22-1.51-3.08-2.77-4.12A4.68,4.68,0,0,1,380.92,626.42Zm42.54,32.93H421a4.47,4.47,0,0,0-1.75-3.23c0-.25,0-.5-.07-.75a19.09,19.09,0,0,1,1-3h3.41c.43-1.57-1.27-1-1.46-2,0-1.75,1.88-1.69,2.44-2.92,1.93.61,1.89,3.19,2.89,4.73-.09,2.11-.79,4-.63,5.68.06.63,1.06.32,1.46,1.46a4.08,4.08,0,0,1,.11.9c-.19.85-.37,1.67-.58,2.51-.52-.75-1-1.52-1.52-2.27a5.3,5.3,0,0,1-2.52-.33C423.72,659.86,423.5,659.69,423.46,659.35Zm25.67-132.74c2.54,2,3.78,1.53,5.86,1.47.14,1.27.88,2.12,1.22,3.08a13.82,13.82,0,0,0-1.4,1.69c-2.17-1.58-4.35-3.17-6.43-4.82A2.63,2.63,0,0,0,449.13,526.61Zm-1,29c-.12,3.31,1.54,6.53-1.47,7.57a9.14,9.14,0,0,0-1.57-3.29,19.37,19.37,0,0,0,.94-3.41c-3.05,0-3.55-2.62-5.84-3.41-.66.16-.93.69-2,.49a9.09,9.09,0,0,1-2.13,5.72c-.41-2-.4-4,.82-5.35.15-1.11-1.41-.54-1.45-1.45a9.06,9.06,0,0,0,2.49-2.24A42,42,0,0,1,448.1,555.64ZM346.78,604.77c0-.32.08-.65.08-1a1.29,1.29,0,0,0,.87-.6,6.44,6.44,0,0,0-.67-1.93,5.35,5.35,0,0,1,.09-1.17c-4.2-1-2.75-4.55-7.41-5.33.11-.29.22-.59.32-.89a2.76,2.76,0,0,1,1.83-.41c-.12,1.43,1.1,1.49,1,2.92,1.6,0,2.43-.82,4.38-.48.21.92,1.05,1.22,1,2.43a9.28,9.28,0,0,1,3.9.48c.33,1.78.81,3.41,2.92,3.4C352.85,604.53,350,604,346.78,604.77ZM455.87,670.7h0s0,0,0,0Zm12.16-196a2.15,2.15,0,0,1-1.7,1.15c-.12-.4-.27-.79-.37-1.22A3.1,3.1,0,0,0,468,474.67Zm-49.08,99a3.18,3.18,0,0,0-1.17-.61s.06-.06.08-.1C418.21,573.18,418.56,573.42,419,573.66Zm-81.44,11.7a3.42,3.42,0,0,0-1,.34,5.15,5.15,0,0,1,.13-.64A7,7,0,0,1,337.51,585.36Zm-1.08,102.37c1.85,1.35,3.53,2.85,5.23,4.34a48.56,48.56,0,0,0-2.37,4.73c-2.08,0-2.05-2.48-4.37-1C335.6,692.1,336.26,690.39,336.43,687.73Zm110.62-14.36c-.09-.49-.34-.9-.45-1.38a3.07,3.07,0,0,0,.21-2.43c1.31,0,1.78-.9,3-1a10.13,10.13,0,0,0,5.59,2c-.55.19-.87.61-1.79.42a8.49,8.49,0,0,1-.13.92A22.64,22.64,0,0,1,447.05,673.37ZM489,417.75a3.85,3.85,0,0,1,.06.55c-.06-.06-.12-.09-.18-.16s0-.3,0-.47C488.9,417.71,488.94,417.71,489,417.75ZM400.53,529a11.61,11.61,0,0,1-4.32-2.6A28.94,28.94,0,0,1,400.53,529ZM404,555.53c-1.4.58-2,3-2.72,5a28.78,28.78,0,0,1,4.38,2.51,2.93,2.93,0,0,1-.05.29c-2.18-.23-1.66,2.24-2.43,3.41a5.39,5.39,0,0,1-3.41-4.37c-.17,0-.26,0-.43,0-1.78-.94-2.47.52-4.43-.78-.4-3.14,1.32-7.26-3.75-8.26C394.76,549.73,398.81,553.69,404,555.53Zm-89.15,96.64c1.33,1.25,4.46,1.7,2.63,4.39-2.35-.17-1.55-1.78-3.48-2.14Zm359-381.77c4.86,3.45,8.88-2,12,2.41,2.11.24,2.62-1.12,2.4-3.21,3.5.93,6.9-.26,9.61-1.6,2.3.89,2.91,3.49,7.21,2.4-2.54,5.22-13.45-1.73-16.82,4.81-5.49-1.88-10.71,2.22-17.62,0C670.34,272.19,672.38,271.56,673.89,270.4Zm-55.26-39.24c10.54-.35,20.75,3.73,20.83,11.21,4.07,2.34,6.32,6.49,8,11.21-.72.35-1.43.7-1.6,1.6-5.77-1.9-14.06,0-17.62-5.61a2.22,2.22,0,0,0-1.6,2.41c-4.52-1.52-7.77-6.75-12.81-3.2C614.23,240.08,619.18,239.64,618.63,231.16Zm-4,27.23c-.58,2.45.81,2.92.79,4.81,3.68.73,3.88-2,7.21-1.6-.21,2.34,1.82,2.45,1.61,4.8,2.63,0,4-1.36,7.21-.8.34,1.52,1.72,2,1.6,4,2.75-.35,4.48.32,6.41.8.54,2.92,1.32,5.62,4.8,5.6-4.14,4.37-9.82,2.36-16,4.81-.12-2.53,3.25-1.55,4-3.2-1.89-10.83-15.07-8.43-22.42-8,.72-5.07-1.42-5.59-1.6-12.82C610.64,257,611.08,259.26,614.63,258.39ZM588.2,216.74c2.11-1.09,5-1.36,4-5.6,2.83-.43,5-1,6.4,1.6,1.85-1.1,2.58-3.3,4-4.81.93-.13,1.42.17,1.6.8.67,11.13-7.38,20.34-11.21,29.64-3.44-.06-3.39-4.09-7.21-1.61C587.4,228.05,589,226.15,588.2,216.74ZM552.63,310.3c.29-1.27,1.17-1.45,1.54-2.56a19.4,19.4,0,0,1-.34,2.9Zm1.6-3c-3.61-3-2.85-6.18-1.2-9.53A32.11,32.11,0,0,1,554.23,307.34ZM540,321.53c5.35-2.06,10.74-4,15.39-7.37,3.68,6.5,7.17,13.19,8.28,22.26-1.57.05-1.87,2.49-3.7,2.07-1.39-.55.32-2.75-.6-3.54C554.48,332.64,537.08,333,540,321.53Zm-5.08,124c-1.38-5.08,3.21-4.81,4.32-8.73,3.94,1,7.72,1.61,8.54-3.26-.77-.24-.72-.9-1.3-1.23-3.13-1.05-5.2-.13-8.67-1.8,3.85-3.29,1.52-4.45.81-8.14,2.22-1.83,5.82-1.12,6.16-6.49,4.57,1.53,5.56,1,9.19,2.8,1.2-3.77,6-3,4.86-7.73,5.59-2.05,6.94,4,12.2,1.2.68,1.57,2.14,2.72.9,5.29-1.65,2.13-4.19,2.6-6.23,4-1.29,2.18,1.65,2.12.37,4.31-3-1.18-4.6.2-5.23,3.43-3-1.14-5.43-1.34-6.84.42.23,6.62.58,10.75,4.24,16.37-.32,2.21-3.07-.16-3.76,1.35-.85,1.95,2.78,1.52,1.35,3.77-5-.41-2.15,9.34-7.32,10.33a14.91,14.91,0,0,0,3.77,4l-16.19,7.1a24.24,24.24,0,0,0,.12-6.45c1.42-1.37,3.84-.85,3.94-4.66-2.14-2.5-7.86-3.1-7-7.17,3.89-.16,5.23,1.53,9.2,2.8,1.15-.63,1.7-2.45,2.17-4.37C539.65,450.26,542.21,445.21,534.92,445.55Zm-22.14-89.61a7.76,7.76,0,0,1-2,12c-.22,2.89,3.14,3.87,2,7.29-6.81-3.66-5.75-13.42-12-15.39,1.9-3.59-.8-4.71-.19-7.6,3.67,2.49,4.31-.72,5.76-2.43,4.27,1.25,8.08-1.54,10.19,2.25C516.1,355,513.46,353.59,512.78,355.94Zm-1.21-75.73c-2,3.41,3.36,2.92,3.42,5.23,0,3.12-2.57,1.62-2.93,4.14a5.62,5.62,0,0,1,3.66,4.46c-1.55-.12-2.43,1.06-4.29.37-1-.63-.86-5-2.37-3.23-.45,1.53,1.8,1.6.61,3.53-3.45-1.37-.3-7.48-5.74-5.93C507.59,285.94,506.68,281.35,511.57,280.21ZM499.5,322.6c2,1.29,2.31-.49,4.06.39-1.16,3,.22,4.59,3.43,5.24.09,3.12.78,5.13-2.1,6.89,1.35,1.41,3.89,2.2,3.67,4.46-5.36,1.23-7.73-3.41-12.43-.44C494.72,332.71,497.53,329.62,499.5,322.6Zm-9.83,59.79c-2.29,4.64,2,5.77,4.27,8-.17,2.5-2,1.85-2.16,4.36,2.93,2.28,4.43,5.34,5.79,8.46-.73,2.64-4.8-1-5.54,1.66,2.83-.87,5.14,2.95,7,4.63a4.68,4.68,0,0,0-2,3c-2.1-4-4.2-8-8-6.23-.37-3.59-.83-6.29.3-11.5-2-.6-4.29-1.62-5.59-.86C485.33,388.69,484.66,383.08,489.67,382.39ZM469.31,408c.28,2.2,3.22,3,2.44,5.77-.76,1.37-3.15-.31-3.23,2.36l5.36,1.63c.56,3.14.28,6.7.26,10.13,1.32-.76,3.57.25,5.61.86.31,2.75-.61,2.62-1.64,5.37a4.46,4.46,0,0,1,3.16,1.24c.27,1.38,1,1.62.39,3.79-2.18-.24-1.66,2.23-2.43,3.4a5.41,5.41,0,0,1-3.41-4.38c-2.07.29-3.22-.35-4.86-.48-1.35,4.34,3.42,10-1.95,12.16a1.06,1.06,0,0,0,.11.48,10.88,10.88,0,0,1-5.79-.62c-.05-.05-.06-.12-.11-.16.13-1.48,1.1-1.89,3.84-1.64,3.8-4.51-2.63-10.28,1-14.6-2.68-.22-.61-2.86-1.45-5.35-2.8-1.62-6.3-2.54-9.15-4.09a28.9,28.9,0,0,1,2.2-8.77C464.25,415.35,464.85,408,469.31,408Zm-53.82,42.82c.41,0,.79.08,1.18.09-.7,2.43-1.37,4.92-2,7.43a36.84,36.84,0,0,1,9.82,5.75,5.09,5.09,0,0,1-3.14-2.08,1.35,1.35,0,0,0-1,1.46c-2.74-.92-4.72-4.1-7.78-2C412.82,456.25,415.83,456,415.49,450.83Zm-2.43,16.54c-.34,1.49.5,1.77.49,2.92,2.23.45,2.35-1.22,4.38-1-.12,1.43,1.1,1.5,1,2.93,1.6,0,2.43-.82,4.38-.49.21.93,1.05,1.22,1,2.43a9.27,9.27,0,0,1,3.9.49c.33,1.78.81,3.41,2.92,3.4-2.51,2.65-6,1.44-9.73,2.92-.08-1.53,2-.94,2.43-1.94-1.15-6.58-9.15-5.12-13.62-4.87.44-3.08-.86-3.4-1-7.79C410.65,466.55,410.92,467.91,413.06,467.37ZM410,497a43.53,43.53,0,0,0-9.39-1.08,6.32,6.32,0,0,1,1.31-1.28c.19-1.17-.89-1.05-.49-2.43a39.46,39.46,0,0,1,3.4-2.43c.06-1.51-1.52-1.39-1-3.4C405.91,489.84,408.79,492.54,410,497ZM397,442.08c1.29-.66,3.06-.83,2.44-3.41,1.71-.25,3-.58,3.89,1,1.12-.67,1.56-2,2.43-2.92.56-.09.86.1,1,.48.41,6.76-4.48,12.35-6.81,18-2.09,0-2.05-2.48-4.37-1C396.53,449,397.5,447.8,397,442.08Zm-5.34,82.7a18.36,18.36,0,0,1,2.71.93c-.91.89-2.45.43-4-.07a3.81,3.81,0,0,0-.26-2.55C390.63,523.67,391.18,524.18,391.67,524.78Zm-12-18.54a7.4,7.4,0,0,1-1.51-.55,10.08,10.08,0,0,0-.4-3.2C378.46,503.7,379.1,505,379.69,506.24Zm-10.26,52.65c-2.37-1.29-4-2.92-4.19-5.79h1.35A41.65,41.65,0,0,0,369.43,558.89Zm-8.83-15.33c2.66,1.29,1.92,4.11,5.91,4.79a5.65,5.65,0,0,0-.13.79c-3.49-1.54-7.89,1.45-10.38,3.47-1.22-.75-1.63-2-3.4-1-.57,1.58,1.48,3,0,3.89-.89-.65-1.09-2-1.29-3.36,1.11-1.59,2.93-3.07,3.86-5.49C357.39,546.56,360.35,548,360.6,543.56Zm-22.9-18.81c6.79,2.71,11,2.35,15.2,7.4-5.22,1.92-3,6.61-7.21,10.12-1.94-1.2-1-3.67-1.31-5.62-3.14,1.2-4.32-.56-6.76-2.53,1.45-3,1-5-2.06-5.9C335.92,526.3,337.54,527.1,337.7,524.75Zm-59.86,128.1c-8-3.42-6.71-8.21-14.83-10.68,3.37-10,10.77-18.12,17.79-15.57,3.62-3,8.3-3.63,13.3-3.57a2.45,2.45,0,0,0,.95,2.07c-3.8,4.73-4.94,13.16-11.42,14.54a2.2,2.2,0,0,0,1.69,2.33C282.31,645.68,276.28,646.89,277.84,652.85Zm18.08,11c-4.47-2.45-5.73-.61-12.57-3,1.1-2.18,3.35-1.82,3.77-5.46,2.09,1.42,3,.28,4.77.95,2-3.17-.53-4.32,1-7.32,2.13,1,2.94-.84,5.06.19.9-2.48.13-4.21,1.77-7,1.55.21,2.5-.93,4.31-.1A11.56,11.56,0,0,1,306,638a24.49,24.49,0,0,1,.42,3.12,18.46,18.46,0,0,1,6.94,5.25,19.63,19.63,0,0,0-.44,4.15c-2.4-.75-.31-3.57-1.59-4.85C300.49,643.7,298.13,656.87,295.92,663.89ZM311,680.67c5.07-.93,9.67-2.89,14.93-3.41,1.33,1.33,3.6,2.77,2.31,5.25.86.45,1.58,1,2.4,1.53a34.74,34.74,0,0,0-1.59,8.38,5.86,5.86,0,0,0-2.27,2.36,13.62,13.62,0,0,1-4.14-6.34c-1.69-1-2.14.76-4-.66-.54-2.24-1.45-4.32-1.78-6.66C314.55,680.18,313.82,682.7,311,680.67Zm37,68.18a3.27,3.27,0,0,0,2.43,2.93c.61,2.55-1,2.87-1,4.86-4.08-.47-7.14-1.95-8.28-5.36-5.86-.68-4.34-12.15,0-15.08.2-1.17-.89-1.06-.49-2.43,1.16-.78,2.15-1.74,3.41-2.42a1.17,1.17,0,0,0-.1-.41c.48.13.91.16,1.4.31,1.67,2.3,3.35,4.6,4.06,7.87a8.32,8.32,0,0,0-5.36,1.94c.67.63.3,2.3,1,2.93,2.41,0,2.4-.48,4.39,0-1.46,2.47,2.07,2.3,1.94,4.86C350.53,749.82,349.16,749.09,348.06,748.85Zm10.21-22.38c-.4-1.37.69-1.26.48-2.43h1.46C359.78,725.07,360.2,727,358.27,726.47Zm14.1,39.42c.28,1,1.21,1.38,1,2.91-8.17,2.44-4.89-5.56-2.43-8.76,2,.57,3.72,1.47,3.89,3.89C375.14,765.74,373.1,765.15,372.37,765.89Zm23.84,0c-2.31.35-3.34-.55-5.35-.49-.39.08-.49.49-1,.49-.38,3,1.93,3.26,4.39,3.4,0,2.47,2.66,3.13,1,5.83-4.17-1.48-3.59,1.9-6.82,2.44-.06,1.19-.07,2.34.5,2.91,2.53,0,3.61-.77,5.83,0-.24,2.52-3.67,1.85-5.35,2.92-.62,2.25.88,2.36,1.46,3.41-1.46,2.91-1,7.74-3.4,9.73-.45,3.55,1.75,7.16-1.47,8.27a11.55,11.55,0,0,0-1.94-3.89c-3.72.42-5.74,3.16-4.38,7.3-3-2-6.48-9.16-3.41-12.66.16-1.11-1.4-.54-1.45-1.45,2-1.12,3.11-3.06,4.37-4.87-.59-.87-.08-2.83-1-3.41,1.39-2,4.6-2.2,6.32-3.89-2.83-1.49.57-6.64-2.43-7.29-.43-1.57,1.61-.67,1.46-1.95-.13-1-2.15-.11-1.95-1.45,3.13-2.61,4.06-5,5.36-8.76-.51-1.27-2-1.59-3.89-1.46.2-2-.5-3.07-2.44-2.92-.36-1.5,1.34-.94,1-2.43-.94-1.17-2.33-1.89-2.91-3.41-.26-1.73.79-2.13,1.45-2.92,2.56,2.58,4.42-.72,7.31,1.46-1.52,2.54,1.43,2.94,1.46,5.35,2.43-.41,2.9.09,5.83,0-.75,3.18,1.46,3.4,2.44,4.87C396.12,763,394.56,763.29,396.21,765.89Zm6.82,67.6c-4.84-1.4-.46-7-3.41-9.23.61-2,1.23-4,3.41-4.38-2-2,1.07-5.16,4.37-4.86C408.26,821.83,407.14,830.13,403,833.49ZM423,734.26a4.72,4.72,0,0,1,1-7.3c0-1.48-1.75-1.16-1.46-2.92,1.9-1.83,3.62.46,6.33.49.54,1.25.33,3.23,2.91,2.43-.16,1.78-1.92,2-1.46,4.39-4,0-5.11,5.89-9.73,6.8C420.46,736,422.59,736,423,734.26Zm3.41,75.41a11.32,11.32,0,0,1-4.39-1c1.23-4.09,5-7.78,9.25-7.3C430.62,805.15,427.74,806.66,426.38,809.67Zm15.08-22.87c-3,0-3.5,2.36-5.36,3.4-3.17.25-4.3-1.53-6.81-2-2.25.53-6.54,4.85-7.78.49,3.19-.53,4.39-3.07,8.27-2.92.05-2.81-3-2.53-3.9-4.37,1.51-.93,1.22-3.65,4.38-2.92-.1-1.78-.66-1.87,0-3.41,1.3,0,2.78-.18,3.41.49a37.24,37.24,0,0,1,1.94-5.83H439c.43-1.57-1.26-1-1.46-1.95,0-1.75,1.88-1.69,2.43-2.92,2.6.81,1.65,5.16,4.38,5.83C445.1,775.9,442.57,781.89,441.46,786.8Zm19.94-45.74a3.21,3.21,0,0,0-2.43.5,12.78,12.78,0,0,1-4.87,8.27c.13,2.39.19,4.73-2.43,4.38-2.71-2-4.47-8.84-1.95-11.68-1.36.07-1.4-1.19-1.46-2.43,2.66-.32,2.45-3.81,3.41-5.36,1.18-.19,1.06.9,2.43.49.21-1.26.13-2.31,2.93-1.94.84-1.62-.25-2.15,0-4.38,3.69-1.21,4.65-5.18,7-7.78l-.57,16.22C462.51,738.35,461.3,739.05,461.4,741.06ZM729.16,422.57c2-6.72,8.28-12.8,15.21-12-1,6.19-5.75,8.67-8,13.61A18,18,0,0,1,729.16,422.57Zm32-36c-4.87,0-5.74,3.89-8.82,5.61-5.21.4-7.07-2.53-11.21-3.21-3.7.85-10.77,8-12.82.81,5.25-.89,7.24-5.05,13.62-4.81.09-4.63-4.91-4.17-6.41-7.21,2.48-1.53,2-6,7.21-4.8-.17-2.93-1.1-3.07,0-5.61,2.13,0,4.58-.3,5.61.8,1-3.28,1.77-6.77,3.2-9.61h5.61c.7-2.58-2.08-1.66-2.41-3.2.07-2.88,3.1-2.78,4-4.81,4.27,1.34,2.71,8.5,7.21,9.61C767.21,368.6,763,378.44,761.2,386.53Z"/></g><path class="cls-4" d="M559.92,64.86c9.28-3.55,18.21,14.7,29.88,13.51,11.09,12.42,6.53,30.6,14.58,35.55,8-6.59,5.75-22.49,15.53-25,2.76,22.71-23,43.74.06,63-14.72,5.69-3.87,22.08-4.87,33.5,12.87-4.52,14.34-22.37,33-27.84,3.37,4.79-3.14,5.45-1.89,9.36-16.46,8-15.12,23.47-22.82,35.13,9.23-4.27,20.68-16.39,26.86-25.32,3.75,14.44-9.46,21.76-17.21,31.39,3.21,1.22,8.32-2.09,11.31-.35.34,6.57-2.41,11.85-9.45,15.34,1.82,3.74,5.21,3.71,7.92,5.35,6.26-9.23,24.85-9.87,33.53-19.49-2.58-8.4-6.86-19.73,4.93-26.37.84,8.82-4.27,15.14,2.2,26.31-4,5.76-13.16,9.38-13.14,16.83,2.29,5.14,10.64,8.46,9,14.94-7.6,2-10.42-7.45-15.12-12.42-8.39-3.27-13.12,6.51-16.86,11.21-8.89-2.19-18-3.89-25.43-9.61-15,7.64,5.65,18.7,6.6,23.06-17.34,4.5-22,20.62-24.53,34.41,4.89-1.19,6.38,5.76,10.86,5.56,21.61-9.22,10.37-32.21,23-45.21,5.07,8.32,1.3,20.53,2.49,30.48,5-1.61,1-7,4.83-9.14,9-1.06,12.95-1.21,16.65-8.26,2.77-.93,3.91,2,5,5.12,9.63-4.1,7.79-13,19-16.41-.28,5.3-4.85,8.81-5.79,13.84,1.12,4.6,5.57,1.22,6.7,5.83-3.62,2.17-5.51.22-8.36.57-1,9.74-7.74,17.07-9.12,26.65,9.65,2.69,17.83-1.58,25.52-7.61,5.22,15-22.84,11.71-27.12,21.15,1.38,6.4,6.1,4.86,7.47,11.25-6.64,3-9.27-3.73-15.26-2.33-4.38,1.56-7.71,3.54-8.81,6.46-22.07.92-33.16,35.57-58.82,24.14,5.44,13.72,28,7.39,39.25,15.41,5.44-1.12-.11-6.82,5.34-7.93,2.87,5.23,6.8.73,10.82-1.56.47,8.47,1.13,10.73-1.34,17.72,7.72,1.52,13.71-5.79,20.92-1.42-13,15.28-41.1,22-64.46,27.88-8.77,2.22-19.53.66-27,3.92-4.71,2-10.59,10.45-17.1,14.18-2.6,1.48-5.8,1.56-7.35,3-6,5.64-5.08,18.35-13.07,24-3.23,2.29-9.64,2.11-14,4.31-11.06,5.58-17.85,12.9-35.06,15.8-1.45-5,5.32-6.58,3.85-11.6-13.07,3.88-32.13,7.27-44.74,2.62,2.68-4.81,8.05-5.37,15.43-7.77-.51-1.22-1-2.45-1.52-3.67-4-2.6-5.77,4.27-11,4.52-2.25-4.33,6.58-4,1.89-9.36,10.05,1.45,15.95-5.54,22.79-10.78q-1.76-4.28-3.52-8.57c8.19,3,31.78,0,31.85-13.07-12.83-10.43-26.46-20.14-43.92-16.35-16.17,3.51-33.73,17.41-53.92,22.12-4.48-15.66-20.3-1.23-28.33-2.7-3.69-3.93,5.39-2.49,1.67-6.41-1.39-6.38-8.71,1.4-10.36-4.34,4.19-5,8.11-4.5,13.19-9.71,10.46,12.22,26.33,11.5,45.54,2.8-6.22-7.78-15-9.32-22.76-13.58-4.36,3.14-6.71,3.87-11.53,3.3-3.79-5,1.4-6.18-1.55-10.8-9-3.73-17.35,1.59-23.81,8.31-2.34-3.68-1.5-6-2.29-9.07-23.72,8.18-36.37-10.12-51.11-23.41,3.86-.41,2.46-3,5.61-3.74,10.91,12,23.62,19.59,39.53,19.58,3.83-2.47-1.76-8.86.88-11.81,5.56-1.52,4.53,3.48,6,7.56,26.61-.53,48.91,9.27,71,19.55l8.57-3.52c-2.28-9.92-10.8-4.92-16-7.74,5.94-12.13,18,1.84,28.26-4.41-11.32-11.35-28.35-1.88-40.49-14.9-4.1.65-3.95,3.09-6.84,4.23-8.85-22.63-29.66-37.45-47.63-46.31,8.43-2.47,16.35-6.05,23-13.73-7.89-3.67-6.47-11-8-19.61-14.53-3.53-24.47,17.55-39.73,14.86-9.63-1.7-11.41-13.28-21.31-17-8.38.65-19.75,8.41-27.24,6.88.9-7.24,7.6-9.6,15.15-11.95-2.39-3.34-3.1-22.91-14.68-18.31-1.17-3.2,4.06-3.71,2.89-6.92-2.08-7.13-9.63-1.22-12.6-6.28,3-.78,4.63-2.13,5.63-3.74-.62-10.65-11.25-7.59-10.22-14.43,31.47,6.33,44.36,80.83,84.1,51.43-3.19-9.39-10.63-8.57-17.78-8.46-1.7-2.74,5.85-1.61,2.16-5.18,7.43-2.43,11.85,2.39,18.95.8a27.38,27.38,0,0,1,2.61-11.09c-7.48-3.83-13.3-8-14.18-17.1-9.3-2.69-21-10.44-24.76-18.46,13.85-1.53,21.89,10.78,33.35,14.95,9.38-17.21-11.3-27.81-16.59-40.44,2.11-.46,1.62-2,3.17-2.73,16.85,4.23,23.53,29.89,29,49.67,6.9-1.17,6.2-5.52,9.51-8.19,4-1.45,6.53.56,7.92,5.34.79-1.21,1.59-2.38,2.46-1,9.67-10.86-2.55-30.85-3.11-46,14.56,2.45,10.67,24.53,20.49,36,6.28-10.79-1.67-42.36-17.16-48.8,9.76-8.1.64-24.1,7.82-33.27,1.48,23,9.84,33.91,20.17,56.15,0-12.51-6.11-27.6,3.87-35.94,3.21,9-3.06,31.05,12.07,29.4,2.26,7-6.67,9.4-6.51,15.56,7.76,9.61,17.82,26.15,12.14,36.54,2.83,5.33,8,5.22,10.42,11.47,2.91-1.83,4.94-4,5.85-6.69-2-6.52-7.93-3.73-9.94-10.24,3.29-3,3.39-1,5.63-3.74-6.38-6.16-8.73-17.13-5.88-24.8,6.18.59,6.68,14.8,12.45,16.38,3.34-22.63-27-47.08-19.08-70.92-2-7.4-9-2.82-11.87-8,1.18-.52.33-1.88.22-2.95,5.83-3.45,8.63.38,13.76-1.35,4.3-4-3.2-12.85,3.56-15.78,5.71,6.18,5.21,13.84,3.86,19.89,7.4,1.84,8.72-6.08,13.7-8.48,2.73,1.58,4.42,5.63,7.91,5.34,4.55-.81.17-5.35,2.9-6.91,11.33-.4,10.84,27.48,26.7,16.24,9.72,33.24,27.2,61.56,29.35,92.49,2.51,2.88,3.14-3.29,7.36-3-3.66,4.16-3.23,14.5,2.14,19.17,3.87-.41,2.46-3,5.63-3.74-.77-4.66-3.77-4-4.76-8.08,5.59,0,1.24-4.22,3.4-5.69-9-16.2-4.12-24.15,2.64-35.44-.94-5.84-4.85-4.6-7.19-7.08,3.27-9.85,2.69-24.23-4.5-35.37,6.76-2,10.36-7.59,14.65-13.17,3.57-3.69,2.45,3.85,5.17,2.17,6.87-2.86-1.75-11.79-3.57-15.72-1.64-2.53-6.52,2.64-8.35.58-1.53-4,2.59-5.68,3.61-8.65-2.7-4.07-6.31-6-9.43-9-.45-1.88,3.48-1.93,2.67-4-2.69-1.68-4.22-6.09-8.64-3.63,10.29-12.86,18.61,17.76,30.88,16,5.05,17.68,4,32.83,2.39,47.71,5.48,2.17,3.13-4.65,7.57-6a8.64,8.64,0,0,1,3.74,5.62c4.1-1,3.71-4.63,7.35-3,1.47,5.68-4.73,8.17-4.55,13.32,2.41,1.22,4.35-6.93,9.3-5.25,1.45,3-.38,4.58.07,7.13,3.25-1.35,7.18-2.42,8.07-4.75-.92-4.27-3.18-5.36-4.75-8.08,2.89-1.19,4.47.63,7.86-1.78C599,159,597.44,147,602.4,140.49c-7.93-3.1-10.69-18.09-6.88-27.25-4.22.38-6.74-3.27-8.92-7.78,6.73-7.17-.65-24.33-13-17.6C574.62,76.75,560.87,71.64,559.92,64.86ZM478.18,197.17c-.13-4.17-.13-7.57,5.85-6.68.81-16.43-4.42-63.28-27.9-40.1.67,5-1.51,8.84,1.85,15,3.12,1.39,2.71-2.27,7.36-3,1.47,2.12,3.9,2,5,5.12,1.32,5-5,10.88.12,14.27,5.42-3.15-.4-11,7.51-13.1C484.81,179.78,470.43,192.41,478.18,197.17Zm14-28.65c2,2.51,6.28-.49,8.14,2.39,1.54,5.73-4.09,8.45-2.83,14.05,3.77,1.67,3.75-2.73,8.57-3.52-4.66-9.3-4.38-22.12-15.47-23.73C490,160.81,492.32,165.2,492.21,168.52Zm64.47,3.62c4.62-6.32,1.55-10.61,1.32-17.72C552.5,158.21,555.6,165.59,556.68,172.14ZM409.3,252.64c-3.94-5.7-5.56-23-15.68-20.77C401.19,237.78,401.44,251.49,409.3,252.64Zm-1.67,6.4c-5.46-8.75-13-12.65-17.91-22.71l-7.34,3C387.6,253.56,394.56,263.62,407.63,259Zm87.48-65.94c-3,6.18-6.56,12.13-6.2,19.73,4.73,4.85,10.62,6.95,15.1,12.41,2.7-5.68,5.2-3.13,11-4.53C515.29,210.61,508,186.77,495.11,193.1ZM434.23,261c4.88-.35,9.27.46,11.37,6.79a10,10,0,0,0,4.85-9.15c-8.28-5.28-13.1-18.89-22.1-22.43C422.44,247.32,439.77,251,434.23,261ZM570.13,191c4.18-1.69,3.17-10.79.87-11.81C570.8,183.11,567.35,185.74,570.13,191Zm-77.36,41.76c-1.78-3.85-2.65-9.87-7.2-7.06C484.15,229.78,489.42,232.58,492.77,232.72Zm93.42-34q6.72-2.28,3.61-8.64Q584.17,192.77,586.19,198.69Zm14.48-3.08a8.66,8.66,0,0,0,5.64-3.73c-.8-1.37-1.22-3.58-2.75-3.18C604.36,191.74,598.05,191.81,600.67,195.61ZM456.24,276.34c-1.89-6-4.41-10.49-10.14-7.31C449.68,274.84,448.26,279.48,456.24,276.34Zm146.64-54.42c.74-5.44,2.79-10.34,3.54-15.78C596.13,203.92,593,221.49,602.88,221.92Zm-138,58c2.43-.68,2.14-2.49,4.4-3.24-2.35-4.11-5.31-6.72-8.92-7.79Zm-66.83,36c.91-6.85-5.18-7.63-8-12.47L384,306C388.61,309.39,392.11,315.63,398.06,316Zm108.56-46c-3-3.28-5.67-7.46-9.43-9C499.33,266.4,501.92,270.72,506.62,270Zm93.65-37c-.82-2,3.11-2.08,2.67-4-2.38.81-2.52-3.71-5.19-2.17C600.6,229.27,596.24,233.44,600.27,233ZM409.14,318.57c2.62.21,4.79,1.49,7.64,1.16.44-3,3.07-7.74,7.57-6-3.93-5.15-9.43-6.55-16.27-4.76C409.76,312.74,405.66,314.06,409.14,318.57Zm134.93-41c6.67-1.13,5.1-9.3.89-11.82l-3.68,1.51C541.74,270.47,541.81,273.54,544.07,277.53Zm-127.89,58.2c.82-2-.38-4.91-1.78-7.87-2.55.44-4.18-1.38-7.14.06C406.93,330.49,411.61,337.28,416.18,335.73Zm20.24,7.44c-2-7.3-7.07-7.37-11.87-8C426.74,342.06,431.34,343.17,436.42,343.17ZM645.13,300.5c8.4-6.31,19.68-11.4,14.81-23.25C649.22,278.69,643,290.35,645.13,300.5Zm-162.71,71c3.67-3.2,7.68-6.26,6.79-11.37C476.17,345.32,461.91,370,482.42,371.54Zm37,37.81q-1-2.46-2-4.9L513.72,406C514.69,409.29,515.82,412.25,519.41,409.35Zm89-30.79,12.25-5c-5-3.29-11.3-3.73-18.22-2.55C603.5,375.78,606,377.17,608.43,378.56ZM497.91,426.75c1.63-.66,3.27-1.33,4.9-2-1-2.09-1.28-3.92-.77-5.39C497.91,420.67,496.74,423.21,497.91,426.75Zm-33,20.71c.29,4.2,3.64,1.05,5.91.44-.49-1.23-1-2.45-1.5-3.67C466.86,444.9,467.15,446.72,464.88,447.46Zm37.4.41c-.36-1.59,1.06-1.31,2.44-1-4.55-6.65,6.32-6.84,3.34-12.83C503.63,437,500.07,445.56,502.28,447.87Z"/><path class="cls-5" d="M124.51,176.23c-6.59,6.87-12.91,14-22.45,18-3.87,6.17-12.36,7.73-19.55,10.58,1.61-1,3.6-1.73,4.48-3.53-4-1-9.42,3.52-14.11,2.89-1.47,1.09-3.86,1.26-6.09,1.61-1.49,0,.38-.74.33-1.29-1.88.86-6,.83-8.34.32-.89.06-1.1-.49-.64-.95a12.43,12.43,0,0,1-3.53-.33c-.43-.84-1.34-1.21-1.6-2.25-5.66-2.84-9.52-9.95-13.15-16s-6.08-12.3.64-17c.76,0,1-.55,1.93-.32,1.17-1.82,3.38-2.6,5.77-3.21-1.51-2.23-3.6,0-5.45-1.6-3.14,2.75-5.63-.41-9.29-.64.14-5.39,0-11.27,0-17,3.19,0,4.18,2.22,7,2.56.34-3.06-1.87-7.37-.64-12.18,6.13-8.42,14.83-14.25,21.49-22.12,2.42.05,5.21-2.65,7.69-.32.95-.29-.74-.49-.32-1.29,5.14.72,8.45,2.49,13.46,3.85a5.47,5.47,0,0,0-3.2-2.89c2.57.11,5.33,2.8,8.65,3.21a66.7,66.7,0,0,0,12.51,11.86c3.79,5,8.19,8.52,11.54,13.79s4.74,11.56,7.38,17.63c1,2.37,2.49,4.17,3.21,6.42C123.26,169.09,123.06,172.94,124.51,176.23Z"/><path class="cls-4" d="M262.17,420.16c-12.3,12.83-24.1,26.16-41.88,33.51-7.23,11.5-23.08,14.41-36.49,19.73,3-2,6.73-3.23,8.37-6.58-7.51-1.91-17.59,6.56-26.32,5.39-2.76,2-7.22,2.34-11.36,3-2.8,0,.68-1.37.59-2.4-3.51,1.59-11.11,1.53-15.55.59-1.66.11-2.07-.91-1.2-1.78-2.7.28-4.48-.31-6.59-.61-.81-1.57-2.51-2.27-3-4.19-10.55-5.31-17.78-18.58-24.54-29.91s-11.34-22.94,1.2-31.7c1.42,0,1.76-1,3.6-.6,2.19-3.4,6.31-4.85,10.76-6-2.82-4.17-6.7.07-10.16-3-5.86,5.13-10.51-.74-17.36-1.2.28-10,.1-21,0-31.7,6,0,7.83,4.15,13.16,4.8.63-5.72-3.51-13.75-1.2-22.75,11.43-15.7,27.68-26.57,40.09-41.27,4.52.1,9.72-4.94,14.36-.61,1.77-.51-1.39-.89-.6-2.39,9.59,1.35,15.74,4.64,25.14,7.19-1.11-2.71-3.35-4.24-6-5.39,4.81.2,9.94,5.22,16.15,6,7,8.15,14.36,15.95,23.34,22.13,7.08,9.23,15.27,15.89,21.54,25.73,6.36,10,8.83,21.57,13.75,32.91,1.92,4.42,4.65,7.78,6,12C259.83,406.85,259.45,414,262.17,420.16Z"/><path class="cls-6" d="M757.43,659.21a98.21,98.21,0,0,1-98.22,98.22H102.63A98.21,98.21,0,0,1,4.41,659.21V102.63A98.22,98.22,0,0,1,102.63,4.41H659.21a98.22,98.22,0,0,1,98.22,98.22Z"/><path class="cls-7" d="M348,539.13V475.82H464V763.39H389.22V539.13Z"/><path class="cls-7" d="M724.84,619.61c0,74.75-36.24,155.22-122.05,155.22s-122-80.47-122-155.22,36.61-155.23,122-155.23S724.84,544.85,724.84,619.61Zm-169.72-.38c0,27.84,9.15,89.62,47.67,89.62s47.67-61.78,47.67-89.62-9.15-88.87-47.67-88.87S555.12,591.38,555.12,619.23Z"/><path class="cls-1" d="M757.43,659.21a98.21,98.21,0,0,1-98.22,98.22H102.63A98.21,98.21,0,0,1,4.41,659.21V102.63A98.22,98.22,0,0,1,102.63,4.41H659.21a98.22,98.22,0,0,1,98.22,98.22Z"/><g class="cls-8"><path class="cls-9" d="M674.65-9.18H87.2A103.65,103.65,0,0,0-16.46,94.48v255.3c113.17,53.44,247.15,84.36,390.75,84.36,149.33,0,288.1-33.51,404-90.9V94.48A103.66,103.66,0,0,0,674.65-9.18Z"/></g></svg>