<svg xmlns="http://www.w3.org/2000/svg" xmlns:xlink="http://www.w3.org/1999/xlink" viewBox="0 0 148.5 150.8"><defs><style>.a,.f{fill:none;}.b{fill:url(#a);}.c,.g{fill:#fff;}.c,.e{fill-rule:evenodd;}.d{clip-path:url(#b);}.e{fill:#fbb040;}.f{stroke:#be1e2d;stroke-miterlimit:10;stroke-width:1.14px;}</style><linearGradient id="a" x1="73.93" y1="147.43" x2="73.93" y2="3.43" gradientUnits="userSpaceOnUse"><stop offset="0" stop-color="#be1e2d"/><stop offset="1" stop-color="#f15a29"/></linearGradient><clipPath id="b"><rect class="a" x="1.9" y="3.4" width="144" height="144" rx="18.8" ry="18.8"/></clipPath></defs><title>Aichi Biodivesity Target 6</title><rect class="b" x="1.9" y="3.4" width="144" height="144" rx="18.8" ry="18.8"/><path class="c" d="M11.6,66.8c8.6-2.4,11.3-14.7,22.5-15.9,2.3,2.7,5.6,4.4,8.1,6.9,4.4.7,8,3.6,11.8,6.2,6.3,4.4,14,4.9,21.4,5l.9.2.9-.2a2,2,0,0,1,2,2.3,1.2,1.2,0,0,1,1.3.3c.5,2.1-2.6.5-1.9,2.8,3.7.5,8.4-1.8,11.3-3.8,10.8-1.2,21.2-2.9,27.7-8.4C114,39.4,87.5,35.2,65.1,34.4c-5.4,4.3-13.7,5.7-20.6,8.4-2.9,3.2-7.6,4.9-13.1,4.2a2.5,2.5,0,0,1,.8-1.4c-1.4-1.7-1.4-4-1.3-6.3a12.6,12.6,0,0,0-.9-5c-.6,1.5-1.2,2.9-1.9,4.3a9.1,9.1,0,0,1-.8,5.4c-.8,3.1-3.8,5.2-6.8,6.3v.5h.5C18,56.6,15.4,62.2,11.6,66.8Zm98-13.8c2.7,0,2.7,4.2,0,4.2S106.9,52.9,109.6,52.9Z"/><g class="d"><path class="e" d="M-9,108.7c13.3-6.1,18.8-20,35-23.3,5.9,9.8,18.5,14.6,25.9,24.6-1.6,3-7.3,1.7-7.8,5.8,11.6,3,27.6-2.4,40.1,1.3,2.3.1-1.4,2.1.6,1.9,18.9.7,48.2,1.9,60.2-8.4-1.8-12.5-8.9-24.3-16.8-30.4-6.1-4.7-13.6-6.7-21.2-10.1a2.8,2.8,0,0,1-2,.2c-12-3.2-24.9-2.5-37.2-1.5-6.1.5-12.2,1.3-18.3,1.6a34.8,34.8,0,0,0-8.9,1.2c-2.5.8-5,1.8-7.5,2.5-4.2,1.2-7-.3-10.5-2.7s-8-5.5-11.7-8.6S1.7,53.8-3.6,50a14.7,14.7,0,0,0-3.1-1.7c.7,1.1,1.4,2.4,2.1,3.6,2.8,2.7,4.7,6.4,6.6,9.6s5.2,8.8,5.7,13.9C14.7,86-5.1,98.3-9,108.7ZM132.1,96.8c3.8,0,3.8,5.8,0,5.8S128.3,96.8,132.1,96.8Z"/></g><rect class="f" x="1.9" y="3.4" width="144" height="144" rx="18.8" ry="18.8"/><path class="g" d="M129.8,93.6l-15.6,18.6h.1a18.1,18.1,0,0,1,7.7-1.7c10.8,0,17.6,9.3,17.6,19.3,0,13.5-11.1,20.8-23.6,20.8-5.3,0-11.4-1.4-15.7-4.7A20.4,20.4,0,0,1,93,130.9c0-8,4.1-15.7,8.8-21.9l11.8-15.5Zm-5,36.8a8.8,8.8,0,0,0-8.8-9,9,9,0,1,0,0,18.1A8.9,8.9,0,0,0,124.8,130.4Z"/></svg>
