<svg xmlns="http://www.w3.org/2000/svg" xmlns:xlink="http://www.w3.org/1999/xlink" viewBox="0 0 148.2 147.8"><defs><style>.a,.f{fill:none;}.b{fill:url(#a);}.c{clip-path:url(#b);}.d{fill:#fff;}.e{fill:#662d91;fill-rule:evenodd;}.f{stroke:#006838;stroke-miterlimit:10;stroke-width:1.14px;}</style><linearGradient id="a" x1="73.92" y1="145.66" x2="73.92" y2="1.66" gradientUnits="userSpaceOnUse"><stop offset="0" stop-color="#38a643"/><stop offset="1" stop-color="#8dc63f"/></linearGradient><clipPath id="b"><rect class="a" x="1.9" y="1.7" width="144" height="144" rx="18.8" ry="18.8"/></clipPath></defs><title>Aichi Biodiversity Target 12</title><rect class="b" x="1.9" y="1.7" width="144" height="144" rx="18.8" ry="18.8"/><g class="c"><path class="d" d="M33.1,61.6A153.9,153.9,0,0,0,44.5,174.2l.7-.4A152.5,152.5,0,0,1,34.7,62.5,156.8,156.8,0,0,1,49.4,26.1,148.8,148.8,0,0,0,33.1,61.6Z"/><path class="d" d="M37.5,62.8c-2.3,2.2-3.3,5-2.6,6s3-.1,5.2-2.3A12.2,12.2,0,0,0,43,60.7,7.9,7.9,0,0,0,37.5,62.8Z"/><path class="d" d="M34.9,72.2c-2,2.4-2.9,5.2-2.1,6.2s2.9-.3,4.9-2.7a12.7,12.7,0,0,0,2.4-5.9A7.5,7.5,0,0,0,34.9,72.2Z"/><path class="d" d="M42.8,57.8A11.7,11.7,0,0,0,46,52.2a8.3,8.3,0,0,0-5.8,1.7c-2.5,2.1-3.7,4.8-3,5.9S40.4,59.9,42.8,57.8Z"/><path class="d" d="M46,49.1a11.5,11.5,0,0,0,3.6-5.4A8.7,8.7,0,0,0,43.5,45c-2.7,1.9-4.1,4.6-3.4,5.7S43.4,51,46,49.1Z"/><path class="d" d="M43.5,42.5c.8,1,3.5,0,6-2.2a11.2,11.2,0,0,0,3.2-5.7,9.2,9.2,0,0,0-6.2,1.9C43.9,38.7,42.6,41.4,43.5,42.5Z"/><path class="d" d="M48,33.4c.9,1,3.6-.1,6.2-2.3a10.9,10.9,0,0,0,3.1-5.9,9.6,9.6,0,0,0-6.4,2C48.3,29.6,47.1,32.4,48,33.4Z"/><path class="d" d="M29.8,67.2c1.1-.4,1.4-3.5.8-6.8a10.3,10.3,0,0,0-3.2-5.5,12.9,12.9,0,0,0-.9,7C27.3,65.3,28.7,67.6,29.8,67.2Z"/><path class="d" d="M25.1,65a13.4,13.4,0,0,0-.5,7c.8,3.4,2.4,5.6,3.4,5.1s1.2-3.5.4-6.9A10,10,0,0,0,25.1,65Z"/><path class="d" d="M30.8,45.5a12.5,12.5,0,0,0-1.3,7c.5,3.5,2,6,3.1,5.6s1.7-3.4,1.2-6.8A10.5,10.5,0,0,0,30.8,45.5Z"/><path class="d" d="M34.7,36.2A12.1,12.1,0,0,0,33,43.1c.4,3.6,1.7,6.1,3,5.8s1.9-3.2,1.6-6.7A10.7,10.7,0,0,0,34.7,36.2Z"/><path class="d" d="M40.6,27.6A11.3,11.3,0,0,0,37.6,34c-.3,3.6.6,6.5,1.9,6.5s2.5-2.8,2.9-6.3A11.4,11.4,0,0,0,40.6,27.6Z"/><path class="d" d="M46.9,18.4a10.8,10.8,0,0,0-4,5.9c-.8,3.6-.2,6.6,1.1,6.8s3-2.3,3.8-5.8A11.6,11.6,0,0,0,46.9,18.4Z"/><path class="d" d="M50.2,24.9c1,1,3.7-.4,6.1-2.8A11,11,0,0,0,59,15.8a9.9,9.9,0,0,0-6.4,2.6C50.2,21,49.2,24,50.2,24.9Z"/><path class="d" d="M-2.8,48.8c-7,47,3.9,94.9,31.4,133.5l.7-.4C2.3,143.7-8.2,96.3-1.2,49.8A196.5,196.5,0,0,1,11.3,2.5,188.4,188.4,0,0,0-2.8,48.8Z"/><path class="d" d="M1.6,50c-2,3-2.8,6.5-1.9,7.7s2.9-.4,4.9-3.3,2.2-7.5,2.2-7.5A6.9,6.9,0,0,0,1.6,50Z"/><path class="d" d="M-.1,61.9c-1.7,3.1-2.2,6.7-1.4,7.8S1.3,69.1,3,66s1.7-7.6,1.7-7.6A6.6,6.6,0,0,0-.1,61.9Z"/><path class="d" d="M6.2,43.2c2.2-2.8,2.7-7.4,2.7-7.4a7.2,7.2,0,0,0-5.5,2.8C1.2,41.5.2,45,1,46.3S4.1,46.1,6.2,43.2Z"/><path class="d" d="M8.8,31.9c2.4-2.7,3.2-7.2,3.2-7.3a7.5,7.5,0,0,0-5.9,2.4c-2.5,2.8-3.7,6.2-3,7.5S6.4,34.6,8.8,31.9Z"/><path class="d" d="M6,23.8c.9,1.2,3.4-.5,5.7-3.5s2.9-7.7,2.9-7.7a8.7,8.7,0,0,0-6,3.3C6.2,19,5.1,22.7,6,23.8Z"/><path class="d" d="M10,11.9c.9,1.1,3.5-.6,6-3.8A18.1,18.1,0,0,0,19,.2a9.5,9.5,0,0,0-6.3,3.6C10.2,7,9.1,10.7,10,11.9Z"/><path class="d" d="M-2.9,17.1a18.7,18.7,0,0,0-1.4,8.8c.6,4.4,2,7.4,3.2,6.9S.7,28.5.2,24.2A13.6,13.6,0,0,0-2.9,17.1Z"/><path class="d" d="M2.6,5.7A17.1,17.1,0,0,0-.2,14c-.1,4.5.9,8,2.1,7.8s2.3-3.8,2.6-8.2A15.8,15.8,0,0,0,2.6,5.7Z"/><path class="d" d="M8.7-6.6A16.1,16.1,0,0,0,4.8,1.3C4.1,5.8,4.7,9.5,6,9.6S8.9,6.3,9.6,1.8A16.8,16.8,0,0,0,8.7-6.6Z"/><path class="d" d="M12,1c1,1,3.7-1.1,6.1-4.5a18.5,18.5,0,0,0,2.7-8.3,10.8,10.8,0,0,0-6.4,4.3C11.9-3.9,10.9-.1,12,1Z"/><path class="d" d="M15.2,55.2A168.5,168.5,0,0,0,36.5,178.3l.7-.4A167.1,167.1,0,0,1,16.8,56.1,176.5,176.5,0,0,1,30.4,14.3,168.6,168.6,0,0,0,15.2,55.2Z"/><path class="d" d="M19.6,56.4c-2.1,2.6-3.1,5.8-2.3,6.9s3-.3,5.1-2.8a15,15,0,0,0,2.5-6.6A7.2,7.2,0,0,0,19.6,56.4Z"/><path class="d" d="M17.4,67c-1.9,2.8-2.6,5.9-1.8,7s2.8-.5,4.6-3.2a15.6,15.6,0,0,0,2-6.7A6.9,6.9,0,0,0,17.4,67Z"/><path class="d" d="M24.5,50.5a14.5,14.5,0,0,0,3-6.5,7.6,7.6,0,0,0-5.7,2.2c-2.3,2.5-3.5,5.6-2.7,6.8S22.2,53,24.5,50.5Z"/><path class="d" d="M27.4,40.5a14.1,14.1,0,0,0,3.4-6.3,7.9,7.9,0,0,0-6,1.9c-2.6,2.4-3.9,5.4-3.2,6.6S24.9,42.8,27.4,40.5Z"/><path class="d" d="M24.7,33.1c.9,1.1,3.4-.3,5.9-2.9a14.4,14.4,0,0,0,3.1-6.7,8.8,8.8,0,0,0-6.1,2.6C25,28.8,23.9,32,24.7,33.1Z"/><path class="d" d="M29,22.6c.9,1.1,3.6-.4,6.1-3.1a14.2,14.2,0,0,0,3.1-6.9,9.4,9.4,0,0,0-6.3,2.8C29.3,18.3,28.1,21.6,29,22.6Z"/><path class="d" d="M12.2,61.6c1.1-.5,1.3-3.9.5-7.7a11.7,11.7,0,0,0-3.4-6.1,16.1,16.1,0,0,0-.6,7.9C9.5,59.6,11.1,62.2,12.2,61.6Z"/><path class="d" d="M7.4,59.3a16.6,16.6,0,0,0-.2,7.9c1,3.7,2.7,6.2,3.6,5.6s1-4,.1-7.7A11.5,11.5,0,0,0,7.4,59.3Z"/><path class="d" d="M12.3,37.3a15.5,15.5,0,0,0-1.1,7.9c.6,3.9,2.2,6.6,3.3,6.1s1.5-3.8,1-7.7A11.9,11.9,0,0,0,12.3,37.3Z"/><path class="d" d="M15.9,26.6a15.1,15.1,0,0,0-1.6,7.8c.5,4,1.9,6.8,3.1,6.4s1.8-3.7,1.4-7.6A12.1,12.1,0,0,0,15.9,26.6Z"/><path class="d" d="M21.6,16.6A14,14,0,0,0,18.7,24c-.2,4.1.8,7.2,2,7.2s2.4-3.3,2.7-7.2A13.6,13.6,0,0,0,21.6,16.6Z"/><path class="d" d="M27.8,5.9a13.2,13.2,0,0,0-3.9,6.9c-.7,4.1-.2,7.4,1.2,7.6s2.9-2.8,3.7-6.8A14.1,14.1,0,0,0,27.8,5.9Z"/><path class="d" d="M31.1,12.9c1,1,3.7-.7,6.1-3.7A14.5,14.5,0,0,0,39.9,2a10.1,10.1,0,0,0-6.4,3.5C31.1,8.5,30.1,12,31.1,12.9Z"/><path class="d" d="M51.1,67.9a139.4,139.4,0,0,0,1.4,102.2l.7-.4a138.1,138.1,0,0,1-.5-101A137.2,137.2,0,0,1,68.5,37.9,129.7,129.7,0,0,0,51.1,67.9Z"/><path class="d" d="M55.5,69.2c-2.4,1.9-3.6,4.2-2.9,5.1s3.1,0,5.4-1.8a10,10,0,0,0,3.1-4.9A8.8,8.8,0,0,0,55.5,69.2Z"/><path class="d" d="M52.4,77.3c-2.2,2-3.2,4.5-2.5,5.3s2.9-.2,5.1-2.2a10.4,10.4,0,0,0,2.8-5.1A8.4,8.4,0,0,0,52.4,77.3Z"/><path class="d" d="M61.1,65.1a9.7,9.7,0,0,0,3.5-4.7,9.3,9.3,0,0,0-5.9,1.2c-2.6,1.7-4,4-3.3,5S58.5,66.8,61.1,65.1Z"/><path class="d" d="M64.6,57.7a9.4,9.4,0,0,0,3.8-4.4,9.9,9.9,0,0,0-6.2.7c-2.7,1.5-4.3,3.8-3.6,4.8S61.9,59.2,64.6,57.7Z"/><path class="d" d="M62.3,51.8c.8,1,3.5.2,6.1-1.5a8.7,8.7,0,0,0,3.3-4.8s-3.7-.6-6.3,1.2S61.4,50.8,62.3,51.8Z"/><path class="d" d="M67,44.2c.9,1,3.6.2,6.2-1.6a8.2,8.2,0,0,0,3.2-4.9S72.6,37.2,70,39,66.1,43.2,67,44.2Z"/><path class="d" d="M47.5,72.7c1.1-.4,1.6-3,1.2-6a9,9,0,0,0-3-5,10.2,10.2,0,0,0-1.2,6.2C45,71,46.4,73.1,47.5,72.7Z"/><path class="d" d="M42.8,70.6a10.6,10.6,0,0,0-.9,6.2c.7,3,2.1,5,3.2,4.6s1.4-3.1.8-6A8.7,8.7,0,0,0,42.8,70.6Z"/><path class="d" d="M49.3,53.7a9.8,9.8,0,0,0-1.6,6.1c.4,3.1,1.8,5.3,3,5s1.8-2.9,1.5-5.9A9.3,9.3,0,0,0,49.3,53.7Z"/><path class="d" d="M53.6,45.7a9.5,9.5,0,0,0-1.9,6c.3,3.1,1.6,5.5,2.8,5.3s2.1-2.7,1.8-5.8A9.5,9.5,0,0,0,53.6,45.7Z"/><path class="d" d="M59.7,38.5A9.1,9.1,0,0,0,56.5,44c-.4,3.2.5,5.7,1.8,5.8s2.6-2.3,3-5.3A9.5,9.5,0,0,0,59.7,38.5Z"/><path class="d" d="M66,31s-3.2,1.8-4.1,4.9-.3,5.8,1,6.1,3-1.8,3.9-4.8S66,31,66,31Z"/><path class="d" d="M69.3,36.9c1,.9,3.7,0,6.2-2a8.1,8.1,0,0,0,2.7-5.2s-3.9-.3-6.4,1.7S68.3,36,69.3,36.9Z"/><path class="e" d="M31.1,181.2a3,3,0,0,0-3.1-4.1l.2-.4a1.5,1.5,0,0,0-.4-1.5,1.5,1.5,0,0,0,.6-2.6,1.6,1.6,0,0,0,.7-2.6,1.6,1.6,0,0,0,.7-2.5,1.6,1.6,0,0,0,.6-2.6,1.5,1.5,0,0,0,.8-2.5,1.6,1.6,0,0,0,.6-2.5,1.6,1.6,0,0,0,.6-2.6,1.5,1.5,0,0,0,.7-2.6,1.5,1.5,0,0,0,.7-2.6,1.6,1.6,0,0,0,1.1-1.1,1.5,1.5,0,0,0,0-.6l1.5.6a5.6,5.6,0,1,0,6.5-6.6,5.4,5.4,0,0,0-3.4-3.6,5.2,5.2,0,0,0,.1-.7,5.4,5.4,0,0,0-3.3-5.1,5.6,5.6,0,0,0,.1-1,5.4,5.4,0,0,0-2.7-4.8,5.3,5.3,0,0,0-.3-3.2,2.3,2.3,0,0,0-.5-1.5,2.3,2.3,0,0,0,1.6-1.5,2.2,2.2,0,0,0-.4-2.1,2.3,2.3,0,0,0,1.2-3.7,2.3,2.3,0,0,0,1.3-3.6,2.3,2.3,0,0,0,1.2-3.6,2.3,2.3,0,0,0,1.5-1.5v-.5l.2-.2a2.8,2.8,0,0,0,1.5.5h.9a4.5,4.5,0,0,0,4.5.2,2.8,2.8,0,0,0,1.7-1,2.8,2.8,0,0,0,1.4,1.1,4,4,0,0,0,4.6.2h.8a2.8,2.8,0,0,0,1.3-.3,4.2,4.2,0,0,0,6.8,1,4.1,4.1,0,0,0,6,.9,3.7,3.7,0,0,0,5.4-.2l.5.4a3.4,3.4,0,0,0,4.6-.9l.3-.6.8.8a3.6,3.6,0,0,0,4.9-1l.3-.6.2.2a2.7,2.7,0,0,0,3.7-.8l.2-.5a3,3,0,0,0,3.9-1l.3-.7a3,3,0,0,0,4.1-2.8,3,3,0,0,0,4.4-3,3.8,3.8,0,0,0,4.2-5.1l.9-.4a4.1,4.1,0,0,0,1.5-5.4,4.8,4.8,0,0,0,1.9-.6,4.9,4.9,0,0,0,2.3-5.1l.9-.4a5.9,5.9,0,0,0,2.5-7.3l1.8-.8a7.2,7.2,0,0,0,2.7-9.6,8.8,8.8,0,0,0,2.1-.9A8.9,8.9,0,0,0,127,52l-.9-1.3a10.4,10.4,0,0,0,2.3-.9,8.9,8.9,0,0,0,7.8-.6,9.8,9.8,0,0,0,13,3.6l.2.4a10.3,10.3,0,0,0,14.1,3.6l.4-.3.5.9a10.9,10.9,0,1,0,3.8-14.9l-.9.6-.2-.3A10.3,10.3,0,0,0,153,39.1a9.8,9.8,0,0,0-13.5-3.4l-.8.5a8.9,8.9,0,0,0-6.1-3.5l1.1-.6A11.1,11.1,0,0,0,137.6,17a11.2,11.2,0,0,0-1.2-1.6,12.2,12.2,0,0,0,2.6-1.1,12.3,12.3,0,1,0-14.9-1.9l-1.6.8a11.1,11.1,0,0,0-1.9,17.6,10.4,10.4,0,0,0-2.3,1l-1.6,1.2-.6-1.1a9.1,9.1,0,0,0-12.5-3.2l-1.3.9-1.4.2-.4-.7a9.1,9.1,0,0,0-15.4-.4l-.5-1a8.6,8.6,0,0,0-11.8-3,8.4,8.4,0,0,0-2,1.6,8.3,8.3,0,0,0-12.3-.1,7.5,7.5,0,0,0-10.5,7,5.6,5.6,0,0,0-9.9,3.6,4.1,4.1,0,0,0-5,3.9,3.5,3.5,0,0,0-1.9.5A3.5,3.5,0,0,0,29.8,45h-.2a3.3,3.3,0,0,0-3.4,3.2,3.4,3.4,0,0,0,.1,1,3.1,3.1,0,0,0-2.9,3,3,3,0,0,0,.2,1.2,3.1,3.1,0,0,0-2,4,3.2,3.2,0,0,0-2,2.9,3.2,3.2,0,0,0,.3,1.5,3,3,0,0,0-1.2,4,3.2,3.2,0,0,0-1.3,3.7A3.6,3.6,0,0,0,16,74.1,4.1,4.1,0,0,0,14.9,80a4.7,4.7,0,0,0-.1,7.4,5.1,5.1,0,0,0,3,8.9,5.3,5.3,0,0,0-2.6,7.9v.2a3.8,3.8,0,0,0-3.9,4.1,3.4,3.4,0,0,0-5,3.6,3,3,0,0,0-3.7,3.6,2.9,2.9,0,0,0-1.1.5,2.9,2.9,0,0,0-1,3.5,2.6,2.6,0,0,0-2.1,3.3l-.8.4a2.4,2.4,0,0,0-.7,3.1l-.3.2a2.1,2.1,0,0,0-.5,3H-4a2,2,0,0,0-.4,2.8h0a1.6,1.6,0,0,0-.2,2.1h0a1.8,1.8,0,0,0-.4,2.5h0a1.7,1.7,0,0,0-.2,2.2H-5a1.7,1.7,0,0,0-.2,2.2h.1a1.7,1.7,0,0,0-.1,2.2l.5.5a1.7,1.7,0,0,0-.1,2.1,1.6,1.6,0,0,0,.7.6,1.7,1.7,0,0,0-.1,2.2l.7.5a2,2,0,0,0-.2,2.5l.3.3a2.2,2.2,0,0,0,.1,2.6,2.2,2.2,0,0,0,.9.7,2.6,2.6,0,0,0,0,3,2.5,2.5,0,0,0,1.3.9,2.6,2.6,0,0,0,2.7,3.7,2.9,2.9,0,0,0,2.6,4.7,3,3,0,0,0,3.9,4,3.1,3.1,0,0,0,3.6,3.5,2.9,2.9,0,0,0,.5,1.2,2.9,2.9,0,0,0,3,1.1l.3.5a2.9,2.9,0,0,0,3.2,1.1l.3.4a2.9,2.9,0,0,0,3.7.9l.2.3a2.9,2.9,0,0,0,3.5.9l.8.5A3,3,0,0,0,31.1,181.2Zm-17.5-10a3,3,0,0,0-1.3-1l.3-.2a1.5,1.5,0,0,0,.4-1.5,1.6,1.6,0,0,0,1.8-1.9,1.6,1.6,0,0,0,1.9-1.9,1.6,1.6,0,0,0,1.8-1.9,1.6,1.6,0,0,0,1.8-1.9,1.6,1.6,0,0,0,1.9-1.8,1.5,1.5,0,0,0,1.4-.5,1.6,1.6,0,0,0,.4-1.4,1.6,1.6,0,0,0,1.8-2,1.6,1.6,0,0,0,1.9-1.9,1.5,1.5,0,0,0,1-.1,1.5,1.5,0,0,0,.2,1.3,1.6,1.6,0,0,0-1.1,2.4,1.6,1.6,0,0,0-1.2,2.4,1.6,1.6,0,0,0-1.1,2.3,1.6,1.6,0,0,0-1,2.4,1.6,1.6,0,0,0-1.2,2.4,1.6,1.6,0,0,0-1.1,2.4,1.6,1.6,0,0,0-1.1,2.4,1.6,1.6,0,0,0-1.2,2.4,1.6,1.6,0,0,0-1.1.7,3,3,0,0,0-1.6-.1l-.3-.6a2.9,2.9,0,0,0-2.8-1.2A3,3,0,0,0,13.6,171.2Zm15.9-19.7h.2a1.5,1.5,0,0,0,.2.7h-.5A1.6,1.6,0,0,0,29.5,151.5Zm2.1,2.9h0Zm-1,1.2v.2l-.2-.5h.4ZM3.8,162.8a1.5,1.5,0,0,0,.5-1.1,1.6,1.6,0,0,0,2.3-1.3A1.6,1.6,0,0,0,9,159.1a1.6,1.6,0,0,0,2.4-1.3,1.6,1.6,0,0,0,2.3-1.3,1.6,1.6,0,0,0,2.3-1.3,1.6,1.6,0,0,0,2.3-1.2,1.6,1.6,0,0,0,2.2-1.3,1.6,1.6,0,0,0,2.3-1.3,1.6,1.6,0,0,0,2.4-1.3,1.6,1.6,0,0,0,2.3-1.3,1.6,1.6,0,0,0,1.1.2,1.6,1.6,0,0,0-.2,1.2,1.6,1.6,0,0,0-1.8,1.9,1.6,1.6,0,0,0-1.8,1.9,1.6,1.6,0,0,0-1.9,1.8,1.6,1.6,0,0,0-1.8,1.8,1.6,1.6,0,0,0-1.4.5,1.5,1.5,0,0,0-.4,1.5,1.6,1.6,0,0,0-1.9,1.9,1.6,1.6,0,0,0-1.8,1.9,1.6,1.6,0,0,0-1.8,1.9,1.6,1.6,0,0,0-1.9,1.9,1.6,1.6,0,0,0-1.8,1.9H9.8a3,3,0,0,0-3.4-2.3,2.9,2.9,0,0,0-2.6-4.1Zm16.1-42.4a5.6,5.6,0,0,0,3.7,5.5,5.4,5.4,0,0,0-.5,2.2c0,.1,0,.3,0,.4h-.4a1.9,1.9,0,0,0-2.3-2.2,1.9,1.9,0,0,0-2.1-2.4,1.9,1.9,0,0,0-2.2-2.3,1.9,1.9,0,0,0-2.2-2.3,1.9,1.9,0,0,0-.4-1.8,1.9,1.9,0,0,0-1.7-.6,1.9,1.9,0,0,0-.4-1.8l-.7-.5,1-.5a3.4,3.4,0,0,0,1.4-2.9,3.8,3.8,0,0,0,3.6.2,5.5,5.5,0,0,0,4.9,5.2A5.6,5.6,0,0,0,19.9,120.4Zm84-33a4.1,4.1,0,0,0-1.6,5.3l-.5.2-.4.3-.2-.3a4.2,4.2,0,0,0-3.8-1.3,4.2,4.2,0,0,0-4.8-5.2,4.2,4.2,0,0,0-4.9-5.2,4.2,4.2,0,0,0-4.6-5.4,4.2,4.2,0,0,0-4.6-5.2,4.2,4.2,0,0,0-5-5,4.2,4.2,0,0,0-4.7-5.4A4.2,4.2,0,0,0,64,55.1a4.2,4.2,0,0,0-4.9-5.2,4.2,4.2,0,0,0-4.7-5.4,4.2,4.2,0,0,0-.9-3.9l-.3-.3a7.5,7.5,0,0,0,6.4-.6l.9-.6a8.3,8.3,0,0,0,8.6,0l.3-.2a4.6,4.6,0,0,0,5.8,3.6,4.6,4.6,0,0,0,5.9,5.1,4.6,4.6,0,0,0,5.8,5.3A4.6,4.6,0,0,0,92.6,58a4.6,4.6,0,0,0,5.9,5.1,4.6,4.6,0,0,0,5.5,5.3,4.6,4.6,0,0,0,3.8,5,5.9,5.9,0,0,0-1.4,6.7,4.9,4.9,0,0,0-1.5,6.6l.2.3ZM25.8,59.2a3.1,3.1,0,0,0,1.8-2.8,3.1,3.1,0,0,0-.2-1.2,3.1,3.1,0,0,0,1.8-1.6,3.5,3.5,0,0,0,2.5.5,3.5,3.5,0,0,0,4.1,4.2,3.5,3.5,0,0,0,4.2,4.2,3.5,3.5,0,0,0,4,4.4,3.5,3.5,0,0,0,4,4.3,3.5,3.5,0,0,0,4.2,4.2A3.5,3.5,0,0,0,56,79.7a3.5,3.5,0,0,0,4,4.1,3.5,3.5,0,0,0,4.2,4.1,3.5,3.5,0,0,0,4,4.4,3.5,3.5,0,0,0,4,4.3,3.5,3.5,0,0,0,3.6,4.3,3.5,3.5,0,0,0,3.8,3.8,3.5,3.5,0,0,0-.1,1.1h0l-.7-.6a3.4,3.4,0,0,0-4.2.4,3.6,3.6,0,0,0-4.4-.9l-.8-.8a3,3,0,0,0-1.6-.5l-1.1-.2h-.3a3,3,0,0,0-4.3-2.4,3,3,0,0,0-4.4-2.8,3,3,0,0,0-4.2-3,3,3,0,0,0-4.1-2.8,3,3,0,0,0-4.4-2.6,3,3,0,0,0-4.3-2.9,3,3,0,0,0-4.3-2.8,3,3,0,0,0-4.4-2.8A3,3,0,0,0,28,78.2a3,3,0,0,0-4.2-2.9,3,3,0,0,0-1-2.2,3.9,3.9,0,0,0,0-.4,3.6,3.6,0,0,0-.4-1.8,3.2,3.2,0,0,0,.7-4,3,3,0,0,0,1.3-2.4,3.1,3.1,0,0,0-.2-1.3,3.2,3.2,0,0,0,1.6-4ZM1.3,124.7a2.7,2.7,0,0,0,2.1-3.5A2.9,2.9,0,0,0,6,117.9a3,3,0,0,0,2.1-1.5,1.9,1.9,0,0,0,2.2,1.9,1.9,1.9,0,0,0,2.2,2.3,1.9,1.9,0,0,0,2.2,2.4,1.9,1.9,0,0,0,2.2,2.3,1.9,1.9,0,0,0,2.2,2.3,1.9,1.9,0,0,0,2,2.4,1.9,1.9,0,0,0,2.1,2.2,1.9,1.9,0,0,0,2.2,2.3,1.9,1.9,0,0,0,.1,1.3v.2a2.2,2.2,0,0,0,.4,2.2,2.3,2.3,0,0,0-1.5,1.2,1.8,1.8,0,0,0-2.6-1.1,1.8,1.8,0,0,0-2.6-1.5,1.8,1.8,0,0,0-2.8-1.4,1.8,1.8,0,0,0-2.7-1.6,1.8,1.8,0,0,0-2.7-1.5A1.8,1.8,0,0,0,8.2,131a1.8,1.8,0,0,0-2.8-1.6,1.8,1.8,0,0,0-2.7-1.5,1.8,1.8,0,0,0-1-1.5l-.6-.2A2.4,2.4,0,0,0,1.3,124.7ZM29,141.3h-.4a2.2,2.2,0,0,0-.5-2.2h.2l.5.3a5.9,5.9,0,0,0-.1.8A5.2,5.2,0,0,0,29,141.3Zm.3,3.9a1.9,1.9,0,0,0-1,.7,1.8,1.8,0,0,0-1-.9v-.3h0a1.8,1.8,0,0,0,1.7,0A1.9,1.9,0,0,0,29.3,145.3ZM39.6,44.4a4.1,4.1,0,0,0,1.9-2.5,5.6,5.6,0,0,0,3.6.5h1.3a4.2,4.2,0,0,0,4.8,5.1A4.2,4.2,0,0,0,56,52.7a4.2,4.2,0,0,0,4.7,5.4,4.2,4.2,0,0,0,4.8,5.3,4.2,4.2,0,0,0,4.9,5.2,4.2,4.2,0,0,0,4.5,5.4,4.2,4.2,0,0,0,4.7,5A4.2,4.2,0,0,0,84.5,84a4.2,4.2,0,0,0,4.7,5.4,4.2,4.2,0,0,0,4.8,5.2,4.2,4.2,0,0,0,.9,3.9,4.1,4.1,0,0,0,2,1.2,3.1,3.1,0,0,0,0,.4,3,3,0,0,0-3.9,1l-.3.7a3,3,0,0,0-3.6,1.2,3.1,3.1,0,0,0-.4.8,2.7,2.7,0,0,0-2.6.3,3.5,3.5,0,0,0-3.6-2.1A3.5,3.5,0,0,0,79,97.7,3.5,3.5,0,0,0,74.9,94a3.5,3.5,0,0,0-4.1-4.3,3.5,3.5,0,0,0-4.2-4.2,3.5,3.5,0,0,0-3.9-4.4,3.5,3.5,0,0,0-3.9-4.2,3.5,3.5,0,0,0-4.2-4,3.5,3.5,0,0,0-4-4.4,3.5,3.5,0,0,0-4.1-4.2A3.5,3.5,0,0,0,42.5,60a3.5,3.5,0,0,0-4-4.4,3.5,3.5,0,0,0-4-4.3,3.5,3.5,0,0,0-.9-3.2l-.6-.5a3.5,3.5,0,0,0,3.7-2.9A4.1,4.1,0,0,0,39.6,44.4Zm10.3-6.5a7.6,7.6,0,0,0,1.5,1.4,4.1,4.1,0,0,0-1.6-.1A4.1,4.1,0,0,0,49.9,37.9ZM-1.4,147.5a1.7,1.7,0,0,0-.8-.6,1.6,1.6,0,0,0,.3-.7h.4a1.9,1.9,0,0,0,1.6-.7,1.8,1.8,0,0,0,3.1.2,1.8,1.8,0,0,0,3.1.2,1.8,1.8,0,0,0,3.1.3,1.8,1.8,0,0,0,3.1.3,1.8,1.8,0,0,0,3.1.2,1.8,1.8,0,0,0,3.1.4,1.8,1.8,0,0,0,1.4.9,1.9,1.9,0,0,0,1.6-.7h0a2.3,2.3,0,0,0,.5,1.7,1.6,1.6,0,0,0-.4.9,1.6,1.6,0,0,0-2.3,1.2,1.6,1.6,0,0,0-2.3,1.2,1.6,1.6,0,0,0-1.4,0,1.5,1.5,0,0,0-.8,1.3,1.6,1.6,0,0,0-2.4,1.2,1.6,1.6,0,0,0-2.3,1.3,1.6,1.6,0,0,0-2.3,1.3A1.6,1.6,0,0,0,5.9,159a1.6,1.6,0,0,0-2.3,1.2H3.4l-.2-.3a2.6,2.6,0,0,0-1.2-.9,2.6,2.6,0,0,0-.2-2.7,2.5,2.5,0,0,0-1.3-.9,2.2,2.2,0,0,0-.2-2.4l-.6-.6a2,2,0,0,0-.2-2,2,2,0,0,0-.9-.7A1.7,1.7,0,0,0-1.4,147.5Zm.2-17.3h0l.3-.2.5-.6.4.3a1.8,1.8,0,0,0,1.7,0,1.8,1.8,0,0,0,2.7,1.4,1.8,1.8,0,0,0,2.8,1.5,1.8,1.8,0,0,0,2.8,1.6,1.8,1.8,0,0,0,2.7,1.5,1.8,1.8,0,0,0,2.8,1.5,1.8,1.8,0,0,0,2.6,1.6,1.9,1.9,0,0,0,2.7,1.4,1.8,1.8,0,0,0,2.8,1.4,1.8,1.8,0,0,0,.2.7,2.3,2.3,0,0,0-.7,1,2.2,2.2,0,0,0,0,1.3,1.9,1.9,0,0,0-1.1.7,1.8,1.8,0,0,0-3-.3,1.8,1.8,0,0,0-3.1-.1,1.8,1.8,0,0,0-3.1-.3,1.8,1.8,0,0,0-3.1-.2,1.8,1.8,0,0,0-3.2-.2,1.8,1.8,0,0,0-3.1-.3,1.8,1.8,0,0,0-3.1-.3,1.8,1.8,0,0,0-1.5-.9h-.9a1.8,1.8,0,0,0-.3-.6V142a1.7,1.7,0,0,0,.1-2.1h-.1a1.7,1.7,0,0,0,.2-2.1,1.8,1.8,0,0,0,.3-2.4l-.3-.3a1.6,1.6,0,0,0,.5-1.9h.1A2,2,0,0,0-1.2,130.2ZM21.2,80.4a4.2,4.2,0,0,0,.9-1.4,3,3,0,0,0,4.1,1.9,3,3,0,0,0,4.4,2.8,3,3,0,0,0,4.3,2.9,3,3,0,0,0,4.3,2.8,3,3,0,0,0,4.4,2.8,3,3,0,0,0,4.1,3,3,3,0,0,0,4.2,2.7,3,3,0,0,0,4.4,2.7,3,3,0,0,0,1.3,2.7h0l-.7.6a2.8,2.8,0,0,0-1.4-.6,4,4,0,0,0-6.7-.2,4.5,4.5,0,0,0-8.1-1,4.5,4.5,0,0,0-7.9.1,4.3,4.3,0,0,0-8,1.3h-.1l-.3-.5a5.3,5.3,0,0,0-4.6-7.3,5.1,5.1,0,0,0,1.2-8.9,4.7,4.7,0,0,0,.1-6.7Zm90.5-19.3.6.9-.6.3a7.2,7.2,0,0,0-2.2,2,4.6,4.6,0,0,0-2,0,4.6,4.6,0,0,0-6-4.8,4.6,4.6,0,0,0-5.7-5.3,4.6,4.6,0,0,0-5.8-5.1,4.6,4.6,0,0,0-5.9-5.1,4.6,4.6,0,0,0-1.4-4.3l-.7-.5A8.5,8.5,0,0,0,84.4,37l.6,1.3a9,9,0,0,0,14.7,1.3h0a9.3,9.3,0,0,0,.7,1.6,9.1,9.1,0,0,0,12.5,3.2l.8-.5a10.4,10.4,0,0,0,1,2.2,10.5,10.5,0,0,0,1.8,2.2l-1.6.7A8.9,8.9,0,0,0,111.7,61.1ZM31.9,120.2l-.7.3a5.6,5.6,0,0,0-5-5.6,5.5,5.5,0,0,0,.4-7H27a4.3,4.3,0,0,0,4.1,0h.7a2.7,2.7,0,0,0,1.7-.5,4.5,4.5,0,0,0,1.6,1.1l.3.6a2.3,2.3,0,0,0-1.1,3.6,2.3,2.3,0,0,0-1.2,3.7,2.2,2.2,0,0,0-1.3,3.6Zm1.6,29a1.6,1.6,0,0,0-1.4.8h-.7a1.5,1.5,0,0,0-.5-.9l-.2-.2.6-.5a1.8,1.8,0,0,0,1.5,1h.8Zm-7.3,25.6a1.5,1.5,0,0,0-1,2.1,2.8,2.8,0,0,0-1.4.3l-.2-.3a2.9,2.9,0,0,0-2.1-1.2,1.6,1.6,0,0,0-.2-1.3,1.6,1.6,0,0,0,1.1-2.4,1.6,1.6,0,0,0,1.2-2.4,1.6,1.6,0,0,0,1.1-2.4,1.6,1.6,0,0,0,1.1-2.4,1.6,1.6,0,0,0,1.2-2.3,1.6,1.6,0,0,0,1-2.3,1.6,1.6,0,0,0,1-2.4,1.6,1.6,0,0,0,1.3-.9,1.6,1.6,0,0,0,.1-.5,1.5,1.5,0,0,0,.4.7,1.6,1.6,0,0,0-.8,2.5,1.6,1.6,0,0,0-1,1.1,1.5,1.5,0,0,0,.3,1.4,1.5,1.5,0,0,0-.5,2.6,1.6,1.6,0,0,0-.7,2.6,1.6,1.6,0,0,0-.7,2.6,1.5,1.5,0,0,0-.6,2.6,1.5,1.5,0,0,0-.7,2.6Z"/><path class="d" d="M35,68.8c.8,1,3-.1,5.2-2.3A12.2,12.2,0,0,0,43,60.7a7.9,7.9,0,0,0-5.5,2.1C35.3,65,34.2,67.8,35,68.8Z"/><path class="d" d="M37.2,59.8c.7,1.1,3.2.1,5.6-2A11.7,11.7,0,0,0,46,52.2a8.3,8.3,0,0,0-5.8,1.7C37.7,56,36.5,58.7,37.2,59.8Z"/><path class="d" d="M56.3,22.1A11,11,0,0,0,59,15.8a9.9,9.9,0,0,0-6.4,2.6c-2.5,2.6-3.5,5.5-2.5,6.5S53.9,24.5,56.3,22.1Z"/><path class="d" d="M32.8,78.3c.8.9,2.9-.3,4.9-2.7a12.7,12.7,0,0,0,2.4-5.9,7.5,7.5,0,0,0-5.1,2.4C32.9,74.5,32,77.4,32.8,78.3Z"/><path class="d" d="M40.1,50.7c.7,1.1,3.3.3,5.9-1.6a11.5,11.5,0,0,0,3.6-5.4A8.7,8.7,0,0,0,43.5,45C40.9,47,39.4,49.6,40.1,50.7Z"/><path class="d" d="M50.9,27.3c-2.6,2.3-3.8,5.1-2.9,6.1s3.6-.1,6.2-2.3a10.9,10.9,0,0,0,3.1-5.9A9.6,9.6,0,0,0,50.9,27.3Z"/><path class="d" d="M43.5,42.5c.8,1,3.5,0,6-2.2a11.2,11.2,0,0,0,3.2-5.7,9.2,9.2,0,0,0-6.2,1.9C43.9,38.7,42.6,41.4,43.5,42.5Z"/><path class="d" d="M29.8,67.2c1.1-.4,1.4-3.5.8-6.8a10.3,10.3,0,0,0-3.2-5.5,12.9,12.9,0,0,0-.9,7C27.3,65.3,28.7,67.6,29.8,67.2Z"/><path class="d" d="M32.6,58.1c1.2-.4,1.7-3.4,1.2-6.8a10.5,10.5,0,0,0-3-5.8,12.5,12.5,0,0,0-1.3,7C30,56,31.4,58.4,32.6,58.1Z"/><path class="d" d="M28,77.1c1-.5,1.2-3.5.4-6.9A10,10,0,0,0,25.1,65a13.4,13.4,0,0,0-.5,7C25.4,75.4,26.9,77.6,28,77.1Z"/><path class="d" d="M36,48.9c1.2-.3,1.9-3.2,1.6-6.7a10.7,10.7,0,0,0-2.8-6A12.1,12.1,0,0,0,33,43.1C33.4,46.7,34.7,49.2,36,48.9Z"/><path class="d" d="M44,31.1c1.3.2,3-2.3,3.8-5.8a11.6,11.6,0,0,0-.9-6.9,10.8,10.8,0,0,0-4,5.9C42.1,27.9,42.7,30.9,44,31.1Z"/><path class="d" d="M39.5,40.5c1.3,0,2.5-2.8,2.9-6.3a11.4,11.4,0,0,0-1.7-6.6A11.3,11.3,0,0,0,37.6,34C37.3,37.6,38.2,40.5,39.5,40.5Z"/><path class="d" d="M29.5,77.9a3,3,0,0,1,1.5.5H31a152.5,152.5,0,0,1,3.7-16.1A156.8,156.8,0,0,1,49.4,26.1,148.8,148.8,0,0,0,33.1,61.6,153.7,153.7,0,0,0,29.5,77.9Z"/><path class="d" d="M75.5,34.9a8.1,8.1,0,0,0,2.7-5.2s-3.9-.3-6.4,1.7-3.5,4.6-2.5,5.5S73,36.9,75.5,34.9Z"/><path class="d" d="M62.2,54c-2.7,1.5-4.3,3.8-3.6,4.8s3.3.4,6-1.1a9.4,9.4,0,0,0,3.8-4.4A9.9,9.9,0,0,0,62.2,54Z"/><path class="d" d="M63,41.9c1.3.3,3-1.8,3.9-4.8S66,31,66,31s-3.2,1.8-4.1,4.9S61.7,41.6,63,41.9Z"/><path class="d" d="M51.1,67.9a136.5,136.5,0,0,0-6.1,20.8,3,3,0,0,1,.1,1,3,3,0,0,1,1.3-.3,135.1,135.1,0,0,1,6.2-20.6A137.2,137.2,0,0,1,68.5,37.9,129.7,129.7,0,0,0,51.1,67.9Z"/><path class="d" d="M58.6,61.6c-2.6,1.7-4,4-3.3,5s3.2.2,5.7-1.5a9.7,9.7,0,0,0,3.5-4.7A9.3,9.3,0,0,0,58.6,61.6Z"/><path class="d" d="M49.9,82.6c.7.9,2.9-.2,5.1-2.2a10.4,10.4,0,0,0,2.8-5.1,8.4,8.4,0,0,0-5.3,1.9C50.2,79.3,49.2,81.8,49.9,82.6Z"/><path class="d" d="M52.6,74.3c.7.9,3.1,0,5.4-1.8a10,10,0,0,0,3.1-4.9,8.8,8.8,0,0,0-5.7,1.5C53.1,71.1,51.9,73.4,52.6,74.3Z"/><path class="d" d="M58.3,49.8c1.3.1,2.6-2.3,3-5.3a9.5,9.5,0,0,0-1.6-5.9A9.1,9.1,0,0,0,56.5,44C56.1,47.1,57,49.7,58.3,49.8Z"/><path class="d" d="M65.4,46.7c-2.6,1.8-4,4.1-3.1,5.1s3.5.2,6.1-1.5a8.7,8.7,0,0,0,3.3-4.8S68,44.9,65.4,46.7Z"/><path class="d" d="M45.1,81.4c1.1-.4,1.4-3.1.8-6a8.7,8.7,0,0,0-3.1-4.8,10.6,10.6,0,0,0-.9,6.2C42.6,79.8,44,81.8,45.1,81.4Z"/><path class="d" d="M70,39c-2.6,1.8-3.9,4.2-3,5.1s3.6.2,6.2-1.6a8.2,8.2,0,0,0,3.2-4.9S72.6,37.2,70,39Z"/><path class="d" d="M47.5,72.7c1.1-.4,1.6-3,1.2-6a9,9,0,0,0-3-5,10.2,10.2,0,0,0-1.2,6.2C45,71,46.4,73.1,47.5,72.7Z"/><path class="d" d="M54.4,57c1.3-.2,2.1-2.7,1.8-5.8a9.5,9.5,0,0,0-2.7-5.4,9.5,9.5,0,0,0-1.9,6C51.9,54.9,53.2,57.2,54.4,57Z"/><path class="d" d="M50.7,64.8c1.2-.3,1.8-2.9,1.5-5.9a9.3,9.3,0,0,0-2.9-5.2,9.8,9.8,0,0,0-1.6,6.1C48.2,62.9,49.5,65.1,50.7,64.8Z"/><path class="d" d="M67.6,103.9V91.8H89.8v55H75.5V103.9Z"/><path class="d" d="M96.7,107.6a19.9,19.9,0,0,1,6.4-13.3c3.5-3.1,8.4-4.7,14-4.7,9.8,0,17.6,5.7,17.6,16,0,4.4-1.8,9-5.8,11.3,5.8,1.5,9,8.2,9,13.9,0,12-10.4,18.2-21.4,18.2-6.3,0-12-1.7-16.4-6.2s-6.4-9-6.3-13.9h14.6a7.5,7.5,0,0,0,7.7,7.8c4.4,0,7.7-2.9,7.7-7.4a7.5,7.5,0,0,0-7.6-7.4,9.3,9.3,0,0,0-2.5.4v-9.6h1.5c3.6,0,6.3-2.3,6.3-6.1a5.3,5.3,0,0,0-5.6-5.5c-3.6,0-5.9,2.8-5.8,6.3Z"/><path class="d" d="M105.9,20.7a17.3,17.3,0,0,0,6.6.1c3.6-.7,6-1,7-2.2s1.3-3.3-.4-5.5a44.9,44.9,0,0,0-5.1-5l-.8-.7a8.4,8.4,0,0,1,4.2.6,22.5,22.5,0,0,1,5.5,4.3,12.6,12.6,0,0,1,1.9,5.1c0,1.1.2.8.2.8s4.1-.9,5.5-.7,4.8.2,6.3,1.3,3.7,2.2,4.8,2.2,9.5.3,10.6.1,7.8-.3,9.9-.9a31.5,31.5,0,0,1,5.4-1.2c1.1,0,1.3-.4,2.2-.7a6.1,6.1,0,0,1,3.9.4c1.1.7,5.4,3.4,6.9,4l5.2,2.3c.4.2,3.2-.1,4,.8s1.6,3.7,1.3,5.2,0,4.2-.4,5.8-1.9,5.8-2.1,6.7,1.1,3.1,1.1,4.4-.3,4.2-.3,4.7-.1-.7-.3.8a15.1,15.1,0,0,1-.6,2.5c-.2.8-.2-1-.2-1s-.3-.6-.6.3-.7-.2-.7-.6-.9-.8-.9-1.7-.3,1.1-.3,1.1-.6-.2-.6-2.1a16.2,16.2,0,0,1,1-5.8c.8-2.2,2.8-5.3,2.6-7.3a16.4,16.4,0,0,1,.1-4s-1.9,4.8-2.3,6.5-1.3,5.4-1.9,7.2-.8,5.1.2,6.1,4.2,3.9,4.2,4.9-.8,4.4-1.1,6.4a61.7,61.7,0,0,0-.9,8.3,53.2,53.2,0,0,0,.7,5.7c0,.8-.9-.2-1.2-.2s-1.6.2-1.6,1.2.7,1.1.1,1.7-2.5.8-3.8.8a20.1,20.1,0,0,1-3.7-.7,9.2,9.2,0,0,0,1.8-2.2,5.2,5.2,0,0,1,1.1-2,7.5,7.5,0,0,0,2.3-3c.4-1.4.2-7.1.2-7.1s-2.2,4.4-2.9,6.3-.9,3.7-1.2,4-1.2-1-1.4-.4.9,2.6-.1,2.9-4.4-.1-4.4-.1h-3.4s1.9-2.2,2.4-3.1-.2-.9.6-1.2a8.2,8.2,0,0,0,2.1-1.9,11.3,11.3,0,0,0,3.2-6.7,22.6,22.6,0,0,0,0-6.8s-2.3-5-3.3-6-2.1-3.7-2.7-3.7-2.3-.6-2.9-.3-2.6.9-3.9,1.6-6.5,2.8-7,3.3-1.3.8-1.9,1.7l-1,1.6s-.4-.9-.8-.9-.9.8-.9.8.8-1.2-1.4-1.2-3.5.2-4.7.2a16.8,16.8,0,0,1-5.5-1.6c-1.4-.8-2-1.1-3.1-1.1h-2.4a19.1,19.1,0,0,1-.2,3c-.2,1,.6,5.4.6,6.7s-.4,4.5-.4,5,.7,3,.7,4,.6,1.3.2,1.7-1.2.2-1.8.2-.4.2-.4,1.1-.6,1.4-.6,2.2.1,1.2-.4,1.4a15.2,15.2,0,0,1-2.9.4l-1.3-.3-.9.9c-.4.4-4.1-.4-4.8-.1s-1.8-.2-1.8-.2h-.6l1.6-1.6a1.7,1.7,0,0,1,.4-1.2c.5-.5,1.1-1.3,2.3-2.5a7,7,0,0,0,1.6-5.4,23.1,23.1,0,0,0-1.6-4.1c-.3-.8-.2-4.1-.9-5.4s-1.6-3.5-1.6-3.5a6.4,6.4,0,0,1-2.8.7c-1.6,0-4.8-2.2-5.4-3.5s-1.9-5.6-3.1-6.8l-2-2.1a12.4,12.4,0,0,1-2.4-2.4c-.3-.8-2.3-3.2-2.9-3.2h-2.4a2.5,2.5,0,0,0-1.5.5,1.9,1.9,0,0,1-1.7.8c-.9,0-1.1-.3-1.1-.3a1.7,1.7,0,0,1-1.1.4H95.7l-.4-.4a3.5,3.5,0,0,1-1.4.4,2.2,2.2,0,0,1-1.6-.6,2.1,2.1,0,0,1-.3-2.2c.4-.9.9-1.3.9-2.1s.8-2.4.1-3.1a5.8,5.8,0,0,1-1-1.3l-2.6,1.6a5.4,5.4,0,0,1-5,.6c-2.2-.7-2.3-1-2.3-1a3.7,3.7,0,0,1,1.1-2.2c1.1-1.1,2.8-1.4,3.7-2.1l3-2.2.7-.9s-.6.2-2.9-.6a17.7,17.7,0,0,1-6.1-3.5A7.2,7.2,0,0,1,79.6,17a9.6,9.6,0,0,1,3.8-5.4c1.9-1.1,5.9-3.3,7.4-3.5A21.7,21.7,0,0,1,94.4,8l-5.9,3.2c-1.7.9-4.4,2.8-4.4,3.8s-.6,2.2,1.3,3.7,4.4,1.7,5.3,1.9,1-.6,1.9-1a8.9,8.9,0,0,1,3.8-1.2c1.4,0,3.5-.4,4.5,0s2.7.9,3.2,1.4A6.1,6.1,0,0,0,105.9,20.7Z"/></g><rect class="f" x="1.9" y="1.7" width="144" height="144" rx="18.8" ry="18.8"/></svg>
