<svg xmlns="http://www.w3.org/2000/svg" xmlns:xlink="http://www.w3.org/1999/xlink" viewBox="0 0 147.3 146.2"><defs><style>.a,.f{fill:none;}.b{fill:url(#a);}.c{clip-path:url(#b);}.d{fill:#be1e2d;}.e{fill:#fff;}.f{stroke:#1b75bc;stroke-miterlimit:10;stroke-width:1.14px;}</style><linearGradient id="a" x1="73.58" y1="145.07" x2="73.58" y2="1.12" gradientUnits="userSpaceOnUse"><stop offset="0" stop-color="#1b75bc"/><stop offset="1" stop-color="#00aeef"/></linearGradient><clipPath id="b"><rect class="a" x="1.6" y="1.1" width="144" height="143.95" rx="18.8" ry="18.8"/></clipPath></defs><title>Aichi Biodivesity Target 2</title><rect class="b" x="1.6" y="1.1" width="144" height="143.95" rx="18.8" ry="18.8"/><g class="c"><path class="d" d="M37.2,116.2A54.4,54.4,0,1,0-9.9,55.4,54.4,54.4,0,0,0,37.2,116.2Z"/><path class="e" d="M72.6,57.3a7.7,7.7,0,0,0-3.2-9.8,7.7,7.7,0,0,0-4.1-6.1A7.7,7.7,0,0,0,57.5,34H56.4a7.7,7.7,0,0,0-14-2.5A7.6,7.6,0,0,0,32.9,34a7.7,7.7,0,0,0-3.2-.7A7.7,7.7,0,0,0,22,41c0,.2,0,.3,0,.5a7.7,7.7,0,0,0-3.2,4.3,7.7,7.7,0,0,0-3.3,11,7.6,7.6,0,0,0-.4,9.4,7.7,7.7,0,0,0,10.7,11l1.9.3a7.7,7.7,0,0,0,4.4-1.4h.1a7.7,7.7,0,0,0,3.2-.7A7.8,7.8,0,0,0,38,78.3l-1,21.6,2.2.4a38.3,38.3,0,0,0,10.3-.1L48.5,76.5a7.6,7.6,0,0,0,8.7.7,7.7,7.7,0,0,0,13.6-5,7.5,7.5,0,0,0-.1-.9,7.7,7.7,0,0,0,1.9-14Z"/><path class="e" d="M44,23.8a38.4,38.4,0,0,1,.1,76.8A38.4,38.4,0,0,1,44,23.8m0-2.5a40.9,40.9,0,0,0-5.1,81.4,41.5,41.5,0,0,0,5.2.3,40.9,40.9,0,0,0,5.1-81.4,41.4,41.4,0,0,0-5.2-.3Z"/><circle class="d" cx="117.5" cy="29.6" r="40.7" transform="translate(-2.4 47.1) rotate(-22.5)"/><path class="e" d="M134.2,15.9a5.7,5.7,0,0,0-5.7-5.1,5.8,5.8,0,0,0-4.9-2.4,5.8,5.8,0,0,0-7.8-2l-.7.5a5.8,5.8,0,0,0-10,3.6,5.7,5.7,0,0,0-5.2,5,5.7,5.7,0,0,0-2.3.7A5.8,5.8,0,0,0,95.3,24l.2.3a5.8,5.8,0,0,0-.5,4A5.7,5.7,0,0,0,97,36.7a5.7,5.7,0,0,0,3.2,6.3,5.8,5.8,0,0,0,11,3.2l1.3-.5a5.8,5.8,0,0,0,2.4-2.5h.1a5.7,5.7,0,0,0,1.8-1.7,5.8,5.8,0,0,0,2.8.9l7.4,14.4,1.6-.6a28.5,28.5,0,0,0,6.7-3.9l-9.5-15a5.7,5.7,0,0,0,5.9-2.7,5.8,5.8,0,0,0,7-8.3l-.4-.6a5.8,5.8,0,0,0-4-9.8Z"/><path class="e" d="M117.5.9a28.7,28.7,0,1,1-11,2.2,28.7,28.7,0,0,1,11-2.2m0-1.8a30.6,30.6,0,0,0,0,61.2,30.6,30.6,0,0,0,0-61.2Z"/><path class="d" d="M4.7,177.6a40.7,40.7,0,1,0,19-54.3A40.7,40.7,0,0,0,4.7,177.6Z"/><path class="e" d="M56,175.8a5.7,5.7,0,0,0,4.8-6,5.8,5.8,0,0,0,2.1-5,5.8,5.8,0,0,0,1.5-7.9l-.5-.7a5.8,5.8,0,0,0-4.1-9.8,5.7,5.7,0,0,0-5.3-4.9,5.8,5.8,0,0,0-8.9-4l-.3.2a5.8,5.8,0,0,0-4-.2,5.7,5.7,0,0,0-8.3,2.4,5.7,5.7,0,0,0-6.1,3.6,5.8,5.8,0,0,0-2.5,11.2,5.7,5.7,0,0,0,.6,1.3,5.8,5.8,0,0,0,2.7,2.2h0a5.7,5.7,0,0,0,1.8,1.7,5.8,5.8,0,0,0-.8,2.8l-13.9,8.2.6,1.5a28.5,28.5,0,0,0,4.3,6.4l14.4-10.3a5.7,5.7,0,0,0,3.1,5.7,5.8,5.8,0,0,0,8.7,6.5l.5-.4a5.8,5.8,0,0,0,9.6-4.5Z"/><path class="e" d="M41.3,131.2A28.7,28.7,0,1,1,28.8,134a28.7,28.7,0,0,1,12.5-2.9m0-1.8a30.6,30.6,0,0,0-27.5,43.9,30.8,30.8,0,0,0,27.5,17.3,30.6,30.6,0,0,0,27.5-43.9,30.8,30.8,0,0,0-27.5-17.3Z"/></g><rect class="f" x="1.6" y="1.1" width="144" height="143.95" rx="18.8" ry="18.8"/><path class="e" d="M137.6,134.1v12.1H93.4l22.5-24.4c3.2-3.5,6.3-8.5,6.3-13.5,0-3.5-2.5-7.1-6.3-7.1s-6,3-6,6.7a13.1,13.1,0,0,0,.2,2.3H94.3c.4-12.6,8.5-21.1,21.4-21.1S137,96.6,137,108.6c0,7.9-3.3,12.5-8.9,17.6l-8.5,7.9Z"/></svg>
