<svg xmlns="http://www.w3.org/2000/svg" width="60.546" height="49.731" viewBox="0 0 60.546 49.731"><defs><style>.a{fill:#c8ea73;}.b{fill:#b7e445;}.c{fill:#ecf4ff;}.d{fill:#cbe2ff;}.e{fill:#9dc6fb;}.f{fill:#dd5790;}.g{fill:#f6e266;}.h{fill:#f1d333;}.i{fill:#e49542;}</style></defs><g transform="translate(0 -45.725)"><g transform="translate(0 45.725)"><path class="a" d="M59.327,87.566H1.218A1.218,1.218,0,0,1,0,86.347v-39.4a1.218,1.218,0,0,1,1.218-1.218H59.327a1.218,1.218,0,0,1,1.218,1.218v39.4A1.218,1.218,0,0,1,59.327,87.566Z" transform="translate(0 -45.725)"/></g><g transform="translate(29.327 58.729)"><path class="b" d="M261.324,176.9A62.857,62.857,0,0,1,248,184.526h30a1.218,1.218,0,0,0,1.218-1.218V155.689A57.6,57.6,0,0,1,261.324,176.9Z" transform="translate(-248.001 -155.689)"/></g><g transform="translate(3.938 49.663)"><path class="c" d="M33.3,111.772V80.244a1.218,1.218,0,0,1,1.218-1.218H84.753a1.218,1.218,0,0,1,1.218,1.218v31.528a1.218,1.218,0,0,1-1.218,1.218H34.519A1.218,1.218,0,0,1,33.3,111.772Z" transform="translate(-33.301 -79.026)"/></g><g transform="translate(37.127 65.582)"><path class="d" d="M319.489,228a65.26,65.26,0,0,1-5.523,3.693h18.262a1.218,1.218,0,0,0,1.218-1.218V213.645A61.17,61.17,0,0,1,319.489,228Z" transform="translate(-313.966 -213.645)"/></g><g transform="translate(21.659 53.601)"><path class="e" d="M183.154,115.047v-1.5a1.218,1.218,0,0,1,1.218-1.218h14.792a1.218,1.218,0,0,1,1.218,1.218v1.5a1.218,1.218,0,0,1-1.218,1.218H184.372A1.218,1.218,0,0,1,183.154,115.047Z" transform="translate(-183.154 -112.327)"/></g><g transform="translate(39.379 70.337)"><g transform="translate(3.692 12.06)"><path class="f" d="M373,368.815l-3.512-1.844a.731.731,0,0,0-.68,0l-3.512,1.844a.731.731,0,0,1-1.071-.647V355.84h9.845v12.327A.731.731,0,0,1,373,368.815Z" transform="translate(-364.227 -355.84)"/></g><circle class="g" cx="8.614" cy="8.614" r="8.614"/><g transform="translate(1.298 1.299)"><path class="h" d="M355.85,264.836A8.613,8.613,0,0,1,343.987,276.7a8.614,8.614,0,1,0,11.863-11.863Z" transform="translate(-343.987 -264.836)"/></g><g transform="translate(3.938 3.938)"><circle class="i" cx="4.676" cy="4.676" r="4.676"/></g></g><g transform="translate(12.5 60.563)"><path class="e" d="M140.337,173.03H106.619a.914.914,0,1,1,0-1.827h33.718a.914.914,0,0,1,0,1.827Z" transform="translate(-105.705 -171.203)"/></g><g transform="translate(12.5 64.501)"><path class="e" d="M140.337,206.331H106.619a.914.914,0,0,1,0-1.827h33.718a.914.914,0,0,1,0,1.827Z" transform="translate(-105.705 -204.504)"/></g><g transform="translate(12.5 68.439)"><path class="e" d="M126.8,239.632H106.619a.914.914,0,1,1,0-1.827H126.8a.914.914,0,1,1,0,1.827Z" transform="translate(-105.705 -237.805)"/></g><g transform="translate(12.5 72.377)"><path class="f" d="M113.264,272.933h-6.645a.914.914,0,1,1,0-1.827h6.645a.914.914,0,1,1,0,1.827Z" transform="translate(-105.705 -271.106)"/></g><g transform="translate(12.5 76.315)"><path class="f" d="M113.264,306.233h-6.645a.914.914,0,1,1,0-1.827h6.645a.914.914,0,1,1,0,1.827Z" transform="translate(-105.705 -304.406)"/></g></g></svg>