<svg xmlns="http://www.w3.org/2000/svg" width="60.546" height="60.546" viewBox="0 0 60.546 60.546"><defs><style>.a{fill:#58c4fe;}.b{fill:#218ed2;}.c{fill:#aae234;}.d{fill:#56c125;}.e{fill:#f2f8fc;}.f{fill:#cceaf2;}.g{fill:#ff4c00;}.h{fill:#ce0102;}</style></defs><g transform="translate(0)"><path class="a" d="M51.892,120.843a25.971,25.971,0,0,1-.52,5.19L25.946,146.789H25.94A25.956,25.956,0,0,1,2.5,109.724l23.443-7.889L37.9,97.81h0a25.941,25.941,0,0,1,13.992,23.032Z" transform="translate(0 -86.244)"/><path class="b" d="M245.312,120.843a25.971,25.971,0,0,1-.52,5.19l-25.426,20.756h-.006V101.835l11.96-4.025h0a25.941,25.941,0,0,1,13.992,23.032Z" transform="translate(-193.42 -86.244)"/><path class="c" d="M69.994,104.316a25.952,25.952,0,0,1-25.426,20.756l5.185-7.413v-7.413l-5.185-5.929H33.449l-4.455-5.327V91.713L21.12,88.007A25.945,25.945,0,0,1,44.563,73.18h.006a25.822,25.822,0,0,1,11.954,2.913h0l-6.769,7.463V93.936l5.934,5.19H63.1Z" transform="translate(-18.622 -64.526)"/><path class="d" d="M244.792,104.316a25.952,25.952,0,0,1-25.426,20.756l5.185-7.413v-7.413l-5.185-5.929h-.006V73.18h.006a25.822,25.822,0,0,1,11.954,2.913h0l-6.769,7.463V93.936l5.934,5.19H237.9Z" transform="translate(-193.42 -64.526)"/><path class="e" d="M360.051,30.4V5.845a5.845,5.845,0,0,0-11.691,0V30.4a9.917,9.917,0,1,0,11.691,0Z" transform="translate(-303.577)"/><path class="f" d="M438.057,38.416a9.928,9.928,0,0,1-9.917,9.916V0a5.851,5.851,0,0,1,5.845,5.845V30.4A9.96,9.96,0,0,1,438.057,38.416Z" transform="translate(-377.511 0)"/><path class="g" d="M387.027,112.359a6.369,6.369,0,1,1-9.552-5.519l.886-.512V83.86h4.6v22.468l.886.512A6.4,6.4,0,0,1,387.027,112.359Z" transform="translate(-330.029 -73.943)"/><path class="h" d="M434.509,112.359a6.376,6.376,0,0,1-6.369,6.368V83.86h2.3v22.468l.886.512A6.4,6.4,0,0,1,434.509,112.359Z" transform="translate(-377.511 -73.943)"/><path class="e" d="M413.14,309.85h3.548V313.4H413.14Z" transform="translate(-364.285 -273.209)"/><path class="f" d="M428.14,309.85h1.774V313.4H428.14Z" transform="translate(-377.511 -273.209)"/></g></svg>