<svg xmlns="http://www.w3.org/2000/svg" width="31.231" height="41" viewBox="0 0 31.231 41">
  <g id="_001-contract" data-name="001-contract" transform="translate(-0.018)">
    <g id="Group_21" data-name="Group 21" transform="translate(0.018)">
      <g id="Group_20" data-name="Group 20" transform="translate(0)">
        <path id="Path_388" data-name="Path 388" d="M31.249,7a3.58,3.58,0,0,0-1.056-2.548l-3.4-3.4A3.58,3.58,0,0,0,24.248,0H3.622a3.608,3.608,0,0,0-3.6,3.6V37.4a3.608,3.608,0,0,0,3.6,3.6H27.645a3.608,3.608,0,0,0,3.6-3.6V7ZM24.042,2.4a1.311,1.311,0,0,1,1.055.352l3.4,3.4a1.311,1.311,0,0,1,.352,1.055h-4.8Zm4.8,34.994a1.2,1.2,0,0,1-1.2,1.2H3.622a1.2,1.2,0,0,1-1.2-1.2V3.6a1.2,1.2,0,0,1,1.2-1.2H21.639V8.408a1.2,1.2,0,0,0,1.2,1.2h6.006v9.315s-.278,10.473,0,18.472Z" transform="translate(-0.018)" fill="#009b48"/>
      </g>
    </g>
    <g id="Group_23" data-name="Group 23" transform="translate(4.823 12.012)">
      <g id="Group_22" data-name="Group 22">
        <path id="Path_389" data-name="Path 389" d="M78.036,150H61.219a1.2,1.2,0,1,0,0,2.4H78.036a1.2,1.2,0,1,0,0-2.4Z" transform="translate(-60.018 -150)" fill="#009b48"/>
      </g>
    </g>
    <g id="Group_25" data-name="Group 25" transform="translate(4.823 16.816)">
      <g id="Group_24" data-name="Group 24">
        <path id="Path_390" data-name="Path 390" d="M73.231,210H61.219a1.2,1.2,0,1,0,0,2.4H73.231a1.2,1.2,0,0,0,0-2.4Z" transform="translate(-60.018 -210)" fill="#009b48"/>
      </g>
    </g>
    <g id="Group_27" data-name="Group 27" transform="translate(4.823 21.621)">
      <g id="Group_26" data-name="Group 26">
        <path id="Path_391" data-name="Path 391" d="M73.231,270H61.219a1.2,1.2,0,1,0,0,2.4H73.231a1.2,1.2,0,0,0,0-2.4Z" transform="translate(-60.018 -270)" fill="#009b48"/>
      </g>
    </g>
    <g id="Group_29" data-name="Group 29" transform="translate(4.823 26.426)">
      <g id="Group_28" data-name="Group 28">
        <path id="Path_392" data-name="Path 392" d="M73.231,330H61.219a1.2,1.2,0,1,0,0,2.4H73.231a1.2,1.2,0,0,0,0-2.4Z" transform="translate(-60.018 -330)" fill="#009b48"/>
      </g>
    </g>
  </g>
</svg>
