<svg xmlns="http://www.w3.org/2000/svg" width="67.594" height="67.633" viewBox="0 0 67.594 67.633"><defs><style>.a{fill:#89c8fd;}.b{fill:#60b6ff;}.c{fill:#baeb6c;}.d{fill:#96d629;}.e{fill:#09a66d;}.f{fill:#49cb5c;}.g{fill:#07b128;}</style></defs><g transform="translate(0 0)"><path class="a" d="M94.4,148.316a22.2,22.2,0,1,0-22.2,22.258A22.228,22.228,0,0,0,94.4,148.316Zm0,0" transform="translate(-43.396 -109.407)"/><path class="b" d="M196.028,126.059a22.294,22.294,0,0,0-3.352.252,22.27,22.27,0,0,1,0,44.011,22.254,22.254,0,1,0,3.352-44.263Zm0,0" transform="translate(-167.224 -109.407)"/><g transform="translate(6.604 16.697)"><path class="c" d="M165.191,135c-3.42,2.143-5.985,5.571-4.061,9.429s6.2,2.357,10.152,1.821.962,11.679,3.313,14.679,8.976-3,8.335-6.858c-.949-5.711-1.282-7.715,6.412-11.786l.021-.008a22.223,22.223,0,0,0-19.9-15.884v.034S168.611,132.861,165.191,135Zm0,0" transform="translate(-145.878 -126.398)"/><path class="c" d="M323.34,163.238l0,0Zm0,0" transform="translate(-287.233 -158.372)"/><path class="c" d="M343.891,182.895h0Zm0,0" transform="translate(-305.069 -175.432)"/><path class="c" d="M57.452,253.671c-1.027-1.566,1.817-5.25,2.458-8.036s-3.206-2.572-4.381-3.536-2.779-5.143-3.954-6.107l-.188-.148a22.319,22.319,0,0,0,7.662,25.687l.007-.466A10.246,10.246,0,0,0,57.452,253.671Zm0,0" transform="translate(-50 -221.386)"/><path class="c" d="M318.292,335.376l-.014-.083a22.123,22.123,0,0,1-1.844,4.886C317.7,338.688,318.54,336.871,318.292,335.376Zm0,0" transform="translate(-281.239 -307.699)"/></g><path class="d" d="M226.893,126.4v.034s-.071.537-.255,1.35A22.267,22.267,0,0,1,240.9,146.567c.981-1.342,2.775-2.643,5.864-4.277l.021-.008A22.223,22.223,0,0,0,226.893,126.4Zm0,0" transform="translate(-196.699 -109.702)"/><path class="e" d="M28.773,137.2a29.041,29.041,0,0,1-4.738-.391,28.7,28.7,0,0,1-23.645-33,1.005,1.005,0,0,1,1.984.328,26.695,26.695,0,0,0,52.677,8.7A26.694,26.694,0,0,0,33.062,82.157a1.005,1.005,0,1,1,.327-1.984A28.708,28.708,0,0,1,28.773,137.2Zm0,0" transform="translate(0 -69.57)"/><path class="f" d="M57.32,24.291C46.585,22.469,39.926,8.953,39.926,8.953S50.672-1.61,61.406.211,78.8,15.548,78.8,15.548,68.055,26.112,57.32,24.291Zm0,0" transform="translate(-34.652 0)"/><path class="g" d="M162.622.213a16.66,16.66,0,0,0-6.075.153c10.286,2.31,16.632,15.184,16.632,15.184s-7.034,6.914-15.406,8.59c.252.057.506.109.763.153,10.735,1.821,21.481-8.743,21.481-8.743S173.357,2.034,162.622.213Zm0,0" transform="translate(-135.868 -0.002)"/><path class="e" d="M78.194,14.612,67.7,12.841,57.89.215A18.465,18.465,0,0,0,55.568.5l9.2,11.842-7.916-1.335L50.095,2.272c-.634.286-1.25.589-1.844.9l5.674,7.342L40.836,8.309c-.588.513-.91.83-.91.83s.216.437.63,1.162l13.018,2.2-7.22,5.583c.465.479.953.952,1.462,1.411l8.456-6.538,8.38,1.414-11.4,8.818a16.74,16.74,0,0,0,2.192.846l11.9-9.209,10.5,1.772c.609-.531.945-.86.945-.86S78.593,15.314,78.194,14.612Zm0,0" transform="translate(-34.652 -0.186)"/><path class="f" d="M383.868,24.722c2.88-6.814,12.858-9.108,12.858-9.108s5.309,8.754,2.429,15.568S386.3,40.29,386.3,40.29,380.988,31.536,383.868,24.722Zm0,0" transform="translate(-332.418 -13.551)"/><path class="g" d="M412.11,15.613a26.672,26.672,0,0,0-4.955,1.807c1.378,2.92,3.563,8.845,1.485,13.761-1.506,3.565-4.955,5.892-7.9,7.3.532,1.127.944,1.807.944,1.807S411.66,38,414.54,31.182,412.11,15.613,412.11,15.613Zm0,0" transform="translate(-347.803 -13.551)"/><path class="e" d="M416.4,25.561l-7.673,3.219,5.038-12.044c-.361-.712-.61-1.123-.61-1.123s-.475.109-1.247.351L406.7,28.411l-3.229-7.944a13.847,13.847,0,0,0-1.531,1.575l3.658,9-3.437,8.216c.335.655.563,1.03.563,1.03s.516-.119,1.346-.382l3.549-8.483,8.776-3.681A14.4,14.4,0,0,0,416.4,25.561Zm0,0" transform="translate(-348.847 -13.551)"/></g></svg>