<svg xmlns="http://www.w3.org/2000/svg" width="126" height="126" viewBox="0 0 126 126">
  <g id="Group_66" data-name="Group 66" transform="translate(-281 -163)">
    <circle id="Ellipse_282" data-name="Ellipse 282" cx="63" cy="63" r="63" transform="translate(281 163)" fill="#e6e6e6"/>
    <g id="noun_Exit_949238" transform="translate(1258.8 -763.996)">
      <g id="Group_53" data-name="Group 53" transform="translate(-934.8 951.996)">
        <g id="Group_51" data-name="Group 51">
          <path id="Path_465" data-name="Path 465" d="M-898.2,1018.341h-5.7V961.168h5.7V996.3h2.543V960.475a1.81,1.81,0,0,0-1.772-1.849H-903.9v-5.317a1.277,1.277,0,0,0-1.772-1.233l-27.431,7.4a2.406,2.406,0,0,0-1.7,2.235v56.248a2.571,2.571,0,0,0,1.7,2.234l27.431,7.4a1.328,1.328,0,0,0,1.772-1.233v-5.317h6.472a1.862,1.862,0,0,0,1.772-1.849V995.611H-898.2ZM-910.066,991.3a1.546,1.546,0,0,1-1.541-1.541,1.546,1.546,0,0,1,1.541-1.541,1.546,1.546,0,0,1,1.541,1.541A1.546,1.546,0,0,1-910.066,991.3Z" transform="translate(934.8 -951.996)"/>
        </g>
      </g>
    </g>
  </g>
</svg>
