<svg xmlns="http://www.w3.org/2000/svg" width="15.8" height="15.018" viewBox="0 0 15.8 15.018"><g transform="translate(0 -12.675)"><g transform="translate(0 12.676)"><path d="M15.535,19.348,14.2,18.131V14.1a.465.465,0,0,0-.465-.465H10.523a.465.465,0,0,0-.465.465v.258L8.446,12.888a.807.807,0,0,0-1.091,0L.265,19.348a.81.81,0,0,0,.546,1.409H1.943v6.472a.465.465,0,0,0,.465.465H6.294a.465.465,0,0,0,.465-.465V23.3H9.042v3.93a.465.465,0,0,0,.465.465h3.886a.465.465,0,0,0,.465-.465V20.757h1.132a.81.81,0,0,0,.546-1.409Zm-2.143.48a.465.465,0,0,0-.465.465v6.472H9.971v-3.93a.465.465,0,0,0-.465-.465H6.294a.465.465,0,0,0-.465.465v3.93H2.873V20.292a.465.465,0,0,0-.465-.465H1.119L7.9,13.648l2.309,2.1a.465.465,0,0,0,.778-.343v-.846h2.284v3.773a.465.465,0,0,0,.152.343l1.259,1.147Z" transform="translate(0 -12.676)"/></g></g></svg>