<svg xmlns="http://www.w3.org/2000/svg" viewBox="0 0 24.248 24.248"><g data-name="Group 60" opacity=".697"><path data-name="Path 4" d="M21.454.25H7.883a2.5 2.5 0 0 0-2.544 2.544v2.544H2.794A2.5 2.5 0 0 0 .25 7.883v13.57A2.5 2.5 0 0 0 2.794 24h13.57a2.5 2.5 0 0 0 2.544-2.544v-2.547h2.544A2.5 2.5 0 0 0 24 16.365V2.794A2.5 2.5 0 0 0 21.454.25Zm-6.192 11.619-6.785 6.785a.82.82 0 0 1-1.187 0L3.9 15.262a.84.84 0 0 1 1.187-1.187l2.8 2.8 6.191-6.191a.84.84 0 0 1 1.188 1.187Zm7.039 4.5a.8.8 0 0 1-.848.848h-2.544v-9.33a2.5 2.5 0 0 0-2.544-2.544h-9.33V2.794a.8.8 0 0 1 .848-.848h13.57a.8.8 0 0 1 .848.848Z" fill="#1d4040" stroke="#bac2c6" stroke-width=".5"/></g></svg>