<svg id="Page-1" xmlns="http://www.w3.org/2000/svg" width="15.258" height="15.258" viewBox="0 0 15.258 15.258">
  <g id="No-Results-_D_" data-name="No-Results-(D)">
    <g id="Filters">
      <g id="search" transform="translate(0 0)">
        <path id="Shape" d="M15.026,13.9l-3.761-3.777a6.015,6.015,0,0,0,1.5-3.96A6.281,6.281,0,0,0,6.381,0,6.281,6.281,0,0,0,0,6.16a6.281,6.281,0,0,0,6.381,6.16,6.469,6.469,0,0,0,3.656-1.115l3.79,3.806A.854.854,0,0,0,15,15.034.785.785,0,0,0,15.026,13.9ZM6.381,1.607A4.642,4.642,0,0,1,11.1,6.16a4.642,4.642,0,0,1-4.716,4.553A4.642,4.642,0,0,1,1.665,6.16,4.642,4.642,0,0,1,6.381,1.607Z" fill="#2c2c2c"/>
      </g>
    </g>
  </g>
</svg>
