<svg xmlns="http://www.w3.org/2000/svg" width="35.549" height="35.549" viewBox="0 0 35.549 35.549">
  <path id="_001-information" data-name="001-information" d="M17.774,0A17.774,17.774,0,1,0,35.549,17.774,17.795,17.795,0,0,0,17.774,0Zm1.156,28.32c-.844.141-2.525.492-3.378.563a2.08,2.08,0,0,1-1.819-.947,2.221,2.221,0,0,1-.269-2.034l3.36-9.239H13.331a4.176,4.176,0,0,1,3.288-3.884A12.862,12.862,0,0,1,20,12.22a2.679,2.679,0,0,1,1.819.947,2.221,2.221,0,0,1,.269,2.034l-3.36,9.239h3.492a3.933,3.933,0,0,1-3.286,3.881ZM20,11.109a2.222,2.222,0,1,1,2.222-2.222A2.222,2.222,0,0,1,20,11.109Z" fill="#777"/>
</svg>
