<svg xmlns="http://www.w3.org/2000/svg" width="15.119" height="13.679" viewBox="0 0 15.119 13.679">
  <g id="Page-1" transform="translate(-21)">
    <g id="My-Reports-_D_" data-name="My-Reports-(D)" transform="translate(21)">
      <g id="_001-warning" data-name="001-warning" transform="translate(0)">
        <path id="Path" d="M14.938,12.049,8.8,1.21a1.434,1.434,0,0,0-2.475,0L.182,12.049a1.43,1.43,0,0,0,1.238,2.13H13.653A1.445,1.445,0,0,0,14.938,12.049Z" transform="translate(0 -0.5)" fill="#c40303"/>
        <path id="Path-2" data-name="Path" d="M8.12,2.5l6.12,10.8H2Z" transform="translate(-0.56 -1.06)" fill="#fff"/>
        <g id="Group" transform="translate(6.511 5.047)">
          <path id="Path-3" data-name="Path" d="M.048,1.127l.4,2.467a.634.634,0,0,0,.644.512.675.675,0,0,0,.644-.512l.4-2.467A.991.991,0,0,0,1.088.01,1.017,1.017,0,0,0,.048,1.127Z" transform="translate(-0.044 -0.01)" fill="#01473a"/>
          <circle id="Oval" cx="0.72" cy="0.72" r="0.72" transform="translate(0.324 4.446)" fill="#01473a"/>
        </g>
      </g>
    </g>
  </g>
</svg>
